<?xml version="1.0" encoding="utf-8"?>
<COLLADA xmlns="http://www.collada.org/2005/11/COLLADASchema" version="1.4.1">
  <asset>
    <contributor><authoring_tool>beamng_autoroad build_portals</authoring_tool></contributor>
    <unit name="meter" meter="1"/>
    <up_axis>Z_UP</up_axis>
  </asset>
  <library_effects>
    <effect id="portal_arc-effect">
      <profile_COMMON>
        <technique sid="common">
          <lambert>
            <diffuse><color>1.0 0.4 0.28 0.18</color></diffuse>
            <transparent opaque="A_ONE"><color>1 1 1 1</color></transparent>
            <transparency><float>0.82</float></transparency>
          </lambert>
        </technique>
      </profile_COMMON>
    </effect>
  </library_effects>
  <library_materials>
    <material id="portal_arc-material" name="portal_arc">
      <instance_effect url="#portal_arc-effect"/>
    </material>
  </library_materials>
  <library_geometries>
    <geometry id="portal_arc_a999-mesh" name="portal_arc_a999-mesh">
      <mesh>
        <source id="portal_arc_a999-mesh-positions">
          <float_array id="portal_arc_a999-mesh-positions-array" count="1008">8.9687 -4.4229 0.0000 88.5548 156.9632 144.8810 -8.9687 4.4229 0.0000 -8.9687 4.4229 0.0000 88.5548 156.9632 144.8810 70.6172 165.8088 144.8810 88.5548 156.9632 144.8810 168.1397 318.3501 284.6600 70.6172 165.8088 144.8810 70.6172 165.8088 144.8810 168.1397 318.3501 284.6600 150.2023 327.1959 284.6600 168.1397 318.3501 284.6600 247.7257 479.7361 419.3360 150.2023 327.1959 284.6600 150.2023 327.1959 284.6600 247.7257 479.7361 419.3360 229.7883 488.5819 419.3360 247.7257 479.7361 419.3360 327.3118 641.1222 548.9110 229.7883 488.5819 419.3360 229.7883 488.5819 419.3360 327.3118 641.1222 548.9110 309.3742 649.9678 548.9110 327.3118 641.1222 548.9110 406.8967 802.5091 673.3840 309.3742 649.9678 548.9110 309.3742 649.9678 548.9110 406.8967 802.5091 673.3840 388.9593 811.3549 673.3840 406.8967 802.5091 673.3840 486.4828 963.8952 792.7540 388.9593 811.3549 673.3840 388.9593 811.3549 673.3840 486.4828 963.8952 792.7540 468.5452 972.7408 792.7540 486.4828 963.8952 792.7540 566.0687 1125.2821 907.0230 468.5452 972.7408 792.7540 468.5452 972.7408 792.7540 566.0687 1125.2821 907.0230 548.1313 1134.1279 907.0230 566.0687 1125.2821 907.0230 645.6548 1286.6682 1016.1900 548.1313 1134.1279 907.0230 548.1313 1134.1279 907.0230 645.6548 1286.6682 1016.1900 627.7172 1295.5138 1016.1900 645.6548 1286.6682 1016.1900 725.2398 1448.0542 1120.2540 627.7172 1295.5138 1016.1900 627.7172 1295.5138 1016.1900 725.2398 1448.0542 1120.2540 707.3022 1456.8998 1120.2540 725.2398 1448.0542 1120.2540 804.8257 1609.4411 1219.2170 707.3022 1456.8998 1120.2540 707.3022 1456.8998 1120.2540 804.8257 1609.4411 1219.2170 786.8883 1618.2869 1219.2170 804.8257 1609.4411 1219.2170 884.4118 1770.8272 1313.0770 786.8883 1618.2869 1219.2170 786.8883 1618.2869 1219.2170 884.4118 1770.8272 1313.0770 866.4742 1779.6728 1313.0770 884.4118 1770.8272 1313.0770 963.9968 1932.2132 1401.8350 866.4742 1779.6728 1313.0770 866.4742 1779.6728 1313.0770 963.9968 1932.2132 1401.8350 946.0592 1941.0588 1401.8350 963.9968 1932.2132 1401.8350 1043.5827 2093.6001 1485.4920 946.0592 1941.0588 1401.8350 946.0592 1941.0588 1401.8350 1043.5827 2093.6001 1485.4920 1025.6453 2102.4459 1485.4920 1043.5827 2093.6001 1485.4920 1123.1688 2254.9862 1564.0460 1025.6453 2102.4459 1485.4920 1025.6453 2102.4459 1485.4920 1123.1688 2254.9862 1564.0460 1105.2312 2263.8318 1564.0460 1123.1688 2254.9862 1564.0460 1202.7537 2416.3731 1637.4980 1105.2312 2263.8318 1564.0460 1105.2312 2263.8318 1564.0460 1202.7537 2416.3731 1637.4980 1184.8163 2425.2189 1637.4980 1202.7537 2416.3731 1637.4980 1282.3397 2577.7591 1705.8490 1184.8163 2425.2189 1637.4980 1184.8163 2425.2189 1637.4980 1282.3397 2577.7591 1705.8490 1264.4023 2586.6049 1705.8490 1282.3397 2577.7591 1705.8490 1361.9258 2739.1452 1769.0970 1264.4023 2586.6049 1705.8490 1264.4023 2586.6049 1705.8490 1361.9258 2739.1452 1769.0970 1343.9882 2747.9908 1769.0970 1361.9258 2739.1452 1769.0970 1441.5118 2900.5322 1827.2430 1343.9882 2747.9908 1769.0970 1343.9882 2747.9908 1769.0970 1441.5118 2900.5322 1827.2430 1423.5742 2909.3778 1827.2430 1441.5118 2900.5322 1827.2430 1521.0967 3061.9181 1880.2870 1423.5742 2909.3778 1827.2430 1423.5742 2909.3778 1827.2430 1521.0967 3061.9181 1880.2870 1503.1593 3070.7639 1880.2870 1521.0967 3061.9181 1880.2870 1600.6828 3223.3042 1928.2290 1503.1593 3070.7639 1880.2870 1503.1593 3070.7639 1880.2870 1600.6828 3223.3042 1928.2290 1582.7452 3232.1498 1928.2290 1600.6828 3223.3042 1928.2290 1680.2688 3384.6912 1971.0690 1582.7452 3232.1498 1928.2290 1582.7452 3232.1498 1928.2290 1680.2688 3384.6912 1971.0690 1662.3312 3393.5368 1971.0690 1680.2688 3384.6912 1971.0690 1759.8538 3546.0772 2008.8070 1662.3312 3393.5368 1971.0690 1662.3312 3393.5368 1971.0690 1759.8538 3546.0772 2008.8070 1741.9162 3554.9228 2008.8070 1759.8538 3546.0772 2008.8070 1839.4397 3707.4641 2041.4430 1741.9162 3554.9228 2008.8070 1741.9162 3554.9228 2008.8070 1839.4397 3707.4641 2041.4430 1821.5023 3716.3099 2041.4430 1839.4397 3707.4641 2041.4430 1919.0258 3868.8502 2068.9770 1821.5023 3716.3099 2041.4430 1821.5023 3716.3099 2041.4430 1919.0258 3868.8502 2068.9770 1901.0882 3877.6958 2068.9770 1919.0258 3868.8502 2068.9770 1998.6108 4030.2362 2091.4090 1901.0882 3877.6958 2068.9770 1901.0882 3877.6958 2068.9770 1998.6108 4030.2362 2091.4090 1980.6732 4039.0818 2091.4090 1998.6108 4030.2362 2091.4090 2078.1967 4191.6231 2108.7390 1980.6732 4039.0818 2091.4090 1980.6732 4039.0818 2091.4090 2078.1967 4191.6231 2108.7390 2060.2593 4200.4689 2108.7390 2078.1967 4191.6231 2108.7390 2157.7828 4353.0092 2120.9670 2060.2593 4200.4689 2108.7390 2060.2593 4200.4689 2108.7390 2157.7828 4353.0092 2120.9670 2139.8452 4361.8548 2120.9670 2157.7828 4353.0092 2120.9670 2237.3688 4514.3962 2128.0920 2139.8452 4361.8548 2120.9670 2139.8452 4361.8548 2120.9670 2237.3688 4514.3962 2128.0920 2219.4312 4523.2418 2128.0920 2237.3688 4514.3962 2128.0920 2316.9537 4675.7821 2130.1160 2219.4312 4523.2418 2128.0920 2219.4312 4523.2418 2128.0920 2316.9537 4675.7821 2130.1160 2299.0163 4684.6279 2130.1160 2316.9537 4675.7821 2130.1160 2396.5398 4837.1682 2127.0380 2299.0163 4684.6279 2130.1160 2299.0163 4684.6279 2130.1160 2396.5398 4837.1682 2127.0380 2378.6022 4846.0138 2127.0380 2396.5398 4837.1682 2127.0380 2476.1258 4998.5552 2118.8570 2378.6022 4846.0138 2127.0380 2378.6022 4846.0138 2127.0380 2476.1258 4998.5552 2118.8570 2458.1882 5007.4008 2118.8570 2476.1258 4998.5552 2118.8570 2555.7107 5159.9411 2105.5750 2458.1882 5007.4008 2118.8570 2458.1882 5007.4008 2118.8570 2555.7107 5159.9411 2105.5750 2537.7733 5168.7869 2105.5750 2555.7107 5159.9411 2105.5750 2635.2968 5321.3272 2087.1900 2537.7733 5168.7869 2105.5750 2537.7733 5168.7869 2105.5750 2635.2968 5321.3272 2087.1900 2617.3592 5330.1728 2087.1900 2635.2968 5321.3272 2087.1900 2714.8828 5482.7142 2063.7040 2617.3592 5330.1728 2087.1900 2617.3592 5330.1728 2087.1900 2714.8828 5482.7142 2063.7040 2696.9452 5491.5598 2063.7040 2714.8828 5482.7142 2063.7040 2794.4678 5644.1002 2035.1150 2696.9452 5491.5598 2063.7040 2696.9452 5491.5598 2063.7040 2794.4678 5644.1002 2035.1150 2776.5302 5652.9458 2035.1150 2794.4678 5644.1002 2035.1150 2874.0537 5805.4871 2001.4250 2776.5302 5652.9458 2035.1150 2776.5302 5652.9458 2035.1150 2874.0537 5805.4871 2001.4250 2856.1163 5814.3329 2001.4250 2874.0537 5805.4871 2001.4250 2953.6398 5966.8732 1962.6320 2856.1163 5814.3329 2001.4250 2856.1163 5814.3329 2001.4250 2953.6398 5966.8732 1962.6320 2935.7022 5975.7188 1962.6320 2953.6398 5966.8732 1962.6320 3033.2248 6128.2592 1918.7370 2935.7022 5975.7188 1962.6320 2935.7022 5975.7188 1962.6320 3033.2248 6128.2592 1918.7370 3015.2872 6137.1048 1918.7370 3033.2248 6128.2592 1918.7370 3112.8107 6289.6461 1869.7410 3015.2872 6137.1048 1918.7370 3015.2872 6137.1048 1918.7370 3112.8107 6289.6461 1869.7410 3094.8733 6298.4919 1869.7410 3112.8107 6289.6461 1869.7410 3192.3967 6451.0321 1815.6420 3094.8733 6298.4919 1869.7410 3094.8733 6298.4919 1869.7410 3192.3967 6451.0321 1815.6420 3174.4593 6459.8779 1815.6420 3192.3967 6451.0321 1815.6420 3271.9828 6612.4182 1756.4410 3174.4593 6459.8779 1815.6420 3174.4593 6459.8779 1815.6420 3271.9828 6612.4182 1756.4410 3254.0452 6621.2638 1756.4410 3271.9828 6612.4182 1756.4410 3351.5677 6773.8051 1692.1380 3254.0452 6621.2638 1756.4410 3254.0452 6621.2638 1756.4410 3351.5677 6773.8051 1692.1380 3333.6303 6782.6509 1692.1380 3351.5677 6773.8051 1692.1380 3431.1538 6935.1912 1622.7340 3333.6303 6782.6509 1692.1380 3333.6303 6782.6509 1692.1380 3431.1538 6935.1912 1622.7340 3413.2162 6944.0368 1622.7340 3431.1538 6935.1912 1622.7340 3510.7398 7096.5782 1548.2270 3413.2162 6944.0368 1622.7340 3413.2162 6944.0368 1622.7340 3510.7398 7096.5782 1548.2270 3492.8022 7105.4238 1548.2270 3510.7398 7096.5782 1548.2270 3590.3247 7257.9641 1468.6180 3492.8022 7105.4238 1548.2270 3492.8022 7105.4238 1548.2270 3590.3247 7257.9641 1468.6180 3572.3873 7266.8099 1468.6180 3590.3247 7257.9641 1468.6180 3669.9108 7419.3502 1383.9070 3572.3873 7266.8099 1468.6180 3572.3873 7266.8099 1468.6180 3669.9108 7419.3502 1383.9070 3651.9732 7428.1958 1383.9070 3669.9108 7419.3502 1383.9070 3749.4968 7580.7372 1294.0940 3651.9732 7428.1958 1383.9070 3651.9732 7428.1958 1383.9070 3749.4968 7580.7372 1294.0940 3731.5592 7589.5828 1294.0940 3749.4968 7580.7372 1294.0940 3829.0817 7742.1231 1199.1790 3731.5592 7589.5828 1294.0940 3731.5592 7589.5828 1294.0940 3829.0817 7742.1231 1199.1790 3811.1443 7750.9689 1199.1790 3829.0817 7742.1231 1199.1790 3908.6678 7903.5092 1099.1610 3811.1443 7750.9689 1199.1790 3811.1443 7750.9689 1199.1790 3908.6678 7903.5092 1099.1610 3890.7302 7912.3548 1099.1610 3908.6678 7903.5092 1099.1610 3988.2537 8064.8961 994.0420 3890.7302 7912.3548 1099.1610 3890.7302 7912.3548 1099.1610 3988.2537 8064.8961 994.0420 3970.3163 8073.7419 994.0420 3988.2537 8064.8961 994.0420 4067.8398 8226.2822 883.8210 3970.3163 8073.7419 994.0420 3970.3163 8073.7419 994.0420 4067.8398 8226.2822 883.8210 4049.9022 8235.1278 883.8210 4067.8398 8226.2822 883.8210 4147.4247 8387.6691 768.4980 4049.9022 8235.1278 883.8210 4049.9022 8235.1278 883.8210 4147.4247 8387.6691 768.4980 4129.4873 8396.5149 768.4980 4147.4247 8387.6691 768.4980 4227.0107 8549.0551 648.0730 4129.4873 8396.5149 768.4980 4129.4873 8396.5149 768.4980 4227.0107 8549.0551 648.0730 4209.0733 8557.9009 648.0730 4227.0107 8549.0551 648.0730 4306.5968 8710.4412 522.5450 4209.0733 8557.9009 648.0730 4209.0733 8557.9009 648.0730 4306.5968 8710.4412 522.5450 4288.6592 8719.2868 522.5450 4306.5968 8710.4412 522.5450 4386.1817 8871.8281 391.9160 4288.6592 8719.2868 522.5450 4288.6592 8719.2868 522.5450 4386.1817 8871.8281 391.9160 4368.2443 8880.6739 391.9160 4386.1817 8871.8281 391.9160 4465.7677 9033.2141 256.1850 4368.2443 8880.6739 391.9160 4368.2443 8880.6739 391.9160 4465.7677 9033.2141 256.1850 4447.8303 9042.0599 256.1850</float_array>
          <technique_common>
            <accessor source="#portal_arc_a999-mesh-positions-array" count="336" stride="3">
              <param name="X" type="float"/>
              <param name="Y" type="float"/>
              <param name="Z" type="float"/>
            </accessor>
          </technique_common>
        </source>
        <source id="portal_arc_a999-mesh-normals">
          <float_array id="portal_arc_a999-mesh-normals-array" count="1008">-0.2774 -0.5625 0.7789 -0.2774 -0.5625 0.7789 -0.2774 -0.5625 0.7789 -0.2774 -0.5625 0.7789 -0.2774 -0.5625 0.7789 -0.2774 -0.5625 0.7789 -0.2713 -0.5502 0.7897 -0.2713 -0.5502 0.7897 -0.2713 -0.5502 0.7897 -0.2713 -0.5502 0.7897 -0.2713 -0.5502 0.7897 -0.2713 -0.5502 0.7897 -0.2650 -0.5374 0.8006 -0.2650 -0.5374 0.8006 -0.2650 -0.5374 0.8006 -0.2650 -0.5374 0.8006 -0.2650 -0.5374 0.8006 -0.2650 -0.5374 0.8006 -0.2585 -0.5241 0.8115 -0.2585 -0.5241 0.8115 -0.2585 -0.5241 0.8115 -0.2584 -0.5241 0.8115 -0.2584 -0.5241 0.8115 -0.2584 -0.5241 0.8115 -0.2516 -0.5102 0.8224 -0.2516 -0.5102 0.8224 -0.2516 -0.5102 0.8224 -0.2516 -0.5102 0.8224 -0.2516 -0.5102 0.8224 -0.2516 -0.5102 0.8224 -0.2445 -0.4958 0.8333 -0.2445 -0.4958 0.8333 -0.2445 -0.4958 0.8333 -0.2445 -0.4958 0.8333 -0.2445 -0.4958 0.8333 -0.2445 -0.4958 0.8333 -0.2371 -0.4808 0.8442 -0.2371 -0.4808 0.8442 -0.2371 -0.4808 0.8442 -0.2371 -0.4808 0.8442 -0.2371 -0.4808 0.8442 -0.2371 -0.4808 0.8442 -0.2294 -0.4652 0.8550 -0.2294 -0.4652 0.8550 -0.2294 -0.4652 0.8550 -0.2294 -0.4652 0.8550 -0.2294 -0.4652 0.8550 -0.2294 -0.4652 0.8550 -0.2214 -0.4490 0.8657 -0.2214 -0.4490 0.8657 -0.2214 -0.4490 0.8657 -0.2214 -0.4490 0.8657 -0.2214 -0.4490 0.8657 -0.2214 -0.4490 0.8657 -0.2131 -0.4322 0.8762 -0.2131 -0.4322 0.8762 -0.2131 -0.4322 0.8762 -0.2131 -0.4322 0.8762 -0.2131 -0.4322 0.8762 -0.2131 -0.4322 0.8762 -0.2045 -0.4148 0.8866 -0.2045 -0.4148 0.8866 -0.2045 -0.4148 0.8866 -0.2045 -0.4148 0.8866 -0.2045 -0.4148 0.8866 -0.2045 -0.4148 0.8866 -0.1957 -0.3968 0.8968 -0.1957 -0.3968 0.8968 -0.1957 -0.3968 0.8968 -0.1957 -0.3968 0.8968 -0.1957 -0.3968 0.8968 -0.1957 -0.3968 0.8968 -0.1865 -0.3781 0.9068 -0.1865 -0.3781 0.9068 -0.1865 -0.3781 0.9068 -0.1865 -0.3781 0.9068 -0.1865 -0.3781 0.9068 -0.1865 -0.3781 0.9068 -0.1770 -0.3588 0.9165 -0.1770 -0.3588 0.9165 -0.1770 -0.3588 0.9165 -0.1770 -0.3588 0.9165 -0.1770 -0.3588 0.9165 -0.1770 -0.3588 0.9165 -0.1671 -0.3390 0.9258 -0.1671 -0.3390 0.9258 -0.1671 -0.3390 0.9258 -0.1671 -0.3389 0.9258 -0.1671 -0.3389 0.9258 -0.1671 -0.3389 0.9258 -0.1571 -0.3185 0.9348 -0.1571 -0.3185 0.9348 -0.1571 -0.3185 0.9348 -0.1571 -0.3185 0.9348 -0.1571 -0.3185 0.9348 -0.1571 -0.3185 0.9348 -0.1467 -0.2974 0.9434 -0.1467 -0.2974 0.9434 -0.1467 -0.2974 0.9434 -0.1467 -0.2974 0.9434 -0.1467 -0.2974 0.9434 -0.1467 -0.2974 0.9434 -0.1360 -0.2758 0.9516 -0.1360 -0.2758 0.9516 -0.1360 -0.2758 0.9516 -0.1360 -0.2758 0.9516 -0.1360 -0.2758 0.9516 -0.1360 -0.2758 0.9516 -0.1251 -0.2536 0.9592 -0.1251 -0.2536 0.9592 -0.1251 -0.2536 0.9592 -0.1251 -0.2536 0.9592 -0.1251 -0.2536 0.9592 -0.1251 -0.2536 0.9592 -0.1139 -0.2309 0.9663 -0.1139 -0.2309 0.9663 -0.1139 -0.2309 0.9663 -0.1139 -0.2309 0.9663 -0.1139 -0.2309 0.9663 -0.1139 -0.2309 0.9663 -0.1024 -0.2077 0.9728 -0.1024 -0.2077 0.9728 -0.1024 -0.2077 0.9728 -0.1024 -0.2077 0.9728 -0.1024 -0.2077 0.9728 -0.1024 -0.2077 0.9728 -0.0908 -0.1841 0.9787 -0.0908 -0.1841 0.9787 -0.0908 -0.1841 0.9787 -0.0908 -0.1841 0.9787 -0.0908 -0.1841 0.9787 -0.0908 -0.1841 0.9787 -0.0789 -0.1601 0.9839 -0.0789 -0.1601 0.9839 -0.0789 -0.1601 0.9839 -0.0789 -0.1601 0.9839 -0.0789 -0.1601 0.9839 -0.0789 -0.1601 0.9839 -0.0669 -0.1357 0.9885 -0.0669 -0.1357 0.9885 -0.0669 -0.1357 0.9885 -0.0669 -0.1357 0.9885 -0.0669 -0.1357 0.9885 -0.0669 -0.1357 0.9885 -0.0547 -0.1109 0.9923 -0.0547 -0.1109 0.9923 -0.0547 -0.1109 0.9923 -0.0547 -0.1109 0.9923 -0.0547 -0.1109 0.9923 -0.0547 -0.1109 0.9923 -0.0424 -0.0860 0.9954 -0.0424 -0.0860 0.9954 -0.0424 -0.0860 0.9954 -0.0424 -0.0860 0.9954 -0.0424 -0.0860 0.9954 -0.0424 -0.0860 0.9954 -0.0300 -0.0608 0.9977 -0.0300 -0.0608 0.9977 -0.0300 -0.0608 0.9977 -0.0300 -0.0608 0.9977 -0.0300 -0.0608 0.9977 -0.0300 -0.0608 0.9977 -0.0175 -0.0355 0.9992 -0.0175 -0.0355 0.9992 -0.0175 -0.0355 0.9992 -0.0175 -0.0355 0.9992 -0.0175 -0.0355 0.9992 -0.0175 -0.0355 0.9992 -0.0050 -0.0101 0.9999 -0.0050 -0.0101 0.9999 -0.0050 -0.0101 0.9999 -0.0050 -0.0101 0.9999 -0.0050 -0.0101 0.9999 -0.0050 -0.0101 0.9999 0.0076 0.0153 0.9999 0.0076 0.0153 0.9999 0.0076 0.0153 0.9999 0.0076 0.0153 0.9999 0.0076 0.0153 0.9999 0.0076 0.0153 0.9999 0.0201 0.0407 0.9990 0.0201 0.0407 0.9990 0.0201 0.0407 0.9990 0.0201 0.0407 0.9990 0.0201 0.0407 0.9990 0.0201 0.0407 0.9990 0.0326 0.0660 0.9973 0.0326 0.0660 0.9973 0.0326 0.0660 0.9973 0.0326 0.0660 0.9973 0.0326 0.0660 0.9973 0.0326 0.0660 0.9973 0.0450 0.0912 0.9948 0.0450 0.0912 0.9948 0.0450 0.0912 0.9948 0.0450 0.0912 0.9948 0.0450 0.0912 0.9948 0.0450 0.0912 0.9948 0.0572 0.1161 0.9916 0.0572 0.1161 0.9916 0.0572 0.1161 0.9916 0.0572 0.1161 0.9916 0.0572 0.1161 0.9916 0.0572 0.1161 0.9916 0.0694 0.1407 0.9876 0.0694 0.1407 0.9876 0.0694 0.1407 0.9876 0.0694 0.1407 0.9876 0.0694 0.1407 0.9876 0.0694 0.1407 0.9876 0.0814 0.1650 0.9829 0.0814 0.1650 0.9829 0.0814 0.1650 0.9829 0.0814 0.1650 0.9829 0.0814 0.1650 0.9829 0.0814 0.1650 0.9829 0.0932 0.1890 0.9775 0.0932 0.1890 0.9775 0.0932 0.1890 0.9775 0.0932 0.1890 0.9775 0.0932 0.1890 0.9775 0.0932 0.1890 0.9775 0.1048 0.2126 0.9715 0.1048 0.2126 0.9715 0.1048 0.2126 0.9715 0.1048 0.2126 0.9715 0.1048 0.2126 0.9715 0.1048 0.2126 0.9715 0.1162 0.2356 0.9649 0.1162 0.2356 0.9649 0.1162 0.2356 0.9649 0.1162 0.2356 0.9649 0.1162 0.2356 0.9649 0.1162 0.2356 0.9649 0.1273 0.2582 0.9577 0.1273 0.2582 0.9577 0.1273 0.2582 0.9577 0.1273 0.2582 0.9577 0.1273 0.2582 0.9577 0.1273 0.2582 0.9577 0.1382 0.2803 0.9499 0.1382 0.2803 0.9499 0.1382 0.2803 0.9499 0.1382 0.2803 0.9499 0.1382 0.2803 0.9499 0.1382 0.2803 0.9499 0.1488 0.3018 0.9417 0.1488 0.3018 0.9417 0.1488 0.3018 0.9417 0.1488 0.3018 0.9417 0.1488 0.3018 0.9417 0.1488 0.3018 0.9417 0.1592 0.3228 0.9330 0.1592 0.3228 0.9330 0.1592 0.3228 0.9330 0.1592 0.3228 0.9330 0.1592 0.3228 0.9330 0.1592 0.3228 0.9330 0.1692 0.3431 0.9239 0.1692 0.3431 0.9239 0.1692 0.3431 0.9239 0.1692 0.3431 0.9239 0.1692 0.3431 0.9239 0.1692 0.3431 0.9239 0.1789 0.3629 0.9145 0.1789 0.3629 0.9145 0.1789 0.3629 0.9145 0.1789 0.3629 0.9145 0.1789 0.3629 0.9145 0.1789 0.3629 0.9145 0.1884 0.3820 0.9048 0.1884 0.3820 0.9048 0.1884 0.3820 0.9048 0.1884 0.3820 0.9048 0.1884 0.3820 0.9048 0.1884 0.3820 0.9048 0.1975 0.4005 0.8947 0.1975 0.4005 0.8947 0.1975 0.4005 0.8947 0.1975 0.4005 0.8947 0.1975 0.4005 0.8947 0.1975 0.4005 0.8947 0.2063 0.4184 0.8845 0.2063 0.4184 0.8845 0.2063 0.4184 0.8845 0.2063 0.4184 0.8845 0.2063 0.4184 0.8845 0.2063 0.4184 0.8845 0.2149 0.4357 0.8741 0.2149 0.4357 0.8741 0.2149 0.4357 0.8741 0.2149 0.4357 0.8741 0.2149 0.4357 0.8741 0.2149 0.4357 0.8741 0.2231 0.4524 0.8635 0.2231 0.4524 0.8635 0.2231 0.4524 0.8635 0.2231 0.4524 0.8635 0.2231 0.4524 0.8635 0.2231 0.4524 0.8635 0.2310 0.4685 0.8527 0.2310 0.4685 0.8527 0.2310 0.4685 0.8527 0.2310 0.4685 0.8527 0.2310 0.4685 0.8527 0.2310 0.4685 0.8527 0.2386 0.4839 0.8419 0.2386 0.4839 0.8419 0.2386 0.4839 0.8419 0.2386 0.4839 0.8419 0.2386 0.4839 0.8419 0.2386 0.4839 0.8419 0.2460 0.4988 0.8311 0.2460 0.4988 0.8311 0.2460 0.4988 0.8311 0.2460 0.4988 0.8311 0.2460 0.4988 0.8311 0.2460 0.4988 0.8311 0.2530 0.5131 0.8202 0.2530 0.5131 0.8202 0.2530 0.5131 0.8202 0.2530 0.5131 0.8202 0.2530 0.5131 0.8202 0.2530 0.5131 0.8202 0.2598 0.5269 0.8092 0.2598 0.5269 0.8092 0.2598 0.5269 0.8092 0.2598 0.5269 0.8092 0.2598 0.5269 0.8092 0.2598 0.5269 0.8092 0.2663 0.5401 0.7983 0.2663 0.5401 0.7983 0.2663 0.5401 0.7983 0.2663 0.5401 0.7983 0.2663 0.5401 0.7983 0.2663 0.5401 0.7983</float_array>
          <technique_common>
            <accessor source="#portal_arc_a999-mesh-normals-array" count="336" stride="3">
              <param name="X" type="float"/>
              <param name="Y" type="float"/>
              <param name="Z" type="float"/>
            </accessor>
          </technique_common>
        </source>
        <source id="portal_arc_a999-mesh-map-0">
          <float_array id="portal_arc_a999-mesh-map-0-array" count="672">0 0 0 0 0 0 0 0 0 0 0 0 0 0 0 0 0 0 0 0 0 0 0 0 0 0 0 0 0 0 0 0 0 0 0 0 0 0 0 0 0 0 0 0 0 0 0 0 0 0 0 0 0 0 0 0 0 0 0 0 0 0 0 0 0 0 0 0 0 0 0 0 0 0 0 0 0 0 0 0 0 0 0 0 0 0 0 0 0 0 0 0 0 0 0 0 0 0 0 0 0 0 0 0 0 0 0 0 0 0 0 0 0 0 0 0 0 0 0 0 0 0 0 0 0 0 0 0 0 0 0 0 0 0 0 0 0 0 0 0 0 0 0 0 0 0 0 0 0 0 0 0 0 0 0 0 0 0 0 0 0 0 0 0 0 0 0 0 0 0 0 0 0 0 0 0 0 0 0 0 0 0 0 0 0 0 0 0 0 0 0 0 0 0 0 0 0 0 0 0 0 0 0 0 0 0 0 0 0 0 0 0 0 0 0 0 0 0 0 0 0 0 0 0 0 0 0 0 0 0 0 0 0 0 0 0 0 0 0 0 0 0 0 0 0 0 0 0 0 0 0 0 0 0 0 0 0 0 0 0 0 0 0 0 0 0 0 0 0 0 0 0 0 0 0 0 0 0 0 0 0 0 0 0 0 0 0 0 0 0 0 0 0 0 0 0 0 0 0 0 0 0 0 0 0 0 0 0 0 0 0 0 0 0 0 0 0 0 0 0 0 0 0 0 0 0 0 0 0 0 0 0 0 0 0 0 0 0 0 0 0 0 0 0 0 0 0 0 0 0 0 0 0 0 0 0 0 0 0 0 0 0 0 0 0 0 0 0 0 0 0 0 0 0 0 0 0 0 0 0 0 0 0 0 0 0 0 0 0 0 0 0 0 0 0 0 0 0 0 0 0 0 0 0 0 0 0 0 0 0 0 0 0 0 0 0 0 0 0 0 0 0 0 0 0 0 0 0 0 0 0 0 0 0 0 0 0 0 0 0 0 0 0 0 0 0 0 0 0 0 0 0 0 0 0 0 0 0 0 0 0 0 0 0 0 0 0 0 0 0 0 0 0 0 0 0 0 0 0 0 0 0 0 0 0 0 0 0 0 0 0 0 0 0 0 0 0 0 0 0 0 0 0 0 0 0 0 0 0 0 0 0 0 0 0 0 0 0 0 0 0 0 0 0 0 0 0 0 0 0 0 0 0 0 0 0 0 0 0 0 0 0 0 0 0 0 0 0 0 0 0 0 0 0 0 0 0 0 0 0 0 0 0 0 0 0 0 0 0 0 0 0 0 0 0 0 0 0 0 0 0 0 0 0 0 0 0 0 0 0 0 0 0 0 0 0 0 0 0 0 0 0 0 0 0 0 0 0 0 0 0 0 0 0 0 0 0 0 0 0 0 0 0 0 0 0 0 0 0 0 0 0 0 0 0 0 0 0 0 0 0 0 0 0 0 0 0 0 0 0 0 0 0 0 0 0 0 0 0 0 0 0 0 0 0 0 0 0 0 0 0 0</float_array>
          <technique_common>
            <accessor source="#portal_arc_a999-mesh-map-0-array" count="336" stride="2">
              <param name="S" type="float"/>
              <param name="T" type="float"/>
            </accessor>
          </technique_common>
        </source>
        <vertices id="portal_arc_a999-mesh-vertices">
          <input semantic="POSITION" source="#portal_arc_a999-mesh-positions"/>
        </vertices>
        <triangles material="portal_arc" count="112">
          <input semantic="VERTEX" source="#portal_arc_a999-mesh-vertices" offset="0"/>
          <input semantic="NORMAL" source="#portal_arc_a999-mesh-normals" offset="0"/>
          <input semantic="TEXCOORD" source="#portal_arc_a999-mesh-map-0" offset="0" set="0"/>
          <p>0 1 2 3 4 5 6 7 8 9 10 11 12 13 14 15 16 17 18 19 20 21 22 23 24 25 26 27 28 29 30 31 32 33 34 35 36 37 38 39 40 41 42 43 44 45 46 47 48 49 50 51 52 53 54 55 56 57 58 59 60 61 62 63 64 65 66 67 68 69 70 71 72 73 74 75 76 77 78 79 80 81 82 83 84 85 86 87 88 89 90 91 92 93 94 95 96 97 98 99 100 101 102 103 104 105 106 107 108 109 110 111 112 113 114 115 116 117 118 119 120 121 122 123 124 125 126 127 128 129 130 131 132 133 134 135 136 137 138 139 140 141 142 143 144 145 146 147 148 149 150 151 152 153 154 155 156 157 158 159 160 161 162 163 164 165 166 167 168 169 170 171 172 173 174 175 176 177 178 179 180 181 182 183 184 185 186 187 188 189 190 191 192 193 194 195 196 197 198 199 200 201 202 203 204 205 206 207 208 209 210 211 212 213 214 215 216 217 218 219 220 221 222 223 224 225 226 227 228 229 230 231 232 233 234 235 236 237 238 239 240 241 242 243 244 245 246 247 248 249 250 251 252 253 254 255 256 257 258 259 260 261 262 263 264 265 266 267 268 269 270 271 272 273 274 275 276 277 278 279 280 281 282 283 284 285 286 287 288 289 290 291 292 293 294 295 296 297 298 299 300 301 302 303 304 305 306 307 308 309 310 311 312 313 314 315 316 317 318 319 320 321 322 323 324 325 326 327 328 329 330 331 332 333 334 335</p>
        </triangles>
      </mesh>
    </geometry>
  </library_geometries>
  <library_visual_scenes>
    <visual_scene id="Scene" name="Scene">
      <node id="base00" name="base00" type="NODE">
        <node id="start01" name="start01" type="NODE">
          <node id="portal_arc_a999" name="portal_arc_a999" type="NODE">
            <instance_geometry url="#portal_arc_a999-mesh">
              <bind_material>
                <technique_common>
                  <instance_material symbol="portal_arc" target="#portal_arc-material">
                    <bind_vertex_input semantic="UVSET0" input_semantic="TEXCOORD" input_set="0"/>
                  </instance_material>
                </technique_common>
              </bind_material>
            </instance_geometry>
          </node>
        </node>
      </node>
    </visual_scene>
  </library_visual_scenes>
  <scene>
    <instance_visual_scene url="#Scene"/>
  </scene>
</COLLADA>
