<?xml version="1.0" encoding="utf-8"?>
<COLLADA xmlns="http://www.collada.org/2005/11/COLLADASchema" version="1.4.1">
  <asset>
    <contributor><authoring_tool>beamng_autoroad build_portals</authoring_tool></contributor>
    <unit name="meter" meter="1"/>
    <up_axis>Z_UP</up_axis>
  </asset>
  <library_effects>
    <effect id="portal_arc-effect">
      <profile_COMMON>
        <technique sid="common">
          <lambert>
            <diffuse><color>1.0 0.4 0.28 0.18</color></diffuse>
            <transparent opaque="A_ONE"><color>1 1 1 1</color></transparent>
            <transparency><float>0.82</float></transparency>
          </lambert>
        </technique>
      </profile_COMMON>
    </effect>
  </library_effects>
  <library_materials>
    <material id="portal_arc-material" name="portal_arc">
      <instance_effect url="#portal_arc-effect"/>
    </material>
  </library_materials>
  <library_geometries>
    <geometry id="portal_arc_a999-mesh" name="portal_arc_a999-mesh">
      <mesh>
        <source id="portal_arc_a999-mesh-positions">
          <float_array id="portal_arc_a999-mesh-positions-array" count="1008">-9.7103 2.3895 0.0000 -78.8723 -278.6716 195.3130 9.7103 -2.3895 0.0000 9.7103 -2.3895 0.0000 -78.8723 -278.6716 195.3130 -59.4517 -283.4504 195.3130 -78.8723 -278.6716 195.3130 -148.0333 -559.7335 384.0100 -59.4517 -283.4504 195.3130 -59.4517 -283.4504 195.3130 -148.0333 -559.7335 384.0100 -128.6127 -564.5125 384.0100 -148.0333 -559.7335 384.0100 -217.1953 -840.7945 566.0910 -128.6127 -564.5125 384.0100 -128.6127 -564.5125 384.0100 -217.1953 -840.7945 566.0910 -197.7747 -845.5735 566.0910 -217.1953 -840.7945 566.0910 -286.3573 -1121.8556 741.5570 -197.7747 -845.5735 566.0910 -197.7747 -845.5735 566.0910 -286.3573 -1121.8556 741.5570 -266.9367 -1126.6344 741.5570 -286.3573 -1121.8556 741.5570 -355.5183 -1402.9165 910.4060 -266.9367 -1126.6344 741.5570 -266.9367 -1126.6344 741.5570 -355.5183 -1402.9165 910.4060 -336.0977 -1407.6955 910.4060 -355.5183 -1402.9165 910.4060 -424.6803 -1683.9785 1072.6390 -336.0977 -1407.6955 910.4060 -336.0977 -1407.6955 910.4060 -424.6803 -1683.9785 1072.6390 -405.2597 -1688.7575 1072.6390 -424.6803 -1683.9785 1072.6390 -493.8423 -1965.0396 1228.2570 -405.2597 -1688.7575 1072.6390 -405.2597 -1688.7575 1072.6390 -493.8423 -1965.0396 1228.2570 -474.4217 -1969.8184 1228.2570 -493.8423 -1965.0396 1228.2570 -563.0033 -2246.1005 1377.2590 -474.4217 -1969.8184 1228.2570 -474.4217 -1969.8184 1228.2570 -563.0033 -2246.1005 1377.2590 -543.5827 -2250.8795 1377.2590 -563.0033 -2246.1005 1377.2590 -632.1653 -2527.1625 1519.6440 -543.5827 -2250.8795 1377.2590 -543.5827 -2250.8795 1377.2590 -632.1653 -2527.1625 1519.6440 -612.7447 -2531.9415 1519.6440 -632.1653 -2527.1625 1519.6440 -701.3273 -2808.2236 1655.4140 -612.7447 -2531.9415 1519.6440 -612.7447 -2531.9415 1519.6440 -701.3273 -2808.2236 1655.4140 -681.9067 -2813.0024 1655.4140 -701.3273 -2808.2236 1655.4140 -770.4883 -3089.2845 1784.5680 -681.9067 -2813.0024 1655.4140 -681.9067 -2813.0024 1655.4140 -770.4883 -3089.2845 1784.5680 -751.0677 -3094.0635 1784.5680 -770.4883 -3089.2845 1784.5680 -839.6503 -3370.3455 1907.1060 -751.0677 -3094.0635 1784.5680 -751.0677 -3094.0635 1784.5680 -839.6503 -3370.3455 1907.1060 -820.2297 -3375.1245 1907.1060 -839.6503 -3370.3455 1907.1060 -908.8123 -3651.4076 2023.0290 -820.2297 -3375.1245 1907.1060 -820.2297 -3375.1245 1907.1060 -908.8123 -3651.4076 2023.0290 -889.3917 -3656.1864 2023.0290 -908.8123 -3651.4076 2023.0290 -977.9733 -3932.4685 2132.3350 -889.3917 -3656.1864 2023.0290 -889.3917 -3656.1864 2023.0290 -977.9733 -3932.4685 2132.3350 -958.5527 -3937.2475 2132.3350 -977.9733 -3932.4685 2132.3350 -1047.1353 -4213.5295 2235.0250 -958.5527 -3937.2475 2132.3350 -958.5527 -3937.2475 2132.3350 -1047.1353 -4213.5295 2235.0250 -1027.7147 -4218.3085 2235.0250 -1047.1353 -4213.5295 2235.0250 -1116.2973 -4494.5915 2331.1000 -1027.7147 -4218.3085 2235.0250 -1027.7147 -4218.3085 2235.0250 -1116.2973 -4494.5915 2331.1000 -1096.8767 -4499.3705 2331.1000 -1116.2973 -4494.5915 2331.1000 -1185.4593 -4775.6526 2420.5580 -1096.8767 -4499.3705 2331.1000 -1096.8767 -4499.3705 2331.1000 -1185.4593 -4775.6526 2420.5580 -1166.0387 -4780.4314 2420.5580 -1185.4593 -4775.6526 2420.5580 -1254.6203 -5056.7135 2503.4010 -1166.0387 -4780.4314 2420.5580 -1166.0387 -4780.4314 2420.5580 -1254.6203 -5056.7135 2503.4010 -1235.1997 -5061.4925 2503.4010 -1254.6203 -5056.7135 2503.4010 -1323.7823 -5337.7745 2579.6280 -1235.1997 -5061.4925 2503.4010 -1235.1997 -5061.4925 2503.4010 -1323.7823 -5337.7745 2579.6280 -1304.3617 -5342.5535 2579.6280 -1323.7823 -5337.7745 2579.6280 -1392.9443 -5618.8366 2649.2390 -1304.3617 -5342.5535 2579.6280 -1304.3617 -5342.5535 2579.6280 -1392.9443 -5618.8366 2649.2390 -1373.5237 -5623.6154 2649.2390 -1392.9443 -5618.8366 2649.2390 -1462.1053 -5899.8975 2712.2340 -1373.5237 -5623.6154 2649.2390 -1373.5237 -5623.6154 2649.2390 -1462.1053 -5899.8975 2712.2340 -1442.6847 -5904.6765 2712.2340 -1462.1053 -5899.8975 2712.2340 -1531.2673 -6180.9585 2768.6130 -1442.6847 -5904.6765 2712.2340 -1442.6847 -5904.6765 2712.2340 -1531.2673 -6180.9585 2768.6130 -1511.8467 -6185.7375 2768.6130 -1531.2673 -6180.9585 2768.6130 -1600.4293 -6462.0206 2818.3760 -1511.8467 -6185.7375 2768.6130 -1511.8467 -6185.7375 2768.6130 -1600.4293 -6462.0206 2818.3760 -1581.0087 -6466.7994 2818.3760 -1600.4293 -6462.0206 2818.3760 -1669.5903 -6743.0815 2861.5230 -1581.0087 -6466.7994 2818.3760 -1581.0087 -6466.7994 2818.3760 -1669.5903 -6743.0815 2861.5230 -1650.1697 -6747.8605 2861.5230 -1669.5903 -6743.0815 2861.5230 -1738.7523 -7024.1425 2898.0550 -1650.1697 -6747.8605 2861.5230 -1650.1697 -6747.8605 2861.5230 -1738.7523 -7024.1425 2898.0550 -1719.3317 -7028.9215 2898.0550 -1738.7523 -7024.1425 2898.0550 -1807.9143 -7305.2036 2927.9700 -1719.3317 -7028.9215 2898.0550 -1719.3317 -7028.9215 2898.0550 -1807.9143 -7305.2036 2927.9700 -1788.4937 -7309.9824 2927.9700 -1807.9143 -7305.2036 2927.9700 -1877.0753 -7586.2655 2951.2700 -1788.4937 -7309.9824 2927.9700 -1788.4937 -7309.9824 2927.9700 -1877.0753 -7586.2655 2951.2700 -1857.6547 -7591.0445 2951.2700 -1877.0753 -7586.2655 2951.2700 -1946.2373 -7867.3265 2967.9530 -1857.6547 -7591.0445 2951.2700 -1857.6547 -7591.0445 2951.2700 -1946.2373 -7867.3265 2967.9530 -1926.8167 -7872.1055 2967.9530 -1946.2373 -7867.3265 2967.9530 -2015.3993 -8148.3876 2978.0210 -1926.8167 -7872.1055 2967.9530 -1926.8167 -7872.1055 2967.9530 -2015.3993 -8148.3876 2978.0210 -1995.9787 -8153.1664 2978.0210 -2015.3993 -8148.3876 2978.0210 -2084.5603 -8429.4495 2981.4730 -1995.9787 -8153.1664 2978.0210 -1995.9787 -8153.1664 2978.0210 -2084.5603 -8429.4495 2981.4730 -2065.1397 -8434.2285 2981.4730 -2084.5603 -8429.4495 2981.4730 -2153.7223 -8710.5105 2978.3090 -2065.1397 -8434.2285 2981.4730 -2065.1397 -8434.2285 2981.4730 -2153.7223 -8710.5105 2978.3090 -2134.3017 -8715.2895 2978.3090 -2153.7223 -8710.5105 2978.3090 -2222.8843 -8991.5716 2968.5290 -2134.3017 -8715.2895 2978.3090 -2134.3017 -8715.2895 2978.3090 -2222.8843 -8991.5716 2968.5290 -2203.4637 -8996.3504 2968.5290 -2222.8843 -8991.5716 2968.5290 -2292.0453 -9272.6325 2952.1330 -2203.4637 -8996.3504 2968.5290 -2203.4637 -8996.3504 2968.5290 -2292.0453 -9272.6325 2952.1330 -2272.6247 -9277.4115 2952.1330 -2292.0453 -9272.6325 2952.1330 -2361.2073 -9553.6945 2929.1210 -2272.6247 -9277.4115 2952.1330 -2272.6247 -9277.4115 2952.1330 -2361.2073 -9553.6945 2929.1210 -2341.7867 -9558.4735 2929.1210 -2361.2073 -9553.6945 2929.1210 -2430.3693 -9834.7556 2899.4940 -2341.7867 -9558.4735 2929.1210 -2341.7867 -9558.4735 2929.1210 -2430.3693 -9834.7556 2899.4940 -2410.9487 -9839.5344 2899.4940 -2430.3693 -9834.7556 2899.4940 -2499.5303 -10115.8165 2863.2500 -2410.9487 -9839.5344 2899.4940 -2410.9487 -9839.5344 2899.4940 -2499.5303 -10115.8165 2863.2500 -2480.1097 -10120.5955 2863.2500 -2499.5303 -10115.8165 2863.2500 -2568.6923 -10396.8785 2820.3910 -2480.1097 -10120.5955 2863.2500 -2480.1097 -10120.5955 2863.2500 -2568.6923 -10396.8785 2820.3910 -2549.2717 -10401.6575 2820.3910 -2568.6923 -10396.8785 2820.3910 -2637.8543 -10677.9396 2770.9160 -2549.2717 -10401.6575 2820.3910 -2549.2717 -10401.6575 2820.3910 -2637.8543 -10677.9396 2770.9160 -2618.4337 -10682.7184 2770.9160 -2637.8543 -10677.9396 2770.9160 -2707.0153 -10959.0005 2714.8240 -2618.4337 -10682.7184 2770.9160 -2618.4337 -10682.7184 2770.9160 -2707.0153 -10959.0005 2714.8240 -2687.5947 -10963.7795 2714.8240 -2707.0153 -10959.0005 2714.8240 -2776.1773 -11240.0615 2652.1170 -2687.5947 -10963.7795 2714.8240 -2687.5947 -10963.7795 2714.8240 -2776.1773 -11240.0615 2652.1170 -2756.7567 -11244.8405 2652.1170 -2776.1773 -11240.0615 2652.1170 -2845.3393 -11521.1236 2582.7940 -2756.7567 -11244.8405 2652.1170 -2756.7567 -11244.8405 2652.1170 -2845.3393 -11521.1236 2582.7940 -2825.9187 -11525.9024 2582.7940 -2845.3393 -11521.1236 2582.7940 -2914.5003 -11802.1845 2506.8550 -2825.9187 -11525.9024 2582.7940 -2825.9187 -11525.9024 2582.7940 -2914.5003 -11802.1845 2506.8550 -2895.0797 -11806.9635 2506.8550 -2914.5003 -11802.1845 2506.8550 -2983.6623 -12083.2455 2424.3000 -2895.0797 -11806.9635 2506.8550 -2895.0797 -11806.9635 2506.8550 -2983.6623 -12083.2455 2424.3000 -2964.2417 -12088.0245 2424.3000 -2983.6623 -12083.2455 2424.3000 -3052.8243 -12364.3075 2335.1300 -2964.2417 -12088.0245 2424.3000 -2964.2417 -12088.0245 2424.3000 -3052.8243 -12364.3075 2335.1300 -3033.4037 -12369.0865 2335.1300 -3052.8243 -12364.3075 2335.1300 -3121.9863 -12645.3686 2239.3430 -3033.4037 -12369.0865 2335.1300 -3033.4037 -12369.0865 2335.1300 -3121.9863 -12645.3686 2239.3430 -3102.5657 -12650.1474 2239.3430 -3121.9863 -12645.3686 2239.3430 -3191.1473 -12926.4295 2136.9400 -3102.5657 -12650.1474 2239.3430 -3102.5657 -12650.1474 2239.3430 -3191.1473 -12926.4295 2136.9400 -3171.7267 -12931.2085 2136.9400 -3191.1473 -12926.4295 2136.9400 -3260.3093 -13207.4905 2027.9220 -3171.7267 -12931.2085 2136.9400 -3171.7267 -12931.2085 2136.9400 -3260.3093 -13207.4905 2027.9220 -3240.8887 -13212.2695 2027.9220 -3260.3093 -13207.4905 2027.9220 -3329.4713 -13488.5526 1912.2880 -3240.8887 -13212.2695 2027.9220 -3240.8887 -13212.2695 2027.9220 -3329.4713 -13488.5526 1912.2880 -3310.0507 -13493.3314 1912.2880 -3329.4713 -13488.5526 1912.2880 -3398.6323 -13769.6135 1790.0370 -3310.0507 -13493.3314 1912.2880 -3310.0507 -13493.3314 1912.2880 -3398.6323 -13769.6135 1790.0370 -3379.2117 -13774.3925 1790.0370 -3398.6323 -13769.6135 1790.0370 -3467.7943 -14050.6745 1661.1710 -3379.2117 -13774.3925 1790.0370 -3379.2117 -13774.3925 1790.0370 -3467.7943 -14050.6745 1661.1710 -3448.3737 -14055.4535 1661.1710 -3467.7943 -14050.6745 1661.1710 -3536.9563 -14331.7366 1525.6890 -3448.3737 -14055.4535 1661.1710 -3448.3737 -14055.4535 1661.1710 -3536.9563 -14331.7366 1525.6890 -3517.5357 -14336.5154 1525.6890 -3536.9563 -14331.7366 1525.6890 -3606.1173 -14612.7975 1383.5910 -3517.5357 -14336.5154 1525.6890 -3517.5357 -14336.5154 1525.6890 -3606.1173 -14612.7975 1383.5910 -3586.6967 -14617.5765 1383.5910 -3606.1173 -14612.7975 1383.5910 -3675.2793 -14893.8585 1234.8770 -3586.6967 -14617.5765 1383.5910 -3586.6967 -14617.5765 1383.5910 -3675.2793 -14893.8585 1234.8770 -3655.8587 -14898.6375 1234.8770 -3675.2793 -14893.8585 1234.8770 -3744.4413 -15174.9196 1079.5480 -3655.8587 -14898.6375 1234.8770 -3655.8587 -14898.6375 1234.8770 -3744.4413 -15174.9196 1079.5480 -3725.0207 -15179.6984 1079.5480 -3744.4413 -15174.9196 1079.5480 -3813.6023 -15455.9815 917.6020 -3725.0207 -15179.6984 1079.5480 -3725.0207 -15179.6984 1079.5480 -3813.6023 -15455.9815 917.6020 -3794.1817 -15460.7605 917.6020 -3813.6023 -15455.9815 917.6020 -3882.7643 -15737.0425 749.0410 -3794.1817 -15460.7605 917.6020 -3794.1817 -15460.7605 917.6020 -3882.7643 -15737.0425 749.0410 -3863.3437 -15741.8215 749.0410</float_array>
          <technique_common>
            <accessor source="#portal_arc_a999-mesh-positions-array" count="336" stride="3">
              <param name="X" type="float"/>
              <param name="Y" type="float"/>
              <param name="Z" type="float"/>
            </accessor>
          </technique_common>
        </source>
        <source id="portal_arc_a999-mesh-normals">
          <float_array id="portal_arc_a999-mesh-normals-array" count="1008">0.1337 0.5431 0.8289 0.1337 0.5431 0.8289 0.1337 0.5431 0.8289 0.1337 0.5431 0.8289 0.1337 0.5431 0.8289 0.1337 0.5431 0.8289 0.1305 0.5303 0.8377 0.1305 0.5303 0.8377 0.1305 0.5303 0.8377 0.1305 0.5303 0.8377 0.1305 0.5303 0.8377 0.1305 0.5303 0.8377 0.1272 0.5170 0.8464 0.1272 0.5170 0.8464 0.1272 0.5170 0.8464 0.1272 0.5170 0.8464 0.1272 0.5170 0.8464 0.1272 0.5170 0.8464 0.1239 0.5034 0.8551 0.1239 0.5034 0.8551 0.1239 0.5034 0.8551 0.1239 0.5034 0.8551 0.1239 0.5034 0.8551 0.1239 0.5034 0.8551 0.1204 0.4893 0.8638 0.1204 0.4893 0.8638 0.1204 0.4893 0.8638 0.1204 0.4893 0.8638 0.1204 0.4893 0.8638 0.1204 0.4893 0.8638 0.1168 0.4748 0.8723 0.1168 0.4748 0.8723 0.1168 0.4748 0.8723 0.1168 0.4748 0.8723 0.1168 0.4748 0.8723 0.1168 0.4748 0.8723 0.1132 0.4598 0.8808 0.1132 0.4598 0.8808 0.1132 0.4598 0.8808 0.1131 0.4598 0.8808 0.1131 0.4598 0.8808 0.1131 0.4598 0.8808 0.1094 0.4444 0.8891 0.1094 0.4444 0.8891 0.1094 0.4444 0.8891 0.1094 0.4444 0.8891 0.1094 0.4444 0.8891 0.1094 0.4444 0.8891 0.1055 0.4286 0.8973 0.1055 0.4286 0.8973 0.1055 0.4286 0.8973 0.1055 0.4286 0.8973 0.1055 0.4286 0.8973 0.1055 0.4286 0.8973 0.1015 0.4124 0.9053 0.1015 0.4124 0.9053 0.1015 0.4124 0.9053 0.1015 0.4124 0.9053 0.1015 0.4124 0.9053 0.1015 0.4124 0.9053 0.0974 0.3957 0.9132 0.0974 0.3957 0.9132 0.0974 0.3957 0.9132 0.0974 0.3957 0.9132 0.0974 0.3957 0.9132 0.0974 0.3957 0.9132 0.0932 0.3786 0.9209 0.0932 0.3786 0.9209 0.0932 0.3786 0.9209 0.0932 0.3786 0.9209 0.0932 0.3786 0.9209 0.0932 0.3786 0.9209 0.0888 0.3610 0.9283 0.0888 0.3610 0.9283 0.0888 0.3610 0.9283 0.0888 0.3610 0.9283 0.0888 0.3610 0.9283 0.0888 0.3610 0.9283 0.0844 0.3431 0.9355 0.0844 0.3431 0.9355 0.0844 0.3431 0.9355 0.0844 0.3431 0.9355 0.0844 0.3431 0.9355 0.0844 0.3431 0.9355 0.0799 0.3247 0.9424 0.0799 0.3247 0.9424 0.0799 0.3247 0.9424 0.0799 0.3247 0.9424 0.0799 0.3247 0.9424 0.0799 0.3247 0.9424 0.0753 0.3059 0.9491 0.0753 0.3059 0.9491 0.0753 0.3059 0.9491 0.0753 0.3059 0.9491 0.0753 0.3059 0.9491 0.0753 0.3059 0.9491 0.0706 0.2867 0.9554 0.0706 0.2867 0.9554 0.0706 0.2867 0.9554 0.0706 0.2867 0.9554 0.0706 0.2867 0.9554 0.0706 0.2867 0.9554 0.0657 0.2672 0.9614 0.0657 0.2672 0.9614 0.0657 0.2672 0.9614 0.0657 0.2672 0.9614 0.0657 0.2672 0.9614 0.0657 0.2672 0.9614 0.0609 0.2473 0.9670 0.0609 0.2473 0.9670 0.0609 0.2473 0.9670 0.0609 0.2473 0.9670 0.0609 0.2473 0.9670 0.0609 0.2473 0.9670 0.0559 0.2271 0.9723 0.0559 0.2271 0.9723 0.0559 0.2271 0.9723 0.0559 0.2271 0.9723 0.0559 0.2271 0.9723 0.0559 0.2271 0.9723 0.0508 0.2065 0.9771 0.0508 0.2065 0.9771 0.0508 0.2065 0.9771 0.0508 0.2065 0.9771 0.0508 0.2065 0.9771 0.0508 0.2065 0.9771 0.0457 0.1857 0.9816 0.0457 0.1857 0.9816 0.0457 0.1857 0.9816 0.0457 0.1857 0.9816 0.0457 0.1857 0.9816 0.0457 0.1857 0.9816 0.0405 0.1645 0.9855 0.0405 0.1645 0.9855 0.0405 0.1645 0.9855 0.0405 0.1645 0.9855 0.0405 0.1645 0.9855 0.0405 0.1645 0.9855 0.0352 0.1432 0.9891 0.0352 0.1432 0.9891 0.0352 0.1432 0.9891 0.0352 0.1432 0.9891 0.0352 0.1432 0.9891 0.0352 0.1432 0.9891 0.0299 0.1216 0.9921 0.0299 0.1216 0.9921 0.0299 0.1216 0.9921 0.0299 0.1216 0.9921 0.0299 0.1216 0.9921 0.0299 0.1216 0.9921 0.0246 0.0998 0.9947 0.0246 0.0998 0.9947 0.0246 0.0998 0.9947 0.0246 0.0998 0.9947 0.0246 0.0998 0.9947 0.0246 0.0998 0.9947 0.0192 0.0779 0.9968 0.0192 0.0779 0.9968 0.0192 0.0779 0.9968 0.0192 0.0779 0.9968 0.0192 0.0779 0.9968 0.0192 0.0779 0.9968 0.0137 0.0559 0.9983 0.0137 0.0559 0.9983 0.0137 0.0559 0.9983 0.0137 0.0559 0.9983 0.0137 0.0559 0.9983 0.0137 0.0559 0.9983 0.0083 0.0338 0.9994 0.0083 0.0338 0.9994 0.0083 0.0338 0.9994 0.0083 0.0338 0.9994 0.0083 0.0338 0.9994 0.0083 0.0338 0.9994 0.0028 0.0116 0.9999 0.0028 0.0116 0.9999 0.0028 0.0116 0.9999 0.0028 0.0116 0.9999 0.0028 0.0116 0.9999 0.0028 0.0116 0.9999 -0.0026 -0.0106 0.9999 -0.0026 -0.0106 0.9999 -0.0026 -0.0106 0.9999 -0.0026 -0.0106 0.9999 -0.0026 -0.0106 0.9999 -0.0026 -0.0106 0.9999 -0.0081 -0.0328 0.9994 -0.0081 -0.0328 0.9994 -0.0081 -0.0328 0.9994 -0.0081 -0.0328 0.9994 -0.0081 -0.0328 0.9994 -0.0081 -0.0328 0.9994 -0.0135 -0.0549 0.9984 -0.0135 -0.0549 0.9984 -0.0135 -0.0549 0.9984 -0.0135 -0.0549 0.9984 -0.0135 -0.0549 0.9984 -0.0135 -0.0549 0.9984 -0.0189 -0.0770 0.9969 -0.0189 -0.0770 0.9969 -0.0189 -0.0770 0.9969 -0.0189 -0.0770 0.9969 -0.0189 -0.0770 0.9969 -0.0189 -0.0770 0.9969 -0.0243 -0.0989 0.9948 -0.0243 -0.0989 0.9948 -0.0243 -0.0989 0.9948 -0.0243 -0.0989 0.9948 -0.0243 -0.0989 0.9948 -0.0243 -0.0989 0.9948 -0.0297 -0.1206 0.9923 -0.0297 -0.1206 0.9923 -0.0297 -0.1206 0.9923 -0.0297 -0.1206 0.9923 -0.0297 -0.1206 0.9923 -0.0297 -0.1206 0.9923 -0.0350 -0.1422 0.9892 -0.0350 -0.1422 0.9892 -0.0350 -0.1422 0.9892 -0.0350 -0.1422 0.9892 -0.0350 -0.1422 0.9892 -0.0350 -0.1422 0.9892 -0.0403 -0.1636 0.9857 -0.0403 -0.1636 0.9857 -0.0403 -0.1636 0.9857 -0.0403 -0.1636 0.9857 -0.0403 -0.1636 0.9857 -0.0403 -0.1636 0.9857 -0.0455 -0.1847 0.9817 -0.0455 -0.1847 0.9817 -0.0455 -0.1847 0.9817 -0.0455 -0.1847 0.9817 -0.0455 -0.1847 0.9817 -0.0455 -0.1847 0.9817 -0.0506 -0.2056 0.9773 -0.0506 -0.2056 0.9773 -0.0506 -0.2056 0.9773 -0.0506 -0.2056 0.9773 -0.0506 -0.2056 0.9773 -0.0506 -0.2056 0.9773 -0.0557 -0.2262 0.9725 -0.0557 -0.2262 0.9725 -0.0557 -0.2262 0.9725 -0.0557 -0.2262 0.9725 -0.0557 -0.2262 0.9725 -0.0557 -0.2262 0.9725 -0.0606 -0.2464 0.9673 -0.0606 -0.2464 0.9673 -0.0606 -0.2464 0.9673 -0.0606 -0.2464 0.9673 -0.0606 -0.2464 0.9673 -0.0606 -0.2464 0.9673 -0.0655 -0.2663 0.9616 -0.0655 -0.2663 0.9616 -0.0655 -0.2663 0.9616 -0.0655 -0.2663 0.9616 -0.0655 -0.2663 0.9616 -0.0655 -0.2663 0.9616 -0.0703 -0.2859 0.9557 -0.0703 -0.2859 0.9557 -0.0703 -0.2859 0.9557 -0.0703 -0.2859 0.9557 -0.0703 -0.2859 0.9557 -0.0703 -0.2859 0.9557 -0.0751 -0.3051 0.9494 -0.0751 -0.3051 0.9494 -0.0751 -0.3051 0.9494 -0.0751 -0.3051 0.9494 -0.0751 -0.3051 0.9494 -0.0751 -0.3051 0.9494 -0.0797 -0.3239 0.9427 -0.0797 -0.3239 0.9427 -0.0797 -0.3239 0.9427 -0.0797 -0.3239 0.9427 -0.0797 -0.3239 0.9427 -0.0797 -0.3239 0.9427 -0.0842 -0.3423 0.9358 -0.0842 -0.3423 0.9358 -0.0842 -0.3423 0.9358 -0.0842 -0.3423 0.9358 -0.0842 -0.3423 0.9358 -0.0842 -0.3423 0.9358 -0.0886 -0.3602 0.9286 -0.0886 -0.3602 0.9286 -0.0886 -0.3602 0.9286 -0.0886 -0.3602 0.9286 -0.0886 -0.3602 0.9286 -0.0886 -0.3602 0.9286 -0.0930 -0.3778 0.9212 -0.0930 -0.3778 0.9212 -0.0930 -0.3778 0.9212 -0.0930 -0.3778 0.9212 -0.0930 -0.3778 0.9212 -0.0930 -0.3778 0.9212 -0.0972 -0.3949 0.9135 -0.0972 -0.3949 0.9135 -0.0972 -0.3949 0.9135 -0.0972 -0.3949 0.9135 -0.0972 -0.3949 0.9135 -0.0972 -0.3949 0.9135 -0.1013 -0.4117 0.9057 -0.1013 -0.4117 0.9057 -0.1013 -0.4117 0.9057 -0.1013 -0.4117 0.9057 -0.1013 -0.4117 0.9057 -0.1013 -0.4117 0.9057 -0.1053 -0.4279 0.8977 -0.1053 -0.4279 0.8977 -0.1053 -0.4279 0.8977 -0.1053 -0.4279 0.8977 -0.1053 -0.4279 0.8977 -0.1053 -0.4279 0.8977 -0.1092 -0.4438 0.8895 -0.1092 -0.4438 0.8895 -0.1092 -0.4438 0.8895 -0.1092 -0.4438 0.8895 -0.1092 -0.4438 0.8895 -0.1092 -0.4438 0.8895 -0.1130 -0.4592 0.8811 -0.1130 -0.4592 0.8811 -0.1130 -0.4592 0.8811 -0.1130 -0.4592 0.8811 -0.1130 -0.4592 0.8811 -0.1130 -0.4592 0.8811 -0.1167 -0.4741 0.8727 -0.1167 -0.4741 0.8727 -0.1167 -0.4741 0.8727 -0.1167 -0.4741 0.8727 -0.1167 -0.4741 0.8727 -0.1167 -0.4741 0.8727 -0.1202 -0.4887 0.8641 -0.1202 -0.4887 0.8641 -0.1202 -0.4887 0.8641 -0.1202 -0.4887 0.8641 -0.1202 -0.4887 0.8641 -0.1202 -0.4887 0.8641</float_array>
          <technique_common>
            <accessor source="#portal_arc_a999-mesh-normals-array" count="336" stride="3">
              <param name="X" type="float"/>
              <param name="Y" type="float"/>
              <param name="Z" type="float"/>
            </accessor>
          </technique_common>
        </source>
        <source id="portal_arc_a999-mesh-map-0">
          <float_array id="portal_arc_a999-mesh-map-0-array" count="672">0 0 0 0 0 0 0 0 0 0 0 0 0 0 0 0 0 0 0 0 0 0 0 0 0 0 0 0 0 0 0 0 0 0 0 0 0 0 0 0 0 0 0 0 0 0 0 0 0 0 0 0 0 0 0 0 0 0 0 0 0 0 0 0 0 0 0 0 0 0 0 0 0 0 0 0 0 0 0 0 0 0 0 0 0 0 0 0 0 0 0 0 0 0 0 0 0 0 0 0 0 0 0 0 0 0 0 0 0 0 0 0 0 0 0 0 0 0 0 0 0 0 0 0 0 0 0 0 0 0 0 0 0 0 0 0 0 0 0 0 0 0 0 0 0 0 0 0 0 0 0 0 0 0 0 0 0 0 0 0 0 0 0 0 0 0 0 0 0 0 0 0 0 0 0 0 0 0 0 0 0 0 0 0 0 0 0 0 0 0 0 0 0 0 0 0 0 0 0 0 0 0 0 0 0 0 0 0 0 0 0 0 0 0 0 0 0 0 0 0 0 0 0 0 0 0 0 0 0 0 0 0 0 0 0 0 0 0 0 0 0 0 0 0 0 0 0 0 0 0 0 0 0 0 0 0 0 0 0 0 0 0 0 0 0 0 0 0 0 0 0 0 0 0 0 0 0 0 0 0 0 0 0 0 0 0 0 0 0 0 0 0 0 0 0 0 0 0 0 0 0 0 0 0 0 0 0 0 0 0 0 0 0 0 0 0 0 0 0 0 0 0 0 0 0 0 0 0 0 0 0 0 0 0 0 0 0 0 0 0 0 0 0 0 0 0 0 0 0 0 0 0 0 0 0 0 0 0 0 0 0 0 0 0 0 0 0 0 0 0 0 0 0 0 0 0 0 0 0 0 0 0 0 0 0 0 0 0 0 0 0 0 0 0 0 0 0 0 0 0 0 0 0 0 0 0 0 0 0 0 0 0 0 0 0 0 0 0 0 0 0 0 0 0 0 0 0 0 0 0 0 0 0 0 0 0 0 0 0 0 0 0 0 0 0 0 0 0 0 0 0 0 0 0 0 0 0 0 0 0 0 0 0 0 0 0 0 0 0 0 0 0 0 0 0 0 0 0 0 0 0 0 0 0 0 0 0 0 0 0 0 0 0 0 0 0 0 0 0 0 0 0 0 0 0 0 0 0 0 0 0 0 0 0 0 0 0 0 0 0 0 0 0 0 0 0 0 0 0 0 0 0 0 0 0 0 0 0 0 0 0 0 0 0 0 0 0 0 0 0 0 0 0 0 0 0 0 0 0 0 0 0 0 0 0 0 0 0 0 0 0 0 0 0 0 0 0 0 0 0 0 0 0 0 0 0 0 0 0 0 0 0 0 0 0 0 0 0 0 0 0 0 0 0 0 0 0 0 0 0 0 0 0 0 0 0 0 0 0 0 0 0 0 0 0 0 0 0 0 0 0 0 0 0 0 0 0 0 0 0 0 0 0 0 0 0 0 0 0 0 0 0 0 0 0 0 0 0 0 0 0 0 0 0 0 0 0 0 0 0 0 0</float_array>
          <technique_common>
            <accessor source="#portal_arc_a999-mesh-map-0-array" count="336" stride="2">
              <param name="S" type="float"/>
              <param name="T" type="float"/>
            </accessor>
          </technique_common>
        </source>
        <vertices id="portal_arc_a999-mesh-vertices">
          <input semantic="POSITION" source="#portal_arc_a999-mesh-positions"/>
        </vertices>
        <triangles material="portal_arc" count="112">
          <input semantic="VERTEX" source="#portal_arc_a999-mesh-vertices" offset="0"/>
          <input semantic="NORMAL" source="#portal_arc_a999-mesh-normals" offset="0"/>
          <input semantic="TEXCOORD" source="#portal_arc_a999-mesh-map-0" offset="0" set="0"/>
          <p>0 1 2 3 4 5 6 7 8 9 10 11 12 13 14 15 16 17 18 19 20 21 22 23 24 25 26 27 28 29 30 31 32 33 34 35 36 37 38 39 40 41 42 43 44 45 46 47 48 49 50 51 52 53 54 55 56 57 58 59 60 61 62 63 64 65 66 67 68 69 70 71 72 73 74 75 76 77 78 79 80 81 82 83 84 85 86 87 88 89 90 91 92 93 94 95 96 97 98 99 100 101 102 103 104 105 106 107 108 109 110 111 112 113 114 115 116 117 118 119 120 121 122 123 124 125 126 127 128 129 130 131 132 133 134 135 136 137 138 139 140 141 142 143 144 145 146 147 148 149 150 151 152 153 154 155 156 157 158 159 160 161 162 163 164 165 166 167 168 169 170 171 172 173 174 175 176 177 178 179 180 181 182 183 184 185 186 187 188 189 190 191 192 193 194 195 196 197 198 199 200 201 202 203 204 205 206 207 208 209 210 211 212 213 214 215 216 217 218 219 220 221 222 223 224 225 226 227 228 229 230 231 232 233 234 235 236 237 238 239 240 241 242 243 244 245 246 247 248 249 250 251 252 253 254 255 256 257 258 259 260 261 262 263 264 265 266 267 268 269 270 271 272 273 274 275 276 277 278 279 280 281 282 283 284 285 286 287 288 289 290 291 292 293 294 295 296 297 298 299 300 301 302 303 304 305 306 307 308 309 310 311 312 313 314 315 316 317 318 319 320 321 322 323 324 325 326 327 328 329 330 331 332 333 334 335</p>
        </triangles>
      </mesh>
    </geometry>
  </library_geometries>
  <library_visual_scenes>
    <visual_scene id="Scene" name="Scene">
      <node id="base00" name="base00" type="NODE">
        <node id="start01" name="start01" type="NODE">
          <node id="portal_arc_a999" name="portal_arc_a999" type="NODE">
            <instance_geometry url="#portal_arc_a999-mesh">
              <bind_material>
                <technique_common>
                  <instance_material symbol="portal_arc" target="#portal_arc-material">
                    <bind_vertex_input semantic="UVSET0" input_semantic="TEXCOORD" input_set="0"/>
                  </instance_material>
                </technique_common>
              </bind_material>
            </instance_geometry>
          </node>
        </node>
      </node>
    </visual_scene>
  </library_visual_scenes>
  <scene>
    <instance_visual_scene url="#Scene"/>
  </scene>
</COLLADA>
