<?xml version="1.0" encoding="utf-8"?>
<COLLADA xmlns="http://www.collada.org/2005/11/COLLADASchema" version="1.4.1">
  <asset>
    <contributor><authoring_tool>beamng_autoroad build_portals</authoring_tool></contributor>
    <unit name="meter" meter="1"/>
    <up_axis>Z_UP</up_axis>
  </asset>
  <library_effects>
    <effect id="portal_red-effect">
      <profile_COMMON>
        <technique sid="common">
          <lambert>
            <diffuse><color>1.0 0.22 0.16 0.16</color></diffuse>
            <transparent opaque="A_ONE"><color>1 1 1 1</color></transparent>
            <transparency><float>0.84</float></transparency>
          </lambert>
        </technique>
      </profile_COMMON>
    </effect>
  </library_effects>
  <library_materials>
    <material id="portal_red-material" name="portal_red">
      <instance_effect url="#portal_red-effect"/>
    </material>
  </library_materials>
  <library_geometries>
    <geometry id="portal_cube_a999-mesh" name="portal_cube_a999-mesh">
      <mesh>
        <source id="portal_cube_a999-mesh-positions">
          <float_array id="portal_cube_a999-mesh-positions-array" count="108">-0.5000 -0.5000 -0.5000 0.5000 0.5000 -0.5000 0.5000 -0.5000 -0.5000 -0.5000 -0.5000 -0.5000 -0.5000 0.5000 -0.5000 0.5000 0.5000 -0.5000 -0.5000 -0.5000 0.5000 0.5000 -0.5000 0.5000 0.5000 0.5000 0.5000 -0.5000 -0.5000 0.5000 0.5000 0.5000 0.5000 -0.5000 0.5000 0.5000 -0.5000 -0.5000 -0.5000 0.5000 -0.5000 -0.5000 0.5000 -0.5000 0.5000 -0.5000 -0.5000 -0.5000 0.5000 -0.5000 0.5000 -0.5000 -0.5000 0.5000 0.5000 -0.5000 -0.5000 0.5000 0.5000 -0.5000 0.5000 0.5000 0.5000 0.5000 -0.5000 -0.5000 0.5000 0.5000 0.5000 0.5000 -0.5000 0.5000 0.5000 0.5000 -0.5000 -0.5000 0.5000 -0.5000 -0.5000 0.5000 0.5000 0.5000 0.5000 -0.5000 -0.5000 0.5000 0.5000 0.5000 0.5000 0.5000 -0.5000 0.5000 -0.5000 -0.5000 -0.5000 -0.5000 -0.5000 -0.5000 0.5000 -0.5000 0.5000 -0.5000 -0.5000 -0.5000 0.5000 -0.5000 0.5000 0.5000</float_array>
          <technique_common>
            <accessor source="#portal_cube_a999-mesh-positions-array" count="36" stride="3">
              <param name="X" type="float"/>
              <param name="Y" type="float"/>
              <param name="Z" type="float"/>
            </accessor>
          </technique_common>
        </source>
        <source id="portal_cube_a999-mesh-normals">
          <float_array id="portal_cube_a999-mesh-normals-array" count="108">0.0000 0.0000 -1.0000 0.0000 0.0000 -1.0000 0.0000 0.0000 -1.0000 0.0000 0.0000 -1.0000 0.0000 0.0000 -1.0000 0.0000 0.0000 -1.0000 0.0000 0.0000 1.0000 0.0000 0.0000 1.0000 0.0000 0.0000 1.0000 0.0000 0.0000 1.0000 0.0000 0.0000 1.0000 0.0000 0.0000 1.0000 0.0000 -1.0000 0.0000 0.0000 -1.0000 0.0000 0.0000 -1.0000 0.0000 0.0000 -1.0000 0.0000 0.0000 -1.0000 0.0000 0.0000 -1.0000 0.0000 1.0000 0.0000 0.0000 1.0000 0.0000 0.0000 1.0000 0.0000 0.0000 1.0000 0.0000 0.0000 1.0000 0.0000 0.0000 1.0000 0.0000 0.0000 0.0000 1.0000 0.0000 0.0000 1.0000 0.0000 0.0000 1.0000 0.0000 0.0000 1.0000 -0.0000 0.0000 1.0000 -0.0000 0.0000 1.0000 -0.0000 -1.0000 0.0000 0.0000 -1.0000 0.0000 0.0000 -1.0000 0.0000 0.0000 -1.0000 0.0000 0.0000 -1.0000 0.0000 0.0000 -1.0000 0.0000 0.0000</float_array>
          <technique_common>
            <accessor source="#portal_cube_a999-mesh-normals-array" count="36" stride="3">
              <param name="X" type="float"/>
              <param name="Y" type="float"/>
              <param name="Z" type="float"/>
            </accessor>
          </technique_common>
        </source>
        <source id="portal_cube_a999-mesh-map-0">
          <float_array id="portal_cube_a999-mesh-map-0-array" count="72">0 0 0 0 0 0 0 0 0 0 0 0 0 0 0 0 0 0 0 0 0 0 0 0 0 0 0 0 0 0 0 0 0 0 0 0 0 0 0 0 0 0 0 0 0 0 0 0 0 0 0 0 0 0 0 0 0 0 0 0 0 0 0 0 0 0 0 0 0 0 0 0</float_array>
          <technique_common>
            <accessor source="#portal_cube_a999-mesh-map-0-array" count="36" stride="2">
              <param name="S" type="float"/>
              <param name="T" type="float"/>
            </accessor>
          </technique_common>
        </source>
        <vertices id="portal_cube_a999-mesh-vertices">
          <input semantic="POSITION" source="#portal_cube_a999-mesh-positions"/>
        </vertices>
        <triangles material="portal_red" count="12">
          <input semantic="VERTEX" source="#portal_cube_a999-mesh-vertices" offset="0"/>
          <input semantic="NORMAL" source="#portal_cube_a999-mesh-normals" offset="0"/>
          <input semantic="TEXCOORD" source="#portal_cube_a999-mesh-map-0" offset="0" set="0"/>
          <p>0 1 2 3 4 5 6 7 8 9 10 11 12 13 14 15 16 17 18 19 20 21 22 23 24 25 26 27 28 29 30 31 32 33 34 35</p>
        </triangles>
      </mesh>
    </geometry>
  </library_geometries>
  <library_visual_scenes>
    <visual_scene id="Scene" name="Scene">
      <node id="base00" name="base00" type="NODE">
        <node id="start01" name="start01" type="NODE">
          <node id="portal_cube_a999" name="portal_cube_a999" type="NODE">
            <instance_geometry url="#portal_cube_a999-mesh">
              <bind_material>
                <technique_common>
                  <instance_material symbol="portal_red" target="#portal_red-material">
                    <bind_vertex_input semantic="UVSET0" input_semantic="TEXCOORD" input_set="0"/>
                  </instance_material>
                </technique_common>
              </bind_material>
            </instance_geometry>
          </node>
        </node>
      </node>
    </visual_scene>
  </library_visual_scenes>
  <scene>
    <instance_visual_scene url="#Scene"/>
  </scene>
</COLLADA>
