<?xml version="1.0" encoding="utf-8"?>
<COLLADA xmlns="http://www.collada.org/2005/11/COLLADASchema" version="1.4.1">
  <asset>
    <contributor><authoring_tool>beamng_autoroad build_portals</authoring_tool></contributor>
    <unit name="meter" meter="1"/>
    <up_axis>Z_UP</up_axis>
  </asset>
  <library_effects>
    <effect id="portal_arc-effect">
      <profile_COMMON>
        <technique sid="common">
          <lambert>
            <diffuse><color>1.0 0.4 0.28 0.18</color></diffuse>
            <transparent opaque="A_ONE"><color>1 1 1 1</color></transparent>
            <transparency><float>0.82</float></transparency>
          </lambert>
        </technique>
      </profile_COMMON>
    </effect>
  </library_effects>
  <library_materials>
    <material id="portal_arc-material" name="portal_arc">
      <instance_effect url="#portal_arc-effect"/>
    </material>
  </library_materials>
  <library_geometries>
    <geometry id="portal_arc_a999-mesh" name="portal_arc_a999-mesh">
      <mesh>
        <source id="portal_arc_a999-mesh-positions">
          <float_array id="portal_arc_a999-mesh-positions-array" count="1008">9.3096 -3.6513 0.0000 131.0506 306.7477 213.8900 -9.3096 3.6513 0.0000 -9.3096 3.6513 0.0000 131.0506 306.7477 213.8900 112.4314 314.0503 213.8900 131.0506 306.7477 213.8900 252.7926 617.1467 420.1600 112.4314 314.0503 213.8900 112.4314 314.0503 213.8900 252.7926 617.1467 420.1600 234.1734 624.4493 420.1600 252.7926 617.1467 420.1600 374.5336 927.5467 618.8080 234.1734 624.4493 420.1600 234.1734 624.4493 420.1600 374.5336 927.5467 618.8080 355.9144 934.8493 618.8080 374.5336 927.5467 618.8080 496.2746 1237.9457 809.8350 355.9144 934.8493 618.8080 355.9144 934.8493 618.8080 496.2746 1237.9457 809.8350 477.6554 1245.2483 809.8350 496.2746 1237.9457 809.8350 618.0166 1548.3447 993.2410 477.6554 1245.2483 809.8350 477.6554 1245.2483 809.8350 618.0166 1548.3447 993.2410 599.3974 1555.6473 993.2410 618.0166 1548.3447 993.2410 739.7576 1858.7437 1169.0260 599.3974 1555.6473 993.2410 599.3974 1555.6473 993.2410 739.7576 1858.7437 1169.0260 721.1384 1866.0463 1169.0260 739.7576 1858.7437 1169.0260 861.4986 2169.1427 1337.1910 721.1384 1866.0463 1169.0260 721.1384 1866.0463 1169.0260 861.4986 2169.1427 1337.1910 842.8794 2176.4453 1337.1910 861.4986 2169.1427 1337.1910 983.2406 2479.5417 1497.7340 842.8794 2176.4453 1337.1910 842.8794 2176.4453 1337.1910 983.2406 2479.5417 1497.7340 964.6214 2486.8443 1497.7340 983.2406 2479.5417 1497.7340 1104.9816 2789.9417 1650.6560 964.6214 2486.8443 1497.7340 964.6214 2486.8443 1497.7340 1104.9816 2789.9417 1650.6560 1086.3624 2797.2443 1650.6560 1104.9816 2789.9417 1650.6560 1226.7226 3100.3407 1795.9570 1086.3624 2797.2443 1650.6560 1086.3624 2797.2443 1650.6560 1226.7226 3100.3407 1795.9570 1208.1034 3107.6433 1795.9570 1226.7226 3100.3407 1795.9570 1348.4646 3410.7397 1933.6370 1208.1034 3107.6433 1795.9570 1208.1034 3107.6433 1795.9570 1348.4646 3410.7397 1933.6370 1329.8454 3418.0423 1933.6370 1348.4646 3410.7397 1933.6370 1470.2056 3721.1387 2063.6960 1329.8454 3418.0423 1933.6370 1329.8454 3418.0423 1933.6370 1470.2056 3721.1387 2063.6960 1451.5864 3728.4413 2063.6960 1470.2056 3721.1387 2063.6960 1591.9466 4031.5377 2186.1340 1451.5864 3728.4413 2063.6960 1451.5864 3728.4413 2063.6960 1591.9466 4031.5377 2186.1340 1573.3274 4038.8403 2186.1340 1591.9466 4031.5377 2186.1340 1713.6886 4341.9367 2300.9510 1573.3274 4038.8403 2186.1340 1573.3274 4038.8403 2186.1340 1713.6886 4341.9367 2300.9510 1695.0694 4349.2393 2300.9510 1713.6886 4341.9367 2300.9510 1835.4296 4652.3367 2408.1470 1695.0694 4349.2393 2300.9510 1695.0694 4349.2393 2300.9510 1835.4296 4652.3367 2408.1470 1816.8104 4659.6393 2408.1470 1835.4296 4652.3367 2408.1470 1957.1706 4962.7357 2507.7220 1816.8104 4659.6393 2408.1470 1816.8104 4659.6393 2408.1470 1957.1706 4962.7357 2507.7220 1938.5514 4970.0383 2507.7220 1957.1706 4962.7357 2507.7220 2078.9116 5273.1347 2599.6760 1938.5514 4970.0383 2507.7220 1938.5514 4970.0383 2507.7220 2078.9116 5273.1347 2599.6760 2060.2924 5280.4373 2599.6760 2078.9116 5273.1347 2599.6760 2200.6536 5583.5337 2684.0090 2060.2924 5280.4373 2599.6760 2060.2924 5280.4373 2599.6760 2200.6536 5583.5337 2684.0090 2182.0344 5590.8363 2684.0090 2200.6536 5583.5337 2684.0090 2322.3946 5893.9327 2760.7210 2182.0344 5590.8363 2684.0090 2182.0344 5590.8363 2684.0090 2322.3946 5893.9327 2760.7210 2303.7754 5901.2353 2760.7210 2322.3946 5893.9327 2760.7210 2444.1356 6204.3327 2829.8120 2303.7754 5901.2353 2760.7210 2303.7754 5901.2353 2760.7210 2444.1356 6204.3327 2829.8120 2425.5164 6211.6353 2829.8120 2444.1356 6204.3327 2829.8120 2565.8776 6514.7317 2891.2820 2425.5164 6211.6353 2829.8120 2425.5164 6211.6353 2829.8120 2565.8776 6514.7317 2891.2820 2547.2584 6522.0343 2891.2820 2565.8776 6514.7317 2891.2820 2687.6186 6825.1307 2945.1310 2547.2584 6522.0343 2891.2820 2547.2584 6522.0343 2891.2820 2687.6186 6825.1307 2945.1310 2668.9994 6832.4333 2945.1310 2687.6186 6825.1307 2945.1310 2809.3596 7135.5297 2991.3590 2668.9994 6832.4333 2945.1310 2668.9994 6832.4333 2945.1310 2809.3596 7135.5297 2991.3590 2790.7404 7142.8323 2991.3590 2809.3596 7135.5297 2991.3590 2931.1016 7445.9287 3029.9650 2790.7404 7142.8323 2991.3590 2790.7404 7142.8323 2991.3590 2931.1016 7445.9287 3029.9650 2912.4824 7453.2313 3029.9650 2931.1016 7445.9287 3029.9650 3052.8426 7756.3277 3060.9510 2912.4824 7453.2313 3029.9650 2912.4824 7453.2313 3029.9650 3052.8426 7756.3277 3060.9510 3034.2234 7763.6303 3060.9510 3052.8426 7756.3277 3060.9510 3174.5836 8066.7277 3084.3160 3034.2234 7763.6303 3060.9510 3034.2234 7763.6303 3060.9510 3174.5836 8066.7277 3084.3160 3155.9644 8074.0303 3084.3160 3174.5836 8066.7277 3084.3160 3296.3256 8377.1267 3100.0600 3155.9644 8074.0303 3084.3160 3155.9644 8074.0303 3084.3160 3296.3256 8377.1267 3100.0600 3277.7064 8384.4293 3100.0600 3296.3256 8377.1267 3100.0600 3418.0666 8687.5257 3108.1830 3277.7064 8384.4293 3100.0600 3277.7064 8384.4293 3100.0600 3418.0666 8687.5257 3108.1830 3399.4474 8694.8283 3108.1830 3418.0666 8687.5257 3108.1830 3539.8076 8997.9247 3108.6840 3399.4474 8694.8283 3108.1830 3399.4474 8694.8283 3108.1830 3539.8076 8997.9247 3108.6840 3521.1884 9005.2273 3108.6840 3539.8076 8997.9247 3108.6840 3661.5496 9308.3237 3101.5650 3521.1884 9005.2273 3108.6840 3521.1884 9005.2273 3108.6840 3661.5496 9308.3237 3101.5650 3642.9304 9315.6263 3101.5650 3661.5496 9308.3237 3101.5650 3783.2906 9618.7237 3086.8250 3642.9304 9315.6263 3101.5650 3642.9304 9315.6263 3101.5650 3783.2906 9618.7237 3086.8250 3764.6714 9626.0263 3086.8250 3783.2906 9618.7237 3086.8250 3905.0316 9929.1227 3064.4640 3764.6714 9626.0263 3086.8250 3764.6714 9626.0263 3086.8250 3905.0316 9929.1227 3064.4640 3886.4124 9936.4253 3064.4640 3905.0316 9929.1227 3064.4640 4026.7736 10239.5217 3034.4810 3886.4124 9936.4253 3064.4640 3886.4124 9936.4253 3064.4640 4026.7736 10239.5217 3034.4810 4008.1544 10246.8243 3034.4810 4026.7736 10239.5217 3034.4810 4148.5146 10549.9207 2996.8780 4008.1544 10246.8243 3034.4810 4008.1544 10246.8243 3034.4810 4148.5146 10549.9207 2996.8780 4129.8954 10557.2233 2996.8780 4148.5146 10549.9207 2996.8780 4270.2556 10860.3197 2951.6540 4129.8954 10557.2233 2996.8780 4129.8954 10557.2233 2996.8780 4270.2556 10860.3197 2951.6540 4251.6364 10867.6223 2951.6540 4270.2556 10860.3197 2951.6540 4391.9976 11170.7187 2898.8080 4251.6364 10867.6223 2951.6540 4251.6364 10867.6223 2951.6540 4391.9976 11170.7187 2898.8080 4373.3784 11178.0213 2898.8080 4391.9976 11170.7187 2898.8080 4513.7386 11481.1187 2838.3420 4373.3784 11178.0213 2898.8080 4373.3784 11178.0213 2898.8080 4513.7386 11481.1187 2838.3420 4495.1194 11488.4213 2838.3420 4513.7386 11481.1187 2838.3420 4635.4796 11791.5177 2770.2540 4495.1194 11488.4213 2838.3420 4495.1194 11488.4213 2838.3420 4635.4796 11791.5177 2770.2540 4616.8604 11798.8203 2770.2540 4635.4796 11791.5177 2770.2540 4757.2216 12101.9167 2694.5460 4616.8604 11798.8203 2770.2540 4616.8604 11798.8203 2770.2540 4757.2216 12101.9167 2694.5460 4738.6024 12109.2193 2694.5460 4757.2216 12101.9167 2694.5460 4878.9626 12412.3157 2611.2160 4738.6024 12109.2193 2694.5460 4738.6024 12109.2193 2694.5460 4878.9626 12412.3157 2611.2160 4860.3434 12419.6183 2611.2160 4878.9626 12412.3157 2611.2160 5000.7036 12722.7147 2520.2660 4860.3434 12419.6183 2611.2160 4860.3434 12419.6183 2611.2160 5000.7036 12722.7147 2520.2660 4982.0844 12730.0173 2520.2660 5000.7036 12722.7147 2520.2660 5122.4456 13033.1137 2421.6950 4982.0844 12730.0173 2520.2660 4982.0844 12730.0173 2520.2660 5122.4456 13033.1137 2421.6950 5103.8264 13040.4163 2421.6950 5122.4456 13033.1137 2421.6950 5244.1866 13343.5137 2315.5020 5103.8264 13040.4163 2421.6950 5103.8264 13040.4163 2421.6950 5244.1866 13343.5137 2315.5020 5225.5674 13350.8163 2315.5020 5244.1866 13343.5137 2315.5020 5365.9276 13653.9127 2201.6880 5225.5674 13350.8163 2315.5020 5225.5674 13350.8163 2315.5020 5365.9276 13653.9127 2201.6880 5347.3084 13661.2153 2201.6880 5365.9276 13653.9127 2201.6880 5487.6686 13964.3117 2080.2540 5347.3084 13661.2153 2201.6880 5347.3084 13661.2153 2201.6880 5487.6686 13964.3117 2080.2540 5469.0494 13971.6143 2080.2540 5487.6686 13964.3117 2080.2540 5609.4106 14274.7107 1951.1980 5469.0494 13971.6143 2080.2540 5469.0494 13971.6143 2080.2540 5609.4106 14274.7107 1951.1980 5590.7914 14282.0133 1951.1980 5609.4106 14274.7107 1951.1980 5731.1516 14585.1097 1814.5220 5590.7914 14282.0133 1951.1980 5590.7914 14282.0133 1951.1980 5731.1516 14585.1097 1814.5220 5712.5324 14592.4123 1814.5220 5731.1516 14585.1097 1814.5220 5852.8926 14895.5097 1670.2240 5712.5324 14592.4123 1814.5220 5712.5324 14592.4123 1814.5220 5852.8926 14895.5097 1670.2240 5834.2734 14902.8123 1670.2240 5852.8926 14895.5097 1670.2240 5974.6346 15205.9087 1518.3060 5834.2734 14902.8123 1670.2240 5834.2734 14902.8123 1670.2240 5974.6346 15205.9087 1518.3060 5956.0154 15213.2113 1518.3060 5974.6346 15205.9087 1518.3060 6096.3756 15516.3077 1358.7660 5956.0154 15213.2113 1518.3060 5956.0154 15213.2113 1518.3060 6096.3756 15516.3077 1358.7660 6077.7564 15523.6103 1358.7660 6096.3756 15516.3077 1358.7660 6218.1166 15826.7067 1191.6050 6077.7564 15523.6103 1358.7660 6077.7564 15523.6103 1358.7660 6218.1166 15826.7067 1191.6050 6199.4974 15834.0093 1191.6050 6218.1166 15826.7067 1191.6050 6339.8586 16137.1057 1016.8240 6199.4974 15834.0093 1191.6050 6199.4974 15834.0093 1191.6050 6339.8586 16137.1057 1016.8240 6321.2394 16144.4083 1016.8240 6339.8586 16137.1057 1016.8240 6461.5996 16447.5047 834.4210 6321.2394 16144.4083 1016.8240 6321.2394 16144.4083 1016.8240 6461.5996 16447.5047 834.4210 6442.9804 16454.8073 834.4210 6461.5996 16447.5047 834.4210 6583.3406 16757.9047 644.3970 6442.9804 16454.8073 834.4210 6442.9804 16454.8073 834.4210 6583.3406 16757.9047 644.3970 6564.7214 16765.2073 644.3970 6583.3406 16757.9047 644.3970 6705.0826 17068.3037 446.7530 6564.7214 16765.2073 644.3970 6564.7214 16765.2073 644.3970 6705.0826 17068.3037 446.7530 6686.4634 17075.6063 446.7530 6705.0826 17068.3037 446.7530 6826.8236 17378.7027 241.4870 6686.4634 17075.6063 446.7530 6686.4634 17075.6063 446.7530 6826.8236 17378.7027 241.4870 6808.2044 17386.0053 241.4870</float_array>
          <technique_common>
            <accessor source="#portal_arc_a999-mesh-positions-array" count="336" stride="3">
              <param name="X" type="float"/>
              <param name="Y" type="float"/>
              <param name="Z" type="float"/>
            </accessor>
          </technique_common>
        </source>
        <source id="portal_arc_a999-mesh-normals">
          <float_array id="portal_arc_a999-mesh-normals-array" count="1008">-0.1972 -0.5027 0.8417 -0.1972 -0.5027 0.8417 -0.1972 -0.5027 0.8417 -0.1972 -0.5027 0.8417 -0.1972 -0.5027 0.8417 -0.1972 -0.5027 0.8417 -0.1921 -0.4898 0.8504 -0.1921 -0.4898 0.8504 -0.1921 -0.4898 0.8504 -0.1921 -0.4898 0.8504 -0.1921 -0.4898 0.8504 -0.1921 -0.4898 0.8504 -0.1869 -0.4765 0.8591 -0.1869 -0.4765 0.8591 -0.1869 -0.4765 0.8591 -0.1869 -0.4765 0.8591 -0.1869 -0.4765 0.8591 -0.1869 -0.4765 0.8591 -0.1815 -0.4628 0.8677 -0.1815 -0.4628 0.8677 -0.1815 -0.4628 0.8677 -0.1815 -0.4628 0.8677 -0.1815 -0.4628 0.8677 -0.1815 -0.4628 0.8677 -0.1760 -0.4487 0.8762 -0.1760 -0.4487 0.8762 -0.1760 -0.4487 0.8762 -0.1760 -0.4487 0.8762 -0.1760 -0.4487 0.8762 -0.1760 -0.4487 0.8762 -0.1703 -0.4342 0.8846 -0.1703 -0.4342 0.8846 -0.1703 -0.4342 0.8846 -0.1703 -0.4342 0.8846 -0.1703 -0.4342 0.8846 -0.1703 -0.4342 0.8846 -0.1644 -0.4192 0.8929 -0.1644 -0.4192 0.8929 -0.1644 -0.4192 0.8929 -0.1644 -0.4192 0.8929 -0.1644 -0.4192 0.8929 -0.1644 -0.4192 0.8929 -0.1584 -0.4039 0.9010 -0.1584 -0.4039 0.9010 -0.1584 -0.4039 0.9010 -0.1584 -0.4039 0.9010 -0.1584 -0.4039 0.9010 -0.1584 -0.4039 0.9010 -0.1522 -0.3881 0.9090 -0.1522 -0.3881 0.9090 -0.1522 -0.3881 0.9090 -0.1522 -0.3881 0.9090 -0.1522 -0.3881 0.9090 -0.1522 -0.3881 0.9090 -0.1459 -0.3719 0.9167 -0.1459 -0.3719 0.9167 -0.1459 -0.3719 0.9167 -0.1459 -0.3719 0.9167 -0.1459 -0.3719 0.9167 -0.1459 -0.3719 0.9167 -0.1394 -0.3553 0.9243 -0.1394 -0.3553 0.9243 -0.1394 -0.3553 0.9243 -0.1394 -0.3553 0.9243 -0.1394 -0.3553 0.9243 -0.1394 -0.3553 0.9243 -0.1327 -0.3383 0.9316 -0.1327 -0.3383 0.9316 -0.1327 -0.3383 0.9316 -0.1327 -0.3383 0.9316 -0.1327 -0.3383 0.9316 -0.1327 -0.3383 0.9316 -0.1259 -0.3209 0.9387 -0.1259 -0.3209 0.9387 -0.1259 -0.3209 0.9387 -0.1259 -0.3209 0.9387 -0.1259 -0.3209 0.9387 -0.1259 -0.3209 0.9387 -0.1189 -0.3031 0.9455 -0.1189 -0.3031 0.9455 -0.1189 -0.3031 0.9455 -0.1189 -0.3031 0.9455 -0.1189 -0.3031 0.9455 -0.1189 -0.3031 0.9455 -0.1118 -0.2849 0.9520 -0.1118 -0.2849 0.9520 -0.1118 -0.2849 0.9520 -0.1118 -0.2849 0.9520 -0.1118 -0.2849 0.9520 -0.1118 -0.2849 0.9520 -0.1045 -0.2664 0.9582 -0.1045 -0.2664 0.9582 -0.1045 -0.2664 0.9582 -0.1045 -0.2664 0.9582 -0.1045 -0.2664 0.9582 -0.1045 -0.2664 0.9582 -0.0971 -0.2475 0.9640 -0.0971 -0.2475 0.9640 -0.0971 -0.2475 0.9640 -0.0971 -0.2475 0.9640 -0.0971 -0.2475 0.9640 -0.0971 -0.2475 0.9640 -0.0895 -0.2283 0.9695 -0.0895 -0.2283 0.9695 -0.0895 -0.2283 0.9695 -0.0895 -0.2283 0.9695 -0.0895 -0.2283 0.9695 -0.0895 -0.2283 0.9695 -0.0819 -0.2087 0.9745 -0.0819 -0.2087 0.9745 -0.0819 -0.2087 0.9745 -0.0819 -0.2087 0.9745 -0.0819 -0.2087 0.9745 -0.0819 -0.2087 0.9745 -0.0741 -0.1889 0.9792 -0.0741 -0.1889 0.9792 -0.0741 -0.1889 0.9792 -0.0741 -0.1889 0.9792 -0.0741 -0.1889 0.9792 -0.0741 -0.1889 0.9792 -0.0662 -0.1688 0.9834 -0.0662 -0.1688 0.9834 -0.0662 -0.1688 0.9834 -0.0662 -0.1688 0.9834 -0.0662 -0.1688 0.9834 -0.0662 -0.1688 0.9834 -0.0582 -0.1484 0.9872 -0.0582 -0.1484 0.9872 -0.0582 -0.1484 0.9872 -0.0582 -0.1484 0.9872 -0.0582 -0.1484 0.9872 -0.0582 -0.1484 0.9872 -0.0501 -0.1279 0.9905 -0.0501 -0.1279 0.9905 -0.0501 -0.1279 0.9905 -0.0501 -0.1279 0.9905 -0.0501 -0.1279 0.9905 -0.0501 -0.1279 0.9905 -0.0420 -0.1071 0.9934 -0.0420 -0.1071 0.9934 -0.0420 -0.1071 0.9934 -0.0420 -0.1071 0.9934 -0.0420 -0.1071 0.9934 -0.0420 -0.1071 0.9934 -0.0338 -0.0861 0.9957 -0.0338 -0.0861 0.9957 -0.0338 -0.0861 0.9957 -0.0338 -0.0861 0.9957 -0.0338 -0.0861 0.9957 -0.0338 -0.0861 0.9957 -0.0255 -0.0651 0.9976 -0.0255 -0.0651 0.9976 -0.0255 -0.0651 0.9976 -0.0255 -0.0651 0.9976 -0.0255 -0.0651 0.9976 -0.0255 -0.0651 0.9976 -0.0172 -0.0439 0.9989 -0.0172 -0.0439 0.9989 -0.0172 -0.0439 0.9989 -0.0172 -0.0439 0.9989 -0.0172 -0.0439 0.9989 -0.0172 -0.0439 0.9989 -0.0089 -0.0227 0.9997 -0.0089 -0.0227 0.9997 -0.0089 -0.0227 0.9997 -0.0089 -0.0227 0.9997 -0.0089 -0.0227 0.9997 -0.0089 -0.0227 0.9997 -0.0005 -0.0014 1.0000 -0.0005 -0.0014 1.0000 -0.0005 -0.0014 1.0000 -0.0005 -0.0014 1.0000 -0.0005 -0.0014 1.0000 -0.0005 -0.0014 1.0000 0.0078 0.0199 0.9998 0.0078 0.0199 0.9998 0.0078 0.0199 0.9998 0.0078 0.0199 0.9998 0.0078 0.0199 0.9998 0.0078 0.0199 0.9998 0.0161 0.0411 0.9990 0.0161 0.0411 0.9990 0.0161 0.0411 0.9990 0.0161 0.0411 0.9990 0.0161 0.0411 0.9990 0.0161 0.0411 0.9990 0.0244 0.0623 0.9978 0.0244 0.0623 0.9978 0.0244 0.0623 0.9978 0.0244 0.0623 0.9978 0.0244 0.0623 0.9978 0.0244 0.0623 0.9978 0.0327 0.0834 0.9960 0.0327 0.0834 0.9960 0.0327 0.0834 0.9960 0.0327 0.0834 0.9960 0.0327 0.0834 0.9960 0.0327 0.0834 0.9960 0.0409 0.1043 0.9937 0.0409 0.1043 0.9937 0.0409 0.1043 0.9937 0.0409 0.1043 0.9937 0.0409 0.1043 0.9937 0.0409 0.1043 0.9937 0.0491 0.1251 0.9909 0.0491 0.1251 0.9909 0.0491 0.1251 0.9909 0.0491 0.1251 0.9909 0.0491 0.1251 0.9909 0.0491 0.1251 0.9909 0.0572 0.1457 0.9877 0.0572 0.1457 0.9877 0.0572 0.1457 0.9877 0.0572 0.1457 0.9877 0.0572 0.1457 0.9877 0.0572 0.1457 0.9877 0.0652 0.1661 0.9840 0.0652 0.1661 0.9840 0.0652 0.1661 0.9840 0.0652 0.1661 0.9840 0.0652 0.1661 0.9840 0.0652 0.1661 0.9840 0.0731 0.1863 0.9798 0.0731 0.1863 0.9798 0.0731 0.1863 0.9798 0.0731 0.1863 0.9798 0.0731 0.1863 0.9798 0.0731 0.1863 0.9798 0.0809 0.2061 0.9752 0.0809 0.2061 0.9752 0.0809 0.2061 0.9752 0.0809 0.2061 0.9752 0.0809 0.2061 0.9752 0.0809 0.2061 0.9752 0.0885 0.2257 0.9702 0.0885 0.2257 0.9702 0.0885 0.2257 0.9702 0.0885 0.2257 0.9702 0.0885 0.2257 0.9702 0.0885 0.2257 0.9702 0.0961 0.2450 0.9648 0.0961 0.2450 0.9648 0.0961 0.2450 0.9648 0.0961 0.2450 0.9648 0.0961 0.2450 0.9648 0.0961 0.2450 0.9648 0.1035 0.2639 0.9590 0.1035 0.2639 0.9590 0.1035 0.2639 0.9590 0.1035 0.2639 0.9590 0.1035 0.2639 0.9590 0.1035 0.2639 0.9590 0.1108 0.2825 0.9528 0.1108 0.2825 0.9528 0.1108 0.2825 0.9528 0.1108 0.2825 0.9528 0.1108 0.2825 0.9528 0.1108 0.2825 0.9528 0.1180 0.3007 0.9464 0.1180 0.3007 0.9464 0.1180 0.3007 0.9464 0.1180 0.3007 0.9464 0.1180 0.3007 0.9464 0.1180 0.3007 0.9464 0.1250 0.3186 0.9396 0.1250 0.3186 0.9396 0.1250 0.3186 0.9396 0.1250 0.3186 0.9396 0.1250 0.3186 0.9396 0.1250 0.3186 0.9396 0.1318 0.3360 0.9326 0.1318 0.3360 0.9326 0.1318 0.3360 0.9326 0.1318 0.3360 0.9326 0.1318 0.3360 0.9326 0.1318 0.3360 0.9326 0.1385 0.3531 0.9253 0.1385 0.3531 0.9253 0.1385 0.3531 0.9253 0.1385 0.3531 0.9253 0.1385 0.3531 0.9253 0.1385 0.3531 0.9253 0.1450 0.3698 0.9177 0.1450 0.3698 0.9177 0.1450 0.3698 0.9177 0.1450 0.3698 0.9177 0.1450 0.3698 0.9177 0.1450 0.3698 0.9177 0.1514 0.3860 0.9100 0.1514 0.3860 0.9100 0.1514 0.3860 0.9100 0.1514 0.3860 0.9100 0.1514 0.3860 0.9100 0.1514 0.3860 0.9100 0.1576 0.4018 0.9021 0.1576 0.4018 0.9021 0.1576 0.4018 0.9021 0.1576 0.4018 0.9021 0.1576 0.4018 0.9021 0.1576 0.4018 0.9021 0.1636 0.4172 0.8939 0.1636 0.4172 0.8939 0.1636 0.4172 0.8939 0.1636 0.4172 0.8939 0.1636 0.4172 0.8939 0.1636 0.4172 0.8939 0.1695 0.4322 0.8857 0.1695 0.4322 0.8857 0.1695 0.4322 0.8857 0.1695 0.4322 0.8857 0.1695 0.4322 0.8857 0.1695 0.4322 0.8857 0.1752 0.4468 0.8773 0.1752 0.4468 0.8773 0.1752 0.4468 0.8773 0.1752 0.4468 0.8773 0.1752 0.4468 0.8773 0.1752 0.4468 0.8773 0.1808 0.4610 0.8688 0.1808 0.4610 0.8688 0.1808 0.4610 0.8688 0.1808 0.4610 0.8688 0.1808 0.4610 0.8688 0.1808 0.4610 0.8688 0.1862 0.4747 0.8602 0.1862 0.4747 0.8602 0.1862 0.4747 0.8602 0.1862 0.4747 0.8602 0.1862 0.4747 0.8602 0.1862 0.4747 0.8602 0.1914 0.4881 0.8516 0.1914 0.4881 0.8516 0.1914 0.4881 0.8516 0.1914 0.4881 0.8516 0.1914 0.4881 0.8516 0.1914 0.4881 0.8516</float_array>
          <technique_common>
            <accessor source="#portal_arc_a999-mesh-normals-array" count="336" stride="3">
              <param name="X" type="float"/>
              <param name="Y" type="float"/>
              <param name="Z" type="float"/>
            </accessor>
          </technique_common>
        </source>
        <source id="portal_arc_a999-mesh-map-0">
          <float_array id="portal_arc_a999-mesh-map-0-array" count="672">0 0 0 0 0 0 0 0 0 0 0 0 0 0 0 0 0 0 0 0 0 0 0 0 0 0 0 0 0 0 0 0 0 0 0 0 0 0 0 0 0 0 0 0 0 0 0 0 0 0 0 0 0 0 0 0 0 0 0 0 0 0 0 0 0 0 0 0 0 0 0 0 0 0 0 0 0 0 0 0 0 0 0 0 0 0 0 0 0 0 0 0 0 0 0 0 0 0 0 0 0 0 0 0 0 0 0 0 0 0 0 0 0 0 0 0 0 0 0 0 0 0 0 0 0 0 0 0 0 0 0 0 0 0 0 0 0 0 0 0 0 0 0 0 0 0 0 0 0 0 0 0 0 0 0 0 0 0 0 0 0 0 0 0 0 0 0 0 0 0 0 0 0 0 0 0 0 0 0 0 0 0 0 0 0 0 0 0 0 0 0 0 0 0 0 0 0 0 0 0 0 0 0 0 0 0 0 0 0 0 0 0 0 0 0 0 0 0 0 0 0 0 0 0 0 0 0 0 0 0 0 0 0 0 0 0 0 0 0 0 0 0 0 0 0 0 0 0 0 0 0 0 0 0 0 0 0 0 0 0 0 0 0 0 0 0 0 0 0 0 0 0 0 0 0 0 0 0 0 0 0 0 0 0 0 0 0 0 0 0 0 0 0 0 0 0 0 0 0 0 0 0 0 0 0 0 0 0 0 0 0 0 0 0 0 0 0 0 0 0 0 0 0 0 0 0 0 0 0 0 0 0 0 0 0 0 0 0 0 0 0 0 0 0 0 0 0 0 0 0 0 0 0 0 0 0 0 0 0 0 0 0 0 0 0 0 0 0 0 0 0 0 0 0 0 0 0 0 0 0 0 0 0 0 0 0 0 0 0 0 0 0 0 0 0 0 0 0 0 0 0 0 0 0 0 0 0 0 0 0 0 0 0 0 0 0 0 0 0 0 0 0 0 0 0 0 0 0 0 0 0 0 0 0 0 0 0 0 0 0 0 0 0 0 0 0 0 0 0 0 0 0 0 0 0 0 0 0 0 0 0 0 0 0 0 0 0 0 0 0 0 0 0 0 0 0 0 0 0 0 0 0 0 0 0 0 0 0 0 0 0 0 0 0 0 0 0 0 0 0 0 0 0 0 0 0 0 0 0 0 0 0 0 0 0 0 0 0 0 0 0 0 0 0 0 0 0 0 0 0 0 0 0 0 0 0 0 0 0 0 0 0 0 0 0 0 0 0 0 0 0 0 0 0 0 0 0 0 0 0 0 0 0 0 0 0 0 0 0 0 0 0 0 0 0 0 0 0 0 0 0 0 0 0 0 0 0 0 0 0 0 0 0 0 0 0 0 0 0 0 0 0 0 0 0 0 0 0 0 0 0 0 0 0 0 0 0 0 0 0 0 0 0 0 0 0 0 0 0 0 0 0 0 0 0 0 0 0 0 0 0 0 0 0 0 0 0 0 0 0 0 0 0 0 0 0 0 0 0 0 0 0 0 0 0 0 0 0 0 0 0 0</float_array>
          <technique_common>
            <accessor source="#portal_arc_a999-mesh-map-0-array" count="336" stride="2">
              <param name="S" type="float"/>
              <param name="T" type="float"/>
            </accessor>
          </technique_common>
        </source>
        <vertices id="portal_arc_a999-mesh-vertices">
          <input semantic="POSITION" source="#portal_arc_a999-mesh-positions"/>
        </vertices>
        <triangles material="portal_arc" count="112">
          <input semantic="VERTEX" source="#portal_arc_a999-mesh-vertices" offset="0"/>
          <input semantic="NORMAL" source="#portal_arc_a999-mesh-normals" offset="0"/>
          <input semantic="TEXCOORD" source="#portal_arc_a999-mesh-map-0" offset="0" set="0"/>
          <p>0 1 2 3 4 5 6 7 8 9 10 11 12 13 14 15 16 17 18 19 20 21 22 23 24 25 26 27 28 29 30 31 32 33 34 35 36 37 38 39 40 41 42 43 44 45 46 47 48 49 50 51 52 53 54 55 56 57 58 59 60 61 62 63 64 65 66 67 68 69 70 71 72 73 74 75 76 77 78 79 80 81 82 83 84 85 86 87 88 89 90 91 92 93 94 95 96 97 98 99 100 101 102 103 104 105 106 107 108 109 110 111 112 113 114 115 116 117 118 119 120 121 122 123 124 125 126 127 128 129 130 131 132 133 134 135 136 137 138 139 140 141 142 143 144 145 146 147 148 149 150 151 152 153 154 155 156 157 158 159 160 161 162 163 164 165 166 167 168 169 170 171 172 173 174 175 176 177 178 179 180 181 182 183 184 185 186 187 188 189 190 191 192 193 194 195 196 197 198 199 200 201 202 203 204 205 206 207 208 209 210 211 212 213 214 215 216 217 218 219 220 221 222 223 224 225 226 227 228 229 230 231 232 233 234 235 236 237 238 239 240 241 242 243 244 245 246 247 248 249 250 251 252 253 254 255 256 257 258 259 260 261 262 263 264 265 266 267 268 269 270 271 272 273 274 275 276 277 278 279 280 281 282 283 284 285 286 287 288 289 290 291 292 293 294 295 296 297 298 299 300 301 302 303 304 305 306 307 308 309 310 311 312 313 314 315 316 317 318 319 320 321 322 323 324 325 326 327 328 329 330 331 332 333 334 335</p>
        </triangles>
      </mesh>
    </geometry>
  </library_geometries>
  <library_visual_scenes>
    <visual_scene id="Scene" name="Scene">
      <node id="base00" name="base00" type="NODE">
        <node id="start01" name="start01" type="NODE">
          <node id="portal_arc_a999" name="portal_arc_a999" type="NODE">
            <instance_geometry url="#portal_arc_a999-mesh">
              <bind_material>
                <technique_common>
                  <instance_material symbol="portal_arc" target="#portal_arc-material">
                    <bind_vertex_input semantic="UVSET0" input_semantic="TEXCOORD" input_set="0"/>
                  </instance_material>
                </technique_common>
              </bind_material>
            </instance_geometry>
          </node>
        </node>
      </node>
    </visual_scene>
  </library_visual_scenes>
  <scene>
    <instance_visual_scene url="#Scene"/>
  </scene>
</COLLADA>
