<?xml version="1.0" encoding="utf-8"?>
<COLLADA xmlns="http://www.collada.org/2005/11/COLLADASchema" version="1.4.1">
  <asset>
    <contributor><authoring_tool>beamng_autoroad build_portals</authoring_tool></contributor>
    <unit name="meter" meter="1"/>
    <up_axis>Z_UP</up_axis>
  </asset>
  <library_effects>
    <effect id="portal_arc-effect">
      <profile_COMMON>
        <technique sid="common">
          <lambert>
            <diffuse><color>1.0 0.4 0.28 0.18</color></diffuse>
            <transparent opaque="A_ONE"><color>1 1 1 1</color></transparent>
            <transparency><float>0.82</float></transparency>
          </lambert>
        </technique>
      </profile_COMMON>
    </effect>
  </library_effects>
  <library_materials>
    <material id="portal_arc-material" name="portal_arc">
      <instance_effect url="#portal_arc-effect"/>
    </material>
  </library_materials>
  <library_geometries>
    <geometry id="portal_arc_a999-mesh" name="portal_arc_a999-mesh">
      <mesh>
        <source id="portal_arc_a999-mesh-positions">
          <float_array id="portal_arc_a999-mesh-positions-array" count="1008">-6.2191 7.8309 0.0000 -131.0151 -91.2791 144.6710 6.2191 -7.8309 0.0000 6.2191 -7.8309 0.0000 -131.0151 -91.2791 144.6710 -118.5769 -106.9409 144.6710 -131.0151 -91.2791 144.6710 -255.8121 -190.3891 284.2410 -118.5769 -106.9409 144.6710 -118.5769 -106.9409 144.6710 -255.8121 -190.3891 284.2410 -243.3739 -206.0509 284.2410 -255.8121 -190.3891 284.2410 -380.6081 -289.4991 418.7080 -243.3739 -206.0509 284.2410 -243.3739 -206.0509 284.2410 -380.6081 -289.4991 418.7080 -368.1699 -305.1609 418.7080 -380.6081 -289.4991 418.7080 -505.4051 -388.6091 548.0740 -368.1699 -305.1609 418.7080 -368.1699 -305.1609 418.7080 -505.4051 -388.6091 548.0740 -492.9669 -404.2709 548.0740 -505.4051 -388.6091 548.0740 -630.2011 -487.7191 672.3370 -492.9669 -404.2709 548.0740 -492.9669 -404.2709 548.0740 -630.2011 -487.7191 672.3370 -617.7629 -503.3809 672.3370 -630.2011 -487.7191 672.3370 -754.9970 -586.8291 791.4980 -617.7629 -503.3809 672.3370 -617.7629 -503.3809 672.3370 -754.9970 -586.8291 791.4980 -742.5590 -602.4909 791.4980 -754.9970 -586.8291 791.4980 -879.7941 -685.9381 905.5570 -742.5590 -602.4909 791.4980 -742.5590 -602.4909 791.4980 -879.7941 -685.9381 905.5570 -867.3559 -701.5999 905.5570 -879.7941 -685.9381 905.5570 -1004.5901 -785.0481 1014.5140 -867.3559 -701.5999 905.5570 -867.3559 -701.5999 905.5570 -1004.5901 -785.0481 1014.5140 -992.1519 -800.7099 1014.5140 -1004.5901 -785.0481 1014.5140 -1129.3871 -884.1581 1118.3700 -992.1519 -800.7099 1014.5140 -992.1519 -800.7099 1014.5140 -1129.3871 -884.1581 1118.3700 -1116.9489 -899.8199 1118.3700 -1129.3871 -884.1581 1118.3700 -1254.1831 -983.2681 1217.1230 -1116.9489 -899.8199 1118.3700 -1116.9489 -899.8199 1118.3700 -1254.1831 -983.2681 1217.1230 -1241.7449 -998.9299 1217.1230 -1254.1831 -983.2681 1217.1230 -1378.9791 -1082.3781 1310.7740 -1241.7449 -998.9299 1217.1230 -1241.7449 -998.9299 1217.1230 -1378.9791 -1082.3781 1310.7740 -1366.5409 -1098.0399 1310.7740 -1378.9791 -1082.3781 1310.7740 -1503.7761 -1181.4881 1399.3230 -1366.5409 -1098.0399 1310.7740 -1366.5409 -1098.0399 1310.7740 -1503.7761 -1181.4881 1399.3230 -1491.3379 -1197.1499 1399.3230 -1503.7761 -1181.4881 1399.3230 -1628.5721 -1280.5981 1482.7700 -1491.3379 -1197.1499 1399.3230 -1491.3379 -1197.1499 1399.3230 -1628.5721 -1280.5981 1482.7700 -1616.1339 -1296.2599 1482.7700 -1628.5721 -1280.5981 1482.7700 -1753.3681 -1379.7081 1561.1150 -1616.1339 -1296.2599 1482.7700 -1616.1339 -1296.2599 1482.7700 -1753.3681 -1379.7081 1561.1150 -1740.9299 -1395.3699 1561.1150 -1753.3681 -1379.7081 1561.1150 -1878.1651 -1478.8181 1634.3580 -1740.9299 -1395.3699 1561.1150 -1740.9299 -1395.3699 1561.1150 -1878.1651 -1478.8181 1634.3580 -1865.7269 -1494.4799 1634.3580 -1878.1651 -1478.8181 1634.3580 -2002.9611 -1577.9281 1702.4980 -1865.7269 -1494.4799 1634.3580 -1865.7269 -1494.4799 1634.3580 -2002.9611 -1577.9281 1702.4980 -1990.5229 -1593.5899 1702.4980 -2002.9611 -1577.9281 1702.4980 -2127.7581 -1677.0381 1765.5370 -1990.5229 -1593.5899 1702.4980 -1990.5229 -1593.5899 1702.4980 -2127.7581 -1677.0381 1765.5370 -2115.3199 -1692.6999 1765.5370 -2127.7581 -1677.0381 1765.5370 -2252.5541 -1776.1481 1823.4740 -2115.3199 -1692.6999 1765.5370 -2115.3199 -1692.6999 1765.5370 -2252.5541 -1776.1481 1823.4740 -2240.1159 -1791.8099 1823.4740 -2252.5541 -1776.1481 1823.4740 -2377.3501 -1875.2581 1876.3090 -2240.1159 -1791.8099 1823.4740 -2240.1159 -1791.8099 1823.4740 -2377.3501 -1875.2581 1876.3090 -2364.9119 -1890.9199 1876.3090 -2377.3501 -1875.2581 1876.3090 -2502.1471 -1974.3681 1924.0410 -2364.9119 -1890.9199 1876.3090 -2364.9119 -1890.9199 1876.3090 -2502.1471 -1974.3681 1924.0410 -2489.7089 -1990.0299 1924.0410 -2502.1471 -1974.3681 1924.0410 -2626.9431 -2073.4771 1966.6720 -2489.7089 -1990.0299 1924.0410 -2489.7089 -1990.0299 1924.0410 -2626.9431 -2073.4771 1966.6720 -2614.5049 -2089.1389 1966.6720 -2626.9431 -2073.4771 1966.6720 -2751.7401 -2172.5871 2004.2010 -2614.5049 -2089.1389 1966.6720 -2614.5049 -2089.1389 1966.6720 -2751.7401 -2172.5871 2004.2010 -2739.3019 -2188.2489 2004.2010 -2751.7401 -2172.5871 2004.2010 -2876.5361 -2271.6971 2036.6270 -2739.3019 -2188.2489 2004.2010 -2739.3019 -2188.2489 2004.2010 -2876.5361 -2271.6971 2036.6270 -2864.0979 -2287.3589 2036.6270 -2876.5361 -2271.6971 2036.6270 -3001.3321 -2370.8071 2063.9520 -2864.0979 -2287.3589 2036.6270 -2864.0979 -2287.3589 2036.6270 -3001.3321 -2370.8071 2063.9520 -2988.8939 -2386.4689 2063.9520 -3001.3321 -2370.8071 2063.9520 -3126.1291 -2469.9171 2086.1740 -2988.8939 -2386.4689 2063.9520 -2988.8939 -2386.4689 2063.9520 -3126.1291 -2469.9171 2086.1740 -3113.6909 -2485.5789 2086.1740 -3126.1291 -2469.9171 2086.1740 -3250.9251 -2569.0271 2103.2950 -3113.6909 -2485.5789 2086.1740 -3113.6909 -2485.5789 2086.1740 -3250.9251 -2569.0271 2103.2950 -3238.4869 -2584.6889 2103.2950 -3250.9251 -2569.0271 2103.2950 -3375.7221 -2668.1371 2115.3130 -3238.4869 -2584.6889 2103.2950 -3238.4869 -2584.6889 2103.2950 -3375.7221 -2668.1371 2115.3130 -3363.2839 -2683.7989 2115.3130 -3375.7221 -2668.1371 2115.3130 -3500.5181 -2767.2471 2122.2290 -3363.2839 -2683.7989 2115.3130 -3363.2839 -2683.7989 2115.3130 -3500.5181 -2767.2471 2122.2290 -3488.0799 -2782.9089 2122.2290 -3500.5181 -2767.2471 2122.2290 -3625.3141 -2866.3571 2124.0440 -3488.0799 -2782.9089 2122.2290 -3488.0799 -2782.9089 2122.2290 -3625.3141 -2866.3571 2124.0440 -3612.8759 -2882.0189 2124.0440 -3625.3141 -2866.3571 2124.0440 -3750.1111 -2965.4671 2120.7560 -3612.8759 -2882.0189 2124.0440 -3612.8759 -2882.0189 2124.0440 -3750.1111 -2965.4671 2120.7560 -3737.6729 -2981.1289 2120.7560 -3750.1111 -2965.4671 2120.7560 -3874.9071 -3064.5771 2112.3660 -3737.6729 -2981.1289 2120.7560 -3737.6729 -2981.1289 2120.7560 -3874.9071 -3064.5771 2112.3660 -3862.4689 -3080.2389 2112.3660 -3874.9071 -3064.5771 2112.3660 -3999.7041 -3163.6871 2098.8740 -3862.4689 -3080.2389 2112.3660 -3862.4689 -3080.2389 2112.3660 -3999.7041 -3163.6871 2098.8740 -3987.2659 -3179.3489 2098.8740 -3999.7041 -3163.6871 2098.8740 -4124.5001 -3262.7971 2080.2800 -3987.2659 -3179.3489 2098.8740 -3987.2659 -3179.3489 2098.8740 -4124.5001 -3262.7971 2080.2800 -4112.0619 -3278.4589 2080.2800 -4124.5001 -3262.7971 2080.2800 -4249.2960 -3361.9071 2056.5850 -4112.0619 -3278.4589 2080.2800 -4112.0619 -3278.4589 2080.2800 -4249.2960 -3361.9071 2056.5850 -4236.8580 -3377.5689 2056.5850 -4249.2960 -3361.9071 2056.5850 -4374.0931 -3461.0161 2027.7870 -4236.8580 -3377.5689 2056.5850 -4236.8580 -3377.5689 2056.5850 -4374.0931 -3461.0161 2027.7870 -4361.6549 -3476.6779 2027.7870 -4374.0931 -3461.0161 2027.7870 -4498.8891 -3560.1261 1993.8870 -4361.6549 -3476.6779 2027.7870 -4361.6549 -3476.6779 2027.7870 -4498.8891 -3560.1261 1993.8870 -4486.4509 -3575.7879 1993.8870 -4498.8891 -3560.1261 1993.8870 -4623.6861 -3659.2361 1954.8850 -4486.4509 -3575.7879 1993.8870 -4486.4509 -3575.7879 1993.8870 -4623.6861 -3659.2361 1954.8850 -4611.2479 -3674.8979 1954.8850 -4623.6861 -3659.2361 1954.8850 -4748.4821 -3758.3461 1910.7810 -4611.2479 -3674.8979 1954.8850 -4611.2479 -3674.8979 1954.8850 -4748.4821 -3758.3461 1910.7810 -4736.0439 -3774.0079 1910.7810 -4748.4821 -3758.3461 1910.7810 -4873.2781 -3857.4561 1861.5740 -4736.0439 -3774.0079 1910.7810 -4736.0439 -3774.0079 1910.7810 -4873.2781 -3857.4561 1861.5740 -4860.8399 -3873.1179 1861.5740 -4873.2781 -3857.4561 1861.5740 -4998.0751 -3956.5661 1807.2660 -4860.8399 -3873.1179 1861.5740 -4860.8399 -3873.1179 1861.5740 -4998.0751 -3956.5661 1807.2660 -4985.6369 -3972.2279 1807.2660 -4998.0751 -3956.5661 1807.2660 -5122.8711 -4055.6761 1747.8560 -4985.6369 -3972.2279 1807.2660 -4985.6369 -3972.2279 1807.2660 -5122.8711 -4055.6761 1747.8560 -5110.4329 -4071.3379 1747.8560 -5122.8711 -4055.6761 1747.8560 -5247.6671 -4154.7861 1683.3440 -5110.4329 -4071.3379 1747.8560 -5110.4329 -4071.3379 1747.8560 -5247.6671 -4154.7861 1683.3440 -5235.2289 -4170.4479 1683.3440 -5247.6671 -4154.7861 1683.3440 -5372.4641 -4253.8961 1613.7300 -5235.2289 -4170.4479 1683.3440 -5235.2289 -4170.4479 1683.3440 -5372.4641 -4253.8961 1613.7300 -5360.0259 -4269.5579 1613.7300 -5372.4641 -4253.8961 1613.7300 -5497.2601 -4353.0061 1539.0130 -5360.0259 -4269.5579 1613.7300 -5360.0259 -4269.5579 1613.7300 -5497.2601 -4353.0061 1539.0130 -5484.8219 -4368.6679 1539.0130 -5497.2601 -4353.0061 1539.0130 -5622.0571 -4452.1161 1459.1950 -5484.8219 -4368.6679 1539.0130 -5484.8219 -4368.6679 1539.0130 -5622.0571 -4452.1161 1459.1950 -5609.6189 -4467.7779 1459.1950 -5622.0571 -4452.1161 1459.1950 -5746.8531 -4551.2261 1374.2750 -5609.6189 -4467.7779 1459.1950 -5609.6189 -4467.7779 1459.1950 -5746.8531 -4551.2261 1374.2750 -5734.4149 -4566.8879 1374.2750 -5746.8531 -4551.2261 1374.2750 -5871.6491 -4650.3361 1284.2520 -5734.4149 -4566.8879 1374.2750 -5734.4149 -4566.8879 1374.2750 -5871.6491 -4650.3361 1284.2520 -5859.2109 -4665.9979 1284.2520 -5871.6491 -4650.3361 1284.2520 -5996.4461 -4749.4461 1189.1280 -5859.2109 -4665.9979 1284.2520 -5859.2109 -4665.9979 1284.2520 -5996.4461 -4749.4461 1189.1280 -5984.0079 -4765.1079 1189.1280 -5996.4461 -4749.4461 1189.1280 -6121.2421 -4848.5551 1088.9010 -5984.0079 -4765.1079 1189.1280 -5984.0079 -4765.1079 1189.1280 -6121.2421 -4848.5551 1088.9010 -6108.8039 -4864.2169 1088.9010 -6121.2421 -4848.5551 1088.9010 -6246.0391 -4947.6651 983.5730 -6108.8039 -4864.2169 1088.9010 -6108.8039 -4864.2169 1088.9010 -6246.0391 -4947.6651 983.5730 -6233.6009 -4963.3269 983.5730 -6246.0391 -4947.6651 983.5730 -6370.8351 -5046.7751 873.1420 -6233.6009 -4963.3269 983.5730 -6233.6009 -4963.3269 983.5730 -6370.8351 -5046.7751 873.1420 -6358.3969 -5062.4369 873.1420 -6370.8351 -5046.7751 873.1420 -6495.6311 -5145.8851 757.6090 -6358.3969 -5062.4369 873.1420 -6358.3969 -5062.4369 873.1420 -6495.6311 -5145.8851 757.6090 -6483.1929 -5161.5469 757.6090 -6495.6311 -5145.8851 757.6090 -6620.4281 -5244.9951 636.9750 -6483.1929 -5161.5469 757.6090 -6483.1929 -5161.5469 757.6090 -6620.4281 -5244.9951 636.9750 -6607.9899 -5260.6569 636.9750 -6620.4281 -5244.9951 636.9750 -6745.2241 -5344.1051 511.2380 -6607.9899 -5260.6569 636.9750 -6607.9899 -5260.6569 636.9750 -6745.2241 -5344.1051 511.2380 -6732.7859 -5359.7669 511.2380 -6745.2241 -5344.1051 511.2380 -6870.0211 -5443.2151 380.3990 -6732.7859 -5359.7669 511.2380 -6732.7859 -5359.7669 511.2380 -6870.0211 -5443.2151 380.3990 -6857.5829 -5458.8769 380.3990 -6870.0211 -5443.2151 380.3990 -6994.8171 -5542.3251 244.4590 -6857.5829 -5458.8769 380.3990 -6857.5829 -5458.8769 380.3990 -6994.8171 -5542.3251 244.4590 -6982.3789 -5557.9869 244.4590</float_array>
          <technique_common>
            <accessor source="#portal_arc_a999-mesh-positions-array" count="336" stride="3">
              <param name="X" type="float"/>
              <param name="Y" type="float"/>
              <param name="Z" type="float"/>
            </accessor>
          </technique_common>
        </source>
        <source id="portal_arc_a999-mesh-normals">
          <float_array id="portal_arc_a999-mesh-normals-array" count="1008">0.5264 0.4180 0.7404 0.5264 0.4180 0.7404 0.5264 0.4180 0.7404 0.5264 0.4180 0.7404 0.5264 0.4180 0.7404 0.5264 0.4180 0.7404 0.5159 0.4097 0.7523 0.5159 0.4097 0.7523 0.5159 0.4097 0.7523 0.5159 0.4097 0.7523 0.5159 0.4097 0.7523 0.5159 0.4097 0.7523 0.5050 0.4011 0.7643 0.5050 0.4011 0.7643 0.5050 0.4011 0.7643 0.5050 0.4011 0.7643 0.5050 0.4011 0.7643 0.5050 0.4011 0.7643 0.4935 0.3920 0.7764 0.4935 0.3920 0.7764 0.4935 0.3920 0.7764 0.4935 0.3920 0.7764 0.4935 0.3920 0.7764 0.4935 0.3920 0.7764 0.4815 0.3824 0.7886 0.4815 0.3824 0.7886 0.4815 0.3824 0.7886 0.4815 0.3824 0.7886 0.4815 0.3824 0.7886 0.4815 0.3824 0.7886 0.4689 0.3724 0.8009 0.4689 0.3724 0.8009 0.4689 0.3724 0.8009 0.4689 0.3724 0.8009 0.4689 0.3724 0.8009 0.4689 0.3724 0.8009 0.4558 0.3620 0.8132 0.4558 0.3620 0.8132 0.4558 0.3620 0.8132 0.4558 0.3620 0.8132 0.4558 0.3620 0.8132 0.4558 0.3620 0.8132 0.4420 0.3510 0.8255 0.4420 0.3510 0.8255 0.4420 0.3510 0.8255 0.4420 0.3510 0.8255 0.4420 0.3510 0.8255 0.4420 0.3510 0.8255 0.4276 0.3396 0.8378 0.4276 0.3396 0.8378 0.4276 0.3396 0.8378 0.4276 0.3396 0.8378 0.4276 0.3396 0.8378 0.4276 0.3396 0.8378 0.4125 0.3276 0.8500 0.4125 0.3276 0.8500 0.4125 0.3276 0.8500 0.4125 0.3276 0.8500 0.4125 0.3276 0.8500 0.4125 0.3276 0.8500 0.3968 0.3151 0.8622 0.3968 0.3151 0.8622 0.3968 0.3151 0.8622 0.3968 0.3151 0.8622 0.3968 0.3151 0.8622 0.3968 0.3151 0.8622 0.3803 0.3021 0.8741 0.3803 0.3021 0.8741 0.3803 0.3021 0.8741 0.3803 0.3021 0.8741 0.3803 0.3021 0.8741 0.3803 0.3021 0.8741 0.3633 0.2885 0.8859 0.3633 0.2885 0.8859 0.3633 0.2885 0.8859 0.3633 0.2885 0.8859 0.3633 0.2885 0.8859 0.3633 0.2885 0.8859 0.3455 0.2744 0.8974 0.3455 0.2744 0.8974 0.3455 0.2744 0.8974 0.3455 0.2744 0.8974 0.3455 0.2744 0.8974 0.3455 0.2744 0.8974 0.3270 0.2597 0.9086 0.3270 0.2597 0.9086 0.3270 0.2597 0.9086 0.3270 0.2597 0.9086 0.3270 0.2597 0.9086 0.3270 0.2597 0.9086 0.3079 0.2445 0.9195 0.3079 0.2445 0.9195 0.3079 0.2445 0.9195 0.3079 0.2445 0.9195 0.3079 0.2445 0.9195 0.3079 0.2445 0.9195 0.2880 0.2288 0.9299 0.2880 0.2288 0.9299 0.2880 0.2288 0.9299 0.2880 0.2288 0.9299 0.2880 0.2288 0.9299 0.2880 0.2288 0.9299 0.2676 0.2125 0.9398 0.2676 0.2125 0.9398 0.2676 0.2125 0.9398 0.2676 0.2125 0.9398 0.2676 0.2125 0.9398 0.2676 0.2125 0.9398 0.2464 0.1957 0.9492 0.2464 0.1957 0.9492 0.2464 0.1957 0.9492 0.2464 0.1957 0.9492 0.2464 0.1957 0.9492 0.2464 0.1957 0.9492 0.2247 0.1784 0.9580 0.2247 0.1784 0.9580 0.2247 0.1784 0.9580 0.2247 0.1784 0.9580 0.2247 0.1784 0.9580 0.2247 0.1784 0.9580 0.2024 0.1607 0.9660 0.2024 0.1607 0.9660 0.2024 0.1607 0.9660 0.2024 0.1607 0.9660 0.2024 0.1607 0.9660 0.2024 0.1607 0.9660 0.1795 0.1426 0.9734 0.1795 0.1426 0.9734 0.1795 0.1426 0.9734 0.1795 0.1426 0.9734 0.1795 0.1426 0.9734 0.1795 0.1426 0.9734 0.1561 0.1240 0.9799 0.1561 0.1240 0.9799 0.1561 0.1240 0.9799 0.1561 0.1240 0.9799 0.1561 0.1240 0.9799 0.1561 0.1240 0.9799 0.1323 0.1051 0.9856 0.1323 0.1051 0.9856 0.1323 0.1051 0.9856 0.1323 0.1051 0.9856 0.1323 0.1051 0.9856 0.1323 0.1051 0.9856 0.1081 0.0859 0.9904 0.1081 0.0859 0.9904 0.1081 0.0859 0.9904 0.1081 0.0859 0.9904 0.1081 0.0859 0.9904 0.1081 0.0859 0.9904 0.0836 0.0664 0.9943 0.0836 0.0664 0.9943 0.0836 0.0664 0.9943 0.0836 0.0664 0.9943 0.0836 0.0664 0.9943 0.0836 0.0664 0.9943 0.0589 0.0468 0.9972 0.0589 0.0468 0.9972 0.0589 0.0468 0.9972 0.0589 0.0468 0.9972 0.0589 0.0468 0.9972 0.0589 0.0468 0.9972 0.0340 0.0270 0.9991 0.0340 0.0270 0.9991 0.0340 0.0270 0.9991 0.0340 0.0270 0.9991 0.0340 0.0270 0.9991 0.0340 0.0270 0.9991 0.0089 0.0071 0.9999 0.0089 0.0071 0.9999 0.0089 0.0071 0.9999 0.0089 0.0071 0.9999 0.0089 0.0071 0.9999 0.0089 0.0071 0.9999 -0.0162 -0.0128 0.9998 -0.0162 -0.0128 0.9998 -0.0162 -0.0128 0.9998 -0.0162 -0.0128 0.9998 -0.0162 -0.0128 0.9998 -0.0162 -0.0128 0.9998 -0.0412 -0.0327 0.9986 -0.0412 -0.0327 0.9986 -0.0412 -0.0327 0.9986 -0.0412 -0.0327 0.9986 -0.0412 -0.0327 0.9986 -0.0412 -0.0327 0.9986 -0.0661 -0.0525 0.9964 -0.0661 -0.0525 0.9964 -0.0661 -0.0525 0.9964 -0.0661 -0.0525 0.9964 -0.0661 -0.0525 0.9964 -0.0661 -0.0525 0.9964 -0.0908 -0.0721 0.9933 -0.0908 -0.0721 0.9933 -0.0908 -0.0721 0.9933 -0.0908 -0.0721 0.9933 -0.0908 -0.0721 0.9933 -0.0908 -0.0721 0.9933 -0.1152 -0.0915 0.9891 -0.1152 -0.0915 0.9891 -0.1152 -0.0915 0.9891 -0.1152 -0.0915 0.9891 -0.1152 -0.0915 0.9891 -0.1152 -0.0915 0.9891 -0.1393 -0.1106 0.9841 -0.1393 -0.1106 0.9841 -0.1393 -0.1106 0.9841 -0.1393 -0.1106 0.9841 -0.1393 -0.1106 0.9841 -0.1393 -0.1106 0.9841 -0.1629 -0.1294 0.9781 -0.1629 -0.1294 0.9781 -0.1629 -0.1294 0.9781 -0.1629 -0.1294 0.9781 -0.1629 -0.1294 0.9781 -0.1629 -0.1294 0.9781 -0.1862 -0.1478 0.9713 -0.1862 -0.1478 0.9713 -0.1862 -0.1478 0.9713 -0.1862 -0.1478 0.9713 -0.1862 -0.1478 0.9713 -0.1862 -0.1478 0.9713 -0.2089 -0.1659 0.9638 -0.2089 -0.1659 0.9638 -0.2089 -0.1659 0.9638 -0.2089 -0.1659 0.9638 -0.2089 -0.1659 0.9638 -0.2089 -0.1659 0.9638 -0.2310 -0.1835 0.9555 -0.2310 -0.1835 0.9555 -0.2310 -0.1835 0.9555 -0.2310 -0.1835 0.9555 -0.2310 -0.1835 0.9555 -0.2310 -0.1835 0.9555 -0.2526 -0.2006 0.9465 -0.2526 -0.2006 0.9465 -0.2526 -0.2006 0.9465 -0.2526 -0.2006 0.9465 -0.2526 -0.2006 0.9465 -0.2526 -0.2006 0.9465 -0.2735 -0.2172 0.9370 -0.2735 -0.2172 0.9370 -0.2735 -0.2172 0.9370 -0.2735 -0.2172 0.9370 -0.2735 -0.2172 0.9370 -0.2735 -0.2172 0.9370 -0.2938 -0.2334 0.9269 -0.2938 -0.2334 0.9269 -0.2938 -0.2334 0.9269 -0.2938 -0.2334 0.9269 -0.2938 -0.2334 0.9269 -0.2938 -0.2334 0.9269 -0.3135 -0.2489 0.9164 -0.3135 -0.2489 0.9164 -0.3135 -0.2489 0.9164 -0.3135 -0.2489 0.9164 -0.3135 -0.2489 0.9164 -0.3135 -0.2489 0.9164 -0.3324 -0.2640 0.9054 -0.3324 -0.2640 0.9054 -0.3324 -0.2640 0.9054 -0.3324 -0.2640 0.9054 -0.3324 -0.2640 0.9054 -0.3324 -0.2640 0.9054 -0.3507 -0.2785 0.8941 -0.3507 -0.2785 0.8941 -0.3507 -0.2785 0.8941 -0.3507 -0.2785 0.8941 -0.3507 -0.2785 0.8941 -0.3507 -0.2785 0.8941 -0.3683 -0.2925 0.8825 -0.3683 -0.2925 0.8825 -0.3683 -0.2925 0.8825 -0.3683 -0.2925 0.8825 -0.3683 -0.2925 0.8825 -0.3683 -0.2925 0.8825 -0.3852 -0.3059 0.8707 -0.3852 -0.3059 0.8707 -0.3852 -0.3059 0.8707 -0.3852 -0.3059 0.8707 -0.3852 -0.3059 0.8707 -0.3852 -0.3059 0.8707 -0.4014 -0.3187 0.8587 -0.4014 -0.3187 0.8587 -0.4014 -0.3187 0.8587 -0.4014 -0.3187 0.8587 -0.4014 -0.3187 0.8587 -0.4014 -0.3187 0.8587 -0.4169 -0.3311 0.8465 -0.4169 -0.3311 0.8465 -0.4169 -0.3311 0.8465 -0.4169 -0.3311 0.8465 -0.4169 -0.3311 0.8465 -0.4169 -0.3311 0.8465 -0.4318 -0.3429 0.8343 -0.4318 -0.3429 0.8343 -0.4318 -0.3429 0.8343 -0.4318 -0.3429 0.8343 -0.4318 -0.3429 0.8343 -0.4318 -0.3429 0.8343 -0.4460 -0.3542 0.8219 -0.4460 -0.3542 0.8219 -0.4460 -0.3542 0.8219 -0.4460 -0.3542 0.8219 -0.4460 -0.3542 0.8219 -0.4460 -0.3542 0.8219 -0.4596 -0.3650 0.8096 -0.4596 -0.3650 0.8096 -0.4596 -0.3650 0.8096 -0.4596 -0.3650 0.8096 -0.4596 -0.3650 0.8096 -0.4596 -0.3650 0.8096 -0.4726 -0.3754 0.7973 -0.4726 -0.3754 0.7973 -0.4726 -0.3754 0.7973 -0.4726 -0.3754 0.7973 -0.4726 -0.3754 0.7973 -0.4726 -0.3754 0.7973 -0.4851 -0.3852 0.7851 -0.4851 -0.3852 0.7851 -0.4851 -0.3852 0.7851 -0.4851 -0.3852 0.7851 -0.4851 -0.3852 0.7851 -0.4851 -0.3852 0.7851 -0.4969 -0.3946 0.7729 -0.4969 -0.3946 0.7729 -0.4969 -0.3946 0.7729 -0.4969 -0.3946 0.7729 -0.4969 -0.3946 0.7729 -0.4969 -0.3946 0.7729 -0.5082 -0.4036 0.7608 -0.5082 -0.4036 0.7608 -0.5082 -0.4036 0.7608 -0.5082 -0.4036 0.7608 -0.5082 -0.4036 0.7608 -0.5082 -0.4036 0.7608</float_array>
          <technique_common>
            <accessor source="#portal_arc_a999-mesh-normals-array" count="336" stride="3">
              <param name="X" type="float"/>
              <param name="Y" type="float"/>
              <param name="Z" type="float"/>
            </accessor>
          </technique_common>
        </source>
        <source id="portal_arc_a999-mesh-map-0">
          <float_array id="portal_arc_a999-mesh-map-0-array" count="672">0 0 0 0 0 0 0 0 0 0 0 0 0 0 0 0 0 0 0 0 0 0 0 0 0 0 0 0 0 0 0 0 0 0 0 0 0 0 0 0 0 0 0 0 0 0 0 0 0 0 0 0 0 0 0 0 0 0 0 0 0 0 0 0 0 0 0 0 0 0 0 0 0 0 0 0 0 0 0 0 0 0 0 0 0 0 0 0 0 0 0 0 0 0 0 0 0 0 0 0 0 0 0 0 0 0 0 0 0 0 0 0 0 0 0 0 0 0 0 0 0 0 0 0 0 0 0 0 0 0 0 0 0 0 0 0 0 0 0 0 0 0 0 0 0 0 0 0 0 0 0 0 0 0 0 0 0 0 0 0 0 0 0 0 0 0 0 0 0 0 0 0 0 0 0 0 0 0 0 0 0 0 0 0 0 0 0 0 0 0 0 0 0 0 0 0 0 0 0 0 0 0 0 0 0 0 0 0 0 0 0 0 0 0 0 0 0 0 0 0 0 0 0 0 0 0 0 0 0 0 0 0 0 0 0 0 0 0 0 0 0 0 0 0 0 0 0 0 0 0 0 0 0 0 0 0 0 0 0 0 0 0 0 0 0 0 0 0 0 0 0 0 0 0 0 0 0 0 0 0 0 0 0 0 0 0 0 0 0 0 0 0 0 0 0 0 0 0 0 0 0 0 0 0 0 0 0 0 0 0 0 0 0 0 0 0 0 0 0 0 0 0 0 0 0 0 0 0 0 0 0 0 0 0 0 0 0 0 0 0 0 0 0 0 0 0 0 0 0 0 0 0 0 0 0 0 0 0 0 0 0 0 0 0 0 0 0 0 0 0 0 0 0 0 0 0 0 0 0 0 0 0 0 0 0 0 0 0 0 0 0 0 0 0 0 0 0 0 0 0 0 0 0 0 0 0 0 0 0 0 0 0 0 0 0 0 0 0 0 0 0 0 0 0 0 0 0 0 0 0 0 0 0 0 0 0 0 0 0 0 0 0 0 0 0 0 0 0 0 0 0 0 0 0 0 0 0 0 0 0 0 0 0 0 0 0 0 0 0 0 0 0 0 0 0 0 0 0 0 0 0 0 0 0 0 0 0 0 0 0 0 0 0 0 0 0 0 0 0 0 0 0 0 0 0 0 0 0 0 0 0 0 0 0 0 0 0 0 0 0 0 0 0 0 0 0 0 0 0 0 0 0 0 0 0 0 0 0 0 0 0 0 0 0 0 0 0 0 0 0 0 0 0 0 0 0 0 0 0 0 0 0 0 0 0 0 0 0 0 0 0 0 0 0 0 0 0 0 0 0 0 0 0 0 0 0 0 0 0 0 0 0 0 0 0 0 0 0 0 0 0 0 0 0 0 0 0 0 0 0 0 0 0 0 0 0 0 0 0 0 0 0 0 0 0 0 0 0 0 0 0 0 0 0 0 0 0 0 0 0 0 0 0 0 0 0 0 0 0 0 0 0 0 0 0 0 0 0 0 0 0 0 0 0 0 0 0 0 0 0 0 0</float_array>
          <technique_common>
            <accessor source="#portal_arc_a999-mesh-map-0-array" count="336" stride="2">
              <param name="S" type="float"/>
              <param name="T" type="float"/>
            </accessor>
          </technique_common>
        </source>
        <vertices id="portal_arc_a999-mesh-vertices">
          <input semantic="POSITION" source="#portal_arc_a999-mesh-positions"/>
        </vertices>
        <triangles material="portal_arc" count="112">
          <input semantic="VERTEX" source="#portal_arc_a999-mesh-vertices" offset="0"/>
          <input semantic="NORMAL" source="#portal_arc_a999-mesh-normals" offset="0"/>
          <input semantic="TEXCOORD" source="#portal_arc_a999-mesh-map-0" offset="0" set="0"/>
          <p>0 1 2 3 4 5 6 7 8 9 10 11 12 13 14 15 16 17 18 19 20 21 22 23 24 25 26 27 28 29 30 31 32 33 34 35 36 37 38 39 40 41 42 43 44 45 46 47 48 49 50 51 52 53 54 55 56 57 58 59 60 61 62 63 64 65 66 67 68 69 70 71 72 73 74 75 76 77 78 79 80 81 82 83 84 85 86 87 88 89 90 91 92 93 94 95 96 97 98 99 100 101 102 103 104 105 106 107 108 109 110 111 112 113 114 115 116 117 118 119 120 121 122 123 124 125 126 127 128 129 130 131 132 133 134 135 136 137 138 139 140 141 142 143 144 145 146 147 148 149 150 151 152 153 154 155 156 157 158 159 160 161 162 163 164 165 166 167 168 169 170 171 172 173 174 175 176 177 178 179 180 181 182 183 184 185 186 187 188 189 190 191 192 193 194 195 196 197 198 199 200 201 202 203 204 205 206 207 208 209 210 211 212 213 214 215 216 217 218 219 220 221 222 223 224 225 226 227 228 229 230 231 232 233 234 235 236 237 238 239 240 241 242 243 244 245 246 247 248 249 250 251 252 253 254 255 256 257 258 259 260 261 262 263 264 265 266 267 268 269 270 271 272 273 274 275 276 277 278 279 280 281 282 283 284 285 286 287 288 289 290 291 292 293 294 295 296 297 298 299 300 301 302 303 304 305 306 307 308 309 310 311 312 313 314 315 316 317 318 319 320 321 322 323 324 325 326 327 328 329 330 331 332 333 334 335</p>
        </triangles>
      </mesh>
    </geometry>
  </library_geometries>
  <library_visual_scenes>
    <visual_scene id="Scene" name="Scene">
      <node id="base00" name="base00" type="NODE">
        <node id="start01" name="start01" type="NODE">
          <node id="portal_arc_a999" name="portal_arc_a999" type="NODE">
            <instance_geometry url="#portal_arc_a999-mesh">
              <bind_material>
                <technique_common>
                  <instance_material symbol="portal_arc" target="#portal_arc-material">
                    <bind_vertex_input semantic="UVSET0" input_semantic="TEXCOORD" input_set="0"/>
                  </instance_material>
                </technique_common>
              </bind_material>
            </instance_geometry>
          </node>
        </node>
      </node>
    </visual_scene>
  </library_visual_scenes>
  <scene>
    <instance_visual_scene url="#Scene"/>
  </scene>
</COLLADA>
