<?xml version="1.0" encoding="utf-8"?>
<COLLADA xmlns="http://www.collada.org/2005/11/COLLADASchema" version="1.4.1">
  <asset>
    <contributor><authoring_tool>beamng_autoroad build_portals</authoring_tool></contributor>
    <unit name="meter" meter="1"/>
    <up_axis>Z_UP</up_axis>
  </asset>
  <library_effects>
    <effect id="portal_arc-effect">
      <profile_COMMON>
        <technique sid="common">
          <lambert>
            <diffuse><color>1.0 0.4 0.28 0.18</color></diffuse>
            <transparent opaque="A_ONE"><color>1 1 1 1</color></transparent>
            <transparency><float>0.82</float></transparency>
          </lambert>
        </technique>
      </profile_COMMON>
    </effect>
  </library_effects>
  <library_materials>
    <material id="portal_arc-material" name="portal_arc">
      <instance_effect url="#portal_arc-effect"/>
    </material>
  </library_materials>
  <library_geometries>
    <geometry id="portal_arc_a999-mesh" name="portal_arc_a999-mesh">
      <mesh>
        <source id="portal_arc_a999-mesh-positions">
          <float_array id="portal_arc_a999-mesh-positions-array" count="1008">-2.4592 9.6929 0.0000 -269.1362 -57.9671 71.6670 2.4592 -9.6929 0.0000 2.4592 -9.6929 0.0000 -269.1362 -57.9671 71.6670 -264.2178 -77.3529 71.6670 -269.1362 -57.9671 71.6670 -535.8132 -125.6261 141.7620 -264.2178 -77.3529 71.6670 -264.2178 -77.3529 71.6670 -535.8132 -125.6261 141.7620 -530.8948 -145.0119 141.7620 -535.8132 -125.6261 141.7620 -802.4902 -193.2861 210.2850 -530.8948 -145.0119 141.7620 -530.8948 -145.0119 141.7620 -802.4902 -193.2861 210.2850 -797.5718 -212.6719 210.2850 -802.4902 -193.2861 210.2850 -1069.1662 -260.9461 277.2360 -797.5718 -212.6719 210.2850 -797.5718 -212.6719 210.2850 -1069.1662 -260.9461 277.2360 -1064.2478 -280.3319 277.2360 -1069.1662 -260.9461 277.2360 -1335.8432 -328.6061 342.6150 -1064.2478 -280.3319 277.2360 -1064.2478 -280.3319 277.2360 -1335.8432 -328.6061 342.6150 -1330.9248 -347.9919 342.6150 -1335.8432 -328.6061 342.6150 -1602.5202 -396.2651 406.4210 -1330.9248 -347.9919 342.6150 -1330.9248 -347.9919 342.6150 -1602.5202 -396.2651 406.4210 -1597.6018 -415.6509 406.4210 -1602.5202 -396.2651 406.4210 -1869.1972 -463.9251 468.6560 -1597.6018 -415.6509 406.4210 -1597.6018 -415.6509 406.4210 -1869.1972 -463.9251 468.6560 -1864.2788 -483.3109 468.6560 -1869.1972 -463.9251 468.6560 -2135.8742 -531.5851 529.3180 -1864.2788 -483.3109 468.6560 -1864.2788 -483.3109 468.6560 -2135.8742 -531.5851 529.3180 -2130.9558 -550.9709 529.3180 -2135.8742 -531.5851 529.3180 -2402.5512 -599.2451 588.4080 -2130.9558 -550.9709 529.3180 -2130.9558 -550.9709 529.3180 -2402.5512 -599.2451 588.4080 -2397.6328 -618.6309 588.4080 -2402.5512 -599.2451 588.4080 -2669.2282 -666.9041 645.9260 -2397.6328 -618.6309 588.4080 -2397.6328 -618.6309 588.4080 -2669.2282 -666.9041 645.9260 -2664.3098 -686.2899 645.9260 -2669.2282 -666.9041 645.9260 -2935.9052 -734.5641 701.8720 -2664.3098 -686.2899 645.9260 -2664.3098 -686.2899 645.9260 -2935.9052 -734.5641 701.8720 -2930.9868 -753.9499 701.8720 -2935.9052 -734.5641 701.8720 -3202.5812 -802.2241 756.2460 -2930.9868 -753.9499 701.8720 -2930.9868 -753.9499 701.8720 -3202.5812 -802.2241 756.2460 -3197.6628 -821.6099 756.2460 -3202.5812 -802.2241 756.2460 -3469.2582 -869.8841 809.0470 -3197.6628 -821.6099 756.2460 -3197.6628 -821.6099 756.2460 -3469.2582 -869.8841 809.0470 -3464.3398 -889.2699 809.0470 -3469.2582 -869.8841 809.0470 -3735.9352 -937.5431 860.2760 -3464.3398 -889.2699 809.0470 -3464.3398 -889.2699 809.0470 -3735.9352 -937.5431 860.2760 -3731.0168 -956.9289 860.2760 -3735.9352 -937.5431 860.2760 -4002.6122 -1005.2031 909.9340 -3731.0168 -956.9289 860.2760 -3731.0168 -956.9289 860.2760 -4002.6122 -1005.2031 909.9340 -3997.6938 -1024.5889 909.9340 -4002.6122 -1005.2031 909.9340 -4269.2892 -1072.8631 958.0190 -3997.6938 -1024.5889 909.9340 -3997.6938 -1024.5889 909.9340 -4269.2892 -1072.8631 958.0190 -4264.3708 -1092.2489 958.0190 -4269.2892 -1072.8631 958.0190 -4535.9662 -1140.5231 1004.5320 -4264.3708 -1092.2489 958.0190 -4264.3708 -1092.2489 958.0190 -4535.9662 -1140.5231 1004.5320 -4531.0478 -1159.9089 1004.5320 -4535.9662 -1140.5231 1004.5320 -4802.6432 -1208.1821 1049.4720 -4531.0478 -1159.9089 1004.5320 -4531.0478 -1159.9089 1004.5320 -4802.6432 -1208.1821 1049.4720 -4797.7248 -1227.5679 1049.4720 -4802.6432 -1208.1821 1049.4720 -5069.3202 -1275.8421 1092.8410 -4797.7248 -1227.5679 1049.4720 -4797.7248 -1227.5679 1049.4720 -5069.3202 -1275.8421 1092.8410 -5064.4018 -1295.2279 1092.8410 -5069.3202 -1275.8421 1092.8410 -5335.9962 -1343.5021 1134.6370 -5064.4018 -1295.2279 1092.8410 -5064.4018 -1295.2279 1092.8410 -5335.9962 -1343.5021 1134.6370 -5331.0778 -1362.8879 1134.6370 -5335.9962 -1343.5021 1134.6370 -5602.6732 -1411.1621 1174.8620 -5331.0778 -1362.8879 1134.6370 -5331.0778 -1362.8879 1134.6370 -5602.6732 -1411.1621 1174.8620 -5597.7548 -1430.5479 1174.8620 -5602.6732 -1411.1621 1174.8620 -5869.3502 -1478.8211 1213.5140 -5597.7548 -1430.5479 1174.8620 -5597.7548 -1430.5479 1174.8620 -5869.3502 -1478.8211 1213.5140 -5864.4318 -1498.2069 1213.5140 -5869.3502 -1478.8211 1213.5140 -6136.0272 -1546.4811 1250.5940 -5864.4318 -1498.2069 1213.5140 -5864.4318 -1498.2069 1213.5140 -6136.0272 -1546.4811 1250.5940 -6131.1088 -1565.8669 1250.5940 -6136.0272 -1546.4811 1250.5940 -6402.7042 -1614.1411 1286.1020 -6131.1088 -1565.8669 1250.5940 -6131.1088 -1565.8669 1250.5940 -6402.7042 -1614.1411 1286.1020 -6397.7858 -1633.5269 1286.1020 -6402.7042 -1614.1411 1286.1020 -6669.3812 -1681.8011 1320.0370 -6397.7858 -1633.5269 1286.1020 -6397.7858 -1633.5269 1286.1020 -6669.3812 -1681.8011 1320.0370 -6664.4628 -1701.1869 1320.0370 -6669.3812 -1681.8011 1320.0370 -6936.0582 -1749.4601 1352.4010 -6664.4628 -1701.1869 1320.0370 -6664.4628 -1701.1869 1320.0370 -6936.0582 -1749.4601 1352.4010 -6931.1398 -1768.8459 1352.4010 -6936.0582 -1749.4601 1352.4010 -7202.7352 -1817.1201 1383.1920 -6931.1398 -1768.8459 1352.4010 -6931.1398 -1768.8459 1352.4010 -7202.7352 -1817.1201 1383.1920 -7197.8168 -1836.5059 1383.1920 -7202.7352 -1817.1201 1383.1920 -7469.4112 -1884.7801 1412.4120 -7197.8168 -1836.5059 1383.1920 -7197.8168 -1836.5059 1383.1920 -7469.4112 -1884.7801 1412.4120 -7464.4928 -1904.1659 1412.4120 -7469.4112 -1884.7801 1412.4120 -7736.0882 -1952.4401 1440.0590 -7464.4928 -1904.1659 1412.4120 -7464.4928 -1904.1659 1412.4120 -7736.0882 -1952.4401 1440.0590 -7731.1698 -1971.8259 1440.0590 -7736.0882 -1952.4401 1440.0590 -8002.7652 -2020.0991 1466.1340 -7731.1698 -1971.8259 1440.0590 -7731.1698 -1971.8259 1440.0590 -8002.7652 -2020.0991 1466.1340 -7997.8468 -2039.4849 1466.1340 -8002.7652 -2020.0991 1466.1340 -8269.4422 -2087.7591 1490.6360 -7997.8468 -2039.4849 1466.1340 -7997.8468 -2039.4849 1466.1340 -8269.4422 -2087.7591 1490.6360 -8264.5238 -2107.1449 1490.6360 -8269.4422 -2087.7591 1490.6360 -8536.1192 -2155.4191 1513.5670 -8264.5238 -2107.1449 1490.6360 -8264.5238 -2107.1449 1490.6360 -8536.1192 -2155.4191 1513.5670 -8531.2008 -2174.8049 1513.5670 -8536.1192 -2155.4191 1513.5670 -8802.7962 -2223.0791 1534.9260 -8531.2008 -2174.8049 1513.5670 -8531.2008 -2174.8049 1513.5670 -8802.7962 -2223.0791 1534.9260 -8797.8778 -2242.4649 1534.9260 -8802.7962 -2223.0791 1534.9260 -9069.4732 -2290.7381 1554.7120 -8797.8778 -2242.4649 1534.9260 -8797.8778 -2242.4649 1534.9260 -9069.4732 -2290.7381 1554.7120 -9064.5548 -2310.1239 1554.7120 -9069.4732 -2290.7381 1554.7120 -9336.1502 -2358.3981 1572.9260 -9064.5548 -2310.1239 1554.7120 -9064.5548 -2310.1239 1554.7120 -9336.1502 -2358.3981 1572.9260 -9331.2318 -2377.7839 1572.9260 -9336.1502 -2358.3981 1572.9260 -9602.8262 -2426.0581 1589.5680 -9331.2318 -2377.7839 1572.9260 -9331.2318 -2377.7839 1572.9260 -9602.8262 -2426.0581 1589.5680 -9597.9078 -2445.4439 1589.5680 -9602.8262 -2426.0581 1589.5680 -9869.5032 -2493.7181 1604.6380 -9597.9078 -2445.4439 1589.5680 -9597.9078 -2445.4439 1589.5680 -9869.5032 -2493.7181 1604.6380 -9864.5848 -2513.1039 1604.6380 -9869.5032 -2493.7181 1604.6380 -10136.1802 -2561.3771 1618.1360 -9864.5848 -2513.1039 1604.6380 -9864.5848 -2513.1039 1604.6380 -10136.1802 -2561.3771 1618.1360 -10131.2618 -2580.7629 1618.1360 -10136.1802 -2561.3771 1618.1360 -10402.8572 -2629.0371 1630.0610 -10131.2618 -2580.7629 1618.1360 -10131.2618 -2580.7629 1618.1360 -10402.8572 -2629.0371 1630.0610 -10397.9388 -2648.4229 1630.0610 -10402.8572 -2629.0371 1630.0610 -10669.5342 -2696.6971 1640.4150 -10397.9388 -2648.4229 1630.0610 -10397.9388 -2648.4229 1630.0610 -10669.5342 -2696.6971 1640.4150 -10664.6158 -2716.0829 1640.4150 -10669.5342 -2696.6971 1640.4150 -10936.2112 -2764.3571 1649.1960 -10664.6158 -2716.0829 1640.4150 -10664.6158 -2716.0829 1640.4150 -10936.2112 -2764.3571 1649.1960 -10931.2928 -2783.7429 1649.1960 -10936.2112 -2764.3571 1649.1960 -11202.8882 -2832.0161 1656.4050 -10931.2928 -2783.7429 1649.1960 -10931.2928 -2783.7429 1649.1960 -11202.8882 -2832.0161 1656.4050 -11197.9698 -2851.4019 1656.4050 -11202.8882 -2832.0161 1656.4050 -11469.5652 -2899.6761 1662.0420 -11197.9698 -2851.4019 1656.4050 -11197.9698 -2851.4019 1656.4050 -11469.5652 -2899.6761 1662.0420 -11464.6468 -2919.0619 1662.0420 -11469.5652 -2899.6761 1662.0420 -11736.2412 -2967.3361 1666.1070 -11464.6468 -2919.0619 1662.0420 -11464.6468 -2919.0619 1662.0420 -11736.2412 -2967.3361 1666.1070 -11731.3228 -2986.7219 1666.1070 -11736.2412 -2967.3361 1666.1070 -12002.9182 -3034.9961 1668.6000 -11731.3228 -2986.7219 1666.1070 -11731.3228 -2986.7219 1666.1070 -12002.9182 -3034.9961 1668.6000 -11997.9998 -3054.3819 1668.6000 -12002.9182 -3034.9961 1668.6000 -12269.5952 -3102.6551 1669.5210 -11997.9998 -3054.3819 1668.6000 -11997.9998 -3054.3819 1668.6000 -12269.5952 -3102.6551 1669.5210 -12264.6768 -3122.0409 1669.5210 -12269.5952 -3102.6551 1669.5210 -12536.2722 -3170.3151 1668.8690 -12264.6768 -3122.0409 1669.5210 -12264.6768 -3122.0409 1669.5210 -12536.2722 -3170.3151 1668.8690 -12531.3538 -3189.7009 1668.8690 -12536.2722 -3170.3151 1668.8690 -12802.9492 -3237.9751 1666.6450 -12531.3538 -3189.7009 1668.8690 -12531.3538 -3189.7009 1668.8690 -12802.9492 -3237.9751 1666.6450 -12798.0308 -3257.3609 1666.6450 -12802.9492 -3237.9751 1666.6450 -13069.6262 -3305.6351 1662.8490 -12798.0308 -3257.3609 1666.6450 -12798.0308 -3257.3609 1666.6450 -13069.6262 -3305.6351 1662.8490 -13064.7078 -3325.0209 1662.8490 -13069.6262 -3305.6351 1662.8490 -13336.3032 -3373.2941 1657.4810 -13064.7078 -3325.0209 1662.8490 -13064.7078 -3325.0209 1662.8490 -13336.3032 -3373.2941 1657.4810 -13331.3848 -3392.6799 1657.4810 -13336.3032 -3373.2941 1657.4810 -13602.9802 -3440.9541 1650.5410 -13331.3848 -3392.6799 1657.4810 -13331.3848 -3392.6799 1657.4810 -13602.9802 -3440.9541 1650.5410 -13598.0618 -3460.3399 1650.5410 -13602.9802 -3440.9541 1650.5410 -13869.6562 -3508.6141 1642.0290 -13598.0618 -3460.3399 1650.5410 -13598.0618 -3460.3399 1650.5410 -13869.6562 -3508.6141 1642.0290 -13864.7378 -3527.9999 1642.0290 -13869.6562 -3508.6141 1642.0290 -14136.3332 -3576.2741 1631.9440 -13864.7378 -3527.9999 1642.0290 -13864.7378 -3527.9999 1642.0290 -14136.3332 -3576.2741 1631.9440 -14131.4148 -3595.6599 1631.9440 -14136.3332 -3576.2741 1631.9440 -14403.0102 -3643.9331 1620.2880 -14131.4148 -3595.6599 1631.9440 -14131.4148 -3595.6599 1631.9440 -14403.0102 -3643.9331 1620.2880 -14398.0918 -3663.3189 1620.2880 -14403.0102 -3643.9331 1620.2880 -14669.6872 -3711.5931 1607.0590 -14398.0918 -3663.3189 1620.2880 -14398.0918 -3663.3189 1620.2880 -14669.6872 -3711.5931 1607.0590 -14664.7688 -3730.9789 1607.0590 -14669.6872 -3711.5931 1607.0590 -14936.3642 -3779.2531 1592.2580 -14664.7688 -3730.9789 1607.0590 -14664.7688 -3730.9789 1607.0590 -14936.3642 -3779.2531 1592.2580 -14931.4458 -3798.6389 1592.2580</float_array>
          <technique_common>
            <accessor source="#portal_arc_a999-mesh-positions-array" count="336" stride="3">
              <param name="X" type="float"/>
              <param name="Y" type="float"/>
              <param name="Z" type="float"/>
            </accessor>
          </technique_common>
        </source>
        <source id="portal_arc_a999-mesh-normals">
          <float_array id="portal_arc_a999-mesh-normals-array" count="1008">0.2443 0.0620 0.9677 0.2443 0.0620 0.9677 0.2443 0.0620 0.9677 0.2443 0.0620 0.9677 0.2443 0.0620 0.9677 0.2443 0.0620 0.9677 0.2393 0.0607 0.9690 0.2393 0.0607 0.9690 0.2393 0.0607 0.9690 0.2393 0.0607 0.9690 0.2393 0.0607 0.9690 0.2393 0.0607 0.9690 0.2343 0.0594 0.9704 0.2343 0.0594 0.9704 0.2343 0.0594 0.9704 0.2343 0.0594 0.9704 0.2343 0.0594 0.9704 0.2343 0.0594 0.9704 0.2292 0.0581 0.9716 0.2292 0.0581 0.9716 0.2292 0.0581 0.9716 0.2292 0.0581 0.9716 0.2292 0.0581 0.9716 0.2292 0.0581 0.9716 0.2241 0.0569 0.9729 0.2241 0.0569 0.9729 0.2241 0.0569 0.9729 0.2241 0.0569 0.9729 0.2241 0.0569 0.9729 0.2241 0.0569 0.9729 0.2190 0.0556 0.9741 0.2190 0.0556 0.9741 0.2190 0.0556 0.9741 0.2190 0.0556 0.9741 0.2190 0.0556 0.9741 0.2190 0.0556 0.9741 0.2139 0.0543 0.9754 0.2139 0.0543 0.9754 0.2139 0.0543 0.9754 0.2139 0.0543 0.9754 0.2139 0.0543 0.9754 0.2139 0.0543 0.9754 0.2087 0.0530 0.9765 0.2087 0.0530 0.9765 0.2087 0.0530 0.9765 0.2087 0.0530 0.9765 0.2087 0.0530 0.9765 0.2087 0.0530 0.9765 0.2035 0.0516 0.9777 0.2035 0.0516 0.9777 0.2035 0.0516 0.9777 0.2035 0.0516 0.9777 0.2035 0.0516 0.9777 0.2035 0.0516 0.9777 0.1984 0.0503 0.9788 0.1984 0.0503 0.9788 0.1984 0.0503 0.9788 0.1984 0.0503 0.9788 0.1984 0.0503 0.9788 0.1984 0.0503 0.9788 0.1931 0.0490 0.9799 0.1931 0.0490 0.9799 0.1931 0.0490 0.9799 0.1931 0.0490 0.9799 0.1931 0.0490 0.9799 0.1931 0.0490 0.9799 0.1879 0.0477 0.9810 0.1879 0.0477 0.9810 0.1879 0.0477 0.9810 0.1879 0.0477 0.9810 0.1879 0.0477 0.9810 0.1879 0.0477 0.9810 0.1827 0.0464 0.9821 0.1827 0.0464 0.9821 0.1827 0.0464 0.9821 0.1827 0.0463 0.9821 0.1827 0.0463 0.9821 0.1827 0.0463 0.9821 0.1774 0.0450 0.9831 0.1774 0.0450 0.9831 0.1774 0.0450 0.9831 0.1774 0.0450 0.9831 0.1774 0.0450 0.9831 0.1774 0.0450 0.9831 0.1722 0.0437 0.9841 0.1722 0.0437 0.9841 0.1722 0.0437 0.9841 0.1722 0.0437 0.9841 0.1722 0.0437 0.9841 0.1722 0.0437 0.9841 0.1669 0.0423 0.9851 0.1669 0.0423 0.9851 0.1669 0.0423 0.9851 0.1669 0.0423 0.9851 0.1669 0.0423 0.9851 0.1669 0.0423 0.9851 0.1616 0.0410 0.9860 0.1616 0.0410 0.9860 0.1616 0.0410 0.9860 0.1616 0.0410 0.9860 0.1616 0.0410 0.9860 0.1616 0.0410 0.9860 0.1563 0.0396 0.9869 0.1563 0.0396 0.9869 0.1563 0.0396 0.9869 0.1563 0.0396 0.9869 0.1563 0.0396 0.9869 0.1563 0.0396 0.9869 0.1509 0.0383 0.9878 0.1509 0.0383 0.9878 0.1509 0.0383 0.9878 0.1509 0.0383 0.9878 0.1509 0.0383 0.9878 0.1509 0.0383 0.9878 0.1456 0.0369 0.9887 0.1456 0.0369 0.9887 0.1456 0.0369 0.9887 0.1456 0.0369 0.9887 0.1456 0.0369 0.9887 0.1456 0.0369 0.9887 0.1402 0.0356 0.9895 0.1402 0.0356 0.9895 0.1402 0.0356 0.9895 0.1402 0.0356 0.9895 0.1402 0.0356 0.9895 0.1402 0.0356 0.9895 0.1348 0.0342 0.9903 0.1348 0.0342 0.9903 0.1348 0.0342 0.9903 0.1348 0.0342 0.9903 0.1348 0.0342 0.9903 0.1348 0.0342 0.9903 0.1295 0.0328 0.9910 0.1295 0.0328 0.9910 0.1295 0.0328 0.9910 0.1295 0.0328 0.9910 0.1295 0.0328 0.9910 0.1295 0.0328 0.9910 0.1241 0.0315 0.9918 0.1241 0.0315 0.9918 0.1241 0.0315 0.9918 0.1241 0.0315 0.9918 0.1241 0.0315 0.9918 0.1241 0.0315 0.9918 0.1187 0.0301 0.9925 0.1187 0.0301 0.9925 0.1187 0.0301 0.9925 0.1187 0.0301 0.9925 0.1187 0.0301 0.9925 0.1187 0.0301 0.9925 0.1132 0.0287 0.9932 0.1132 0.0287 0.9932 0.1132 0.0287 0.9932 0.1132 0.0287 0.9932 0.1132 0.0287 0.9932 0.1132 0.0287 0.9932 0.1078 0.0274 0.9938 0.1078 0.0274 0.9938 0.1078 0.0274 0.9938 0.1078 0.0274 0.9938 0.1078 0.0274 0.9938 0.1078 0.0274 0.9938 0.1024 0.0260 0.9944 0.1024 0.0260 0.9944 0.1024 0.0260 0.9944 0.1024 0.0260 0.9944 0.1024 0.0260 0.9944 0.1024 0.0260 0.9944 0.0969 0.0246 0.9950 0.0969 0.0246 0.9950 0.0969 0.0246 0.9950 0.0969 0.0246 0.9950 0.0969 0.0246 0.9950 0.0969 0.0246 0.9950 0.0915 0.0232 0.9955 0.0915 0.0232 0.9955 0.0915 0.0232 0.9955 0.0915 0.0232 0.9955 0.0915 0.0232 0.9955 0.0915 0.0232 0.9955 0.0860 0.0218 0.9961 0.0860 0.0218 0.9961 0.0860 0.0218 0.9961 0.0860 0.0218 0.9961 0.0860 0.0218 0.9961 0.0860 0.0218 0.9961 0.0805 0.0204 0.9965 0.0805 0.0204 0.9965 0.0805 0.0204 0.9965 0.0805 0.0204 0.9965 0.0805 0.0204 0.9965 0.0805 0.0204 0.9965 0.0750 0.0190 0.9970 0.0750 0.0190 0.9970 0.0750 0.0190 0.9970 0.0750 0.0190 0.9970 0.0750 0.0190 0.9970 0.0750 0.0190 0.9970 0.0695 0.0176 0.9974 0.0695 0.0176 0.9974 0.0695 0.0176 0.9974 0.0695 0.0176 0.9974 0.0695 0.0176 0.9974 0.0695 0.0176 0.9974 0.0640 0.0162 0.9978 0.0640 0.0162 0.9978 0.0640 0.0162 0.9978 0.0640 0.0162 0.9978 0.0640 0.0162 0.9978 0.0640 0.0162 0.9978 0.0585 0.0148 0.9982 0.0585 0.0148 0.9982 0.0585 0.0148 0.9982 0.0585 0.0148 0.9982 0.0585 0.0148 0.9982 0.0585 0.0148 0.9982 0.0530 0.0135 0.9985 0.0530 0.0135 0.9985 0.0530 0.0135 0.9985 0.0530 0.0135 0.9985 0.0530 0.0135 0.9985 0.0530 0.0135 0.9985 0.0475 0.0121 0.9988 0.0475 0.0121 0.9988 0.0475 0.0121 0.9988 0.0475 0.0121 0.9988 0.0475 0.0121 0.9988 0.0475 0.0121 0.9988 0.0420 0.0106 0.9991 0.0420 0.0106 0.9991 0.0420 0.0106 0.9991 0.0420 0.0106 0.9991 0.0420 0.0106 0.9991 0.0420 0.0106 0.9991 0.0365 0.0092 0.9993 0.0365 0.0092 0.9993 0.0365 0.0092 0.9993 0.0365 0.0092 0.9993 0.0365 0.0092 0.9993 0.0365 0.0092 0.9993 0.0309 0.0078 0.9995 0.0309 0.0078 0.9995 0.0309 0.0078 0.9995 0.0309 0.0078 0.9995 0.0309 0.0078 0.9995 0.0309 0.0078 0.9995 0.0254 0.0064 0.9997 0.0254 0.0064 0.9997 0.0254 0.0064 0.9997 0.0254 0.0064 0.9997 0.0254 0.0064 0.9997 0.0254 0.0064 0.9997 0.0199 0.0050 0.9998 0.0199 0.0050 0.9998 0.0199 0.0050 0.9998 0.0199 0.0050 0.9998 0.0199 0.0050 0.9998 0.0199 0.0050 0.9998 0.0143 0.0036 0.9999 0.0143 0.0036 0.9999 0.0143 0.0036 0.9999 0.0143 0.0036 0.9999 0.0143 0.0036 0.9999 0.0143 0.0036 0.9999 0.0088 0.0022 1.0000 0.0088 0.0022 1.0000 0.0088 0.0022 1.0000 0.0088 0.0022 1.0000 0.0088 0.0022 1.0000 0.0088 0.0022 1.0000 0.0032 0.0008 1.0000 0.0032 0.0008 1.0000 0.0032 0.0008 1.0000 0.0032 0.0008 1.0000 0.0032 0.0008 1.0000 0.0032 0.0008 1.0000 -0.0023 -0.0006 1.0000 -0.0023 -0.0006 1.0000 -0.0023 -0.0006 1.0000 -0.0023 -0.0006 1.0000 -0.0023 -0.0006 1.0000 -0.0023 -0.0006 1.0000 -0.0078 -0.0020 1.0000 -0.0078 -0.0020 1.0000 -0.0078 -0.0020 1.0000 -0.0078 -0.0020 1.0000 -0.0078 -0.0020 1.0000 -0.0078 -0.0020 1.0000 -0.0134 -0.0034 0.9999 -0.0134 -0.0034 0.9999 -0.0134 -0.0034 0.9999 -0.0134 -0.0034 0.9999 -0.0134 -0.0034 0.9999 -0.0134 -0.0034 0.9999 -0.0189 -0.0048 0.9998 -0.0189 -0.0048 0.9998 -0.0189 -0.0048 0.9998 -0.0189 -0.0048 0.9998 -0.0189 -0.0048 0.9998 -0.0189 -0.0048 0.9998 -0.0244 -0.0062 0.9997 -0.0244 -0.0062 0.9997 -0.0244 -0.0062 0.9997 -0.0244 -0.0062 0.9997 -0.0244 -0.0062 0.9997 -0.0244 -0.0062 0.9997 -0.0300 -0.0076 0.9995 -0.0300 -0.0076 0.9995 -0.0300 -0.0076 0.9995 -0.0300 -0.0076 0.9995 -0.0300 -0.0076 0.9995 -0.0300 -0.0076 0.9995 -0.0355 -0.0090 0.9993 -0.0355 -0.0090 0.9993 -0.0355 -0.0090 0.9993 -0.0355 -0.0090 0.9993 -0.0355 -0.0090 0.9993 -0.0355 -0.0090 0.9993 -0.0410 -0.0104 0.9991 -0.0410 -0.0104 0.9991 -0.0410 -0.0104 0.9991 -0.0410 -0.0104 0.9991 -0.0410 -0.0104 0.9991 -0.0410 -0.0104 0.9991 -0.0466 -0.0118 0.9988 -0.0466 -0.0118 0.9988 -0.0466 -0.0118 0.9988 -0.0466 -0.0118 0.9988 -0.0466 -0.0118 0.9988 -0.0466 -0.0118 0.9988 -0.0521 -0.0132 0.9986 -0.0521 -0.0132 0.9986 -0.0521 -0.0132 0.9986 -0.0521 -0.0132 0.9986 -0.0521 -0.0132 0.9986 -0.0521 -0.0132 0.9986</float_array>
          <technique_common>
            <accessor source="#portal_arc_a999-mesh-normals-array" count="336" stride="3">
              <param name="X" type="float"/>
              <param name="Y" type="float"/>
              <param name="Z" type="float"/>
            </accessor>
          </technique_common>
        </source>
        <source id="portal_arc_a999-mesh-map-0">
          <float_array id="portal_arc_a999-mesh-map-0-array" count="672">0 0 0 0 0 0 0 0 0 0 0 0 0 0 0 0 0 0 0 0 0 0 0 0 0 0 0 0 0 0 0 0 0 0 0 0 0 0 0 0 0 0 0 0 0 0 0 0 0 0 0 0 0 0 0 0 0 0 0 0 0 0 0 0 0 0 0 0 0 0 0 0 0 0 0 0 0 0 0 0 0 0 0 0 0 0 0 0 0 0 0 0 0 0 0 0 0 0 0 0 0 0 0 0 0 0 0 0 0 0 0 0 0 0 0 0 0 0 0 0 0 0 0 0 0 0 0 0 0 0 0 0 0 0 0 0 0 0 0 0 0 0 0 0 0 0 0 0 0 0 0 0 0 0 0 0 0 0 0 0 0 0 0 0 0 0 0 0 0 0 0 0 0 0 0 0 0 0 0 0 0 0 0 0 0 0 0 0 0 0 0 0 0 0 0 0 0 0 0 0 0 0 0 0 0 0 0 0 0 0 0 0 0 0 0 0 0 0 0 0 0 0 0 0 0 0 0 0 0 0 0 0 0 0 0 0 0 0 0 0 0 0 0 0 0 0 0 0 0 0 0 0 0 0 0 0 0 0 0 0 0 0 0 0 0 0 0 0 0 0 0 0 0 0 0 0 0 0 0 0 0 0 0 0 0 0 0 0 0 0 0 0 0 0 0 0 0 0 0 0 0 0 0 0 0 0 0 0 0 0 0 0 0 0 0 0 0 0 0 0 0 0 0 0 0 0 0 0 0 0 0 0 0 0 0 0 0 0 0 0 0 0 0 0 0 0 0 0 0 0 0 0 0 0 0 0 0 0 0 0 0 0 0 0 0 0 0 0 0 0 0 0 0 0 0 0 0 0 0 0 0 0 0 0 0 0 0 0 0 0 0 0 0 0 0 0 0 0 0 0 0 0 0 0 0 0 0 0 0 0 0 0 0 0 0 0 0 0 0 0 0 0 0 0 0 0 0 0 0 0 0 0 0 0 0 0 0 0 0 0 0 0 0 0 0 0 0 0 0 0 0 0 0 0 0 0 0 0 0 0 0 0 0 0 0 0 0 0 0 0 0 0 0 0 0 0 0 0 0 0 0 0 0 0 0 0 0 0 0 0 0 0 0 0 0 0 0 0 0 0 0 0 0 0 0 0 0 0 0 0 0 0 0 0 0 0 0 0 0 0 0 0 0 0 0 0 0 0 0 0 0 0 0 0 0 0 0 0 0 0 0 0 0 0 0 0 0 0 0 0 0 0 0 0 0 0 0 0 0 0 0 0 0 0 0 0 0 0 0 0 0 0 0 0 0 0 0 0 0 0 0 0 0 0 0 0 0 0 0 0 0 0 0 0 0 0 0 0 0 0 0 0 0 0 0 0 0 0 0 0 0 0 0 0 0 0 0 0 0 0 0 0 0 0 0 0 0 0 0 0 0 0 0 0 0 0 0 0 0 0 0 0 0 0 0 0 0 0 0 0 0 0 0 0 0 0 0 0 0 0 0 0 0 0 0 0 0 0 0 0 0 0</float_array>
          <technique_common>
            <accessor source="#portal_arc_a999-mesh-map-0-array" count="336" stride="2">
              <param name="S" type="float"/>
              <param name="T" type="float"/>
            </accessor>
          </technique_common>
        </source>
        <vertices id="portal_arc_a999-mesh-vertices">
          <input semantic="POSITION" source="#portal_arc_a999-mesh-positions"/>
        </vertices>
        <triangles material="portal_arc" count="112">
          <input semantic="VERTEX" source="#portal_arc_a999-mesh-vertices" offset="0"/>
          <input semantic="NORMAL" source="#portal_arc_a999-mesh-normals" offset="0"/>
          <input semantic="TEXCOORD" source="#portal_arc_a999-mesh-map-0" offset="0" set="0"/>
          <p>0 1 2 3 4 5 6 7 8 9 10 11 12 13 14 15 16 17 18 19 20 21 22 23 24 25 26 27 28 29 30 31 32 33 34 35 36 37 38 39 40 41 42 43 44 45 46 47 48 49 50 51 52 53 54 55 56 57 58 59 60 61 62 63 64 65 66 67 68 69 70 71 72 73 74 75 76 77 78 79 80 81 82 83 84 85 86 87 88 89 90 91 92 93 94 95 96 97 98 99 100 101 102 103 104 105 106 107 108 109 110 111 112 113 114 115 116 117 118 119 120 121 122 123 124 125 126 127 128 129 130 131 132 133 134 135 136 137 138 139 140 141 142 143 144 145 146 147 148 149 150 151 152 153 154 155 156 157 158 159 160 161 162 163 164 165 166 167 168 169 170 171 172 173 174 175 176 177 178 179 180 181 182 183 184 185 186 187 188 189 190 191 192 193 194 195 196 197 198 199 200 201 202 203 204 205 206 207 208 209 210 211 212 213 214 215 216 217 218 219 220 221 222 223 224 225 226 227 228 229 230 231 232 233 234 235 236 237 238 239 240 241 242 243 244 245 246 247 248 249 250 251 252 253 254 255 256 257 258 259 260 261 262 263 264 265 266 267 268 269 270 271 272 273 274 275 276 277 278 279 280 281 282 283 284 285 286 287 288 289 290 291 292 293 294 295 296 297 298 299 300 301 302 303 304 305 306 307 308 309 310 311 312 313 314 315 316 317 318 319 320 321 322 323 324 325 326 327 328 329 330 331 332 333 334 335</p>
        </triangles>
      </mesh>
    </geometry>
  </library_geometries>
  <library_visual_scenes>
    <visual_scene id="Scene" name="Scene">
      <node id="base00" name="base00" type="NODE">
        <node id="start01" name="start01" type="NODE">
          <node id="portal_arc_a999" name="portal_arc_a999" type="NODE">
            <instance_geometry url="#portal_arc_a999-mesh">
              <bind_material>
                <technique_common>
                  <instance_material symbol="portal_arc" target="#portal_arc-material">
                    <bind_vertex_input semantic="UVSET0" input_semantic="TEXCOORD" input_set="0"/>
                  </instance_material>
                </technique_common>
              </bind_material>
            </instance_geometry>
          </node>
        </node>
      </node>
    </visual_scene>
  </library_visual_scenes>
  <scene>
    <instance_visual_scene url="#Scene"/>
  </scene>
</COLLADA>
