<?xml version="1.0" encoding="utf-8"?>
<COLLADA xmlns="http://www.collada.org/2005/11/COLLADASchema" version="1.4.1">
  <asset>
    <contributor><authoring_tool>beamng_autoroad build_portals</authoring_tool></contributor>
    <unit name="meter" meter="1"/>
    <up_axis>Z_UP</up_axis>
  </asset>
  <library_effects>
    <effect id="portal_arc-effect">
      <profile_COMMON>
        <technique sid="common">
          <lambert>
            <diffuse><color>1.0 0.4 0.28 0.18</color></diffuse>
            <transparent opaque="A_ONE"><color>1 1 1 1</color></transparent>
            <transparency><float>0.82</float></transparency>
          </lambert>
        </technique>
      </profile_COMMON>
    </effect>
  </library_effects>
  <library_materials>
    <material id="portal_arc-material" name="portal_arc">
      <instance_effect url="#portal_arc-effect"/>
    </material>
  </library_materials>
  <library_geometries>
    <geometry id="portal_arc_a999-mesh" name="portal_arc_a999-mesh">
      <mesh>
        <source id="portal_arc_a999-mesh-positions">
          <float_array id="portal_arc_a999-mesh-positions-array" count="1008">-9.7103 2.3895 0.0000 -78.8723 -278.6716 58.8600 9.7103 -2.3895 0.0000 9.7103 -2.3895 0.0000 -78.8723 -278.6716 58.8600 -59.4517 -283.4504 58.8600 -78.8723 -278.6716 58.8600 -148.0333 -559.7335 116.0660 -59.4517 -283.4504 58.8600 -59.4517 -283.4504 58.8600 -148.0333 -559.7335 116.0660 -128.6127 -564.5125 116.0660 -148.0333 -559.7335 116.0660 -217.1953 -840.7945 171.6180 -128.6127 -564.5125 116.0660 -128.6127 -564.5125 116.0660 -217.1953 -840.7945 171.6180 -197.7747 -845.5735 171.6180 -217.1953 -840.7945 171.6180 -286.3573 -1121.8556 225.5160 -197.7747 -845.5735 171.6180 -197.7747 -845.5735 171.6180 -286.3573 -1121.8556 225.5160 -266.9367 -1126.6344 225.5160 -286.3573 -1121.8556 225.5160 -355.5183 -1402.9165 277.7600 -266.9367 -1126.6344 225.5160 -266.9367 -1126.6344 225.5160 -355.5183 -1402.9165 277.7600 -336.0977 -1407.6955 277.7600 -355.5183 -1402.9165 277.7600 -424.6803 -1683.9785 328.3510 -336.0977 -1407.6955 277.7600 -336.0977 -1407.6955 277.7600 -424.6803 -1683.9785 328.3510 -405.2597 -1688.7575 328.3510 -424.6803 -1683.9785 328.3510 -493.8423 -1965.0396 377.2870 -405.2597 -1688.7575 328.3510 -405.2597 -1688.7575 328.3510 -493.8423 -1965.0396 377.2870 -474.4217 -1969.8184 377.2870 -493.8423 -1965.0396 377.2870 -563.0033 -2246.1005 424.5690 -474.4217 -1969.8184 377.2870 -474.4217 -1969.8184 377.2870 -563.0033 -2246.1005 424.5690 -543.5827 -2250.8795 424.5690 -563.0033 -2246.1005 424.5690 -632.1653 -2527.1625 470.1970 -543.5827 -2250.8795 424.5690 -543.5827 -2250.8795 424.5690 -632.1653 -2527.1625 470.1970 -612.7447 -2531.9415 470.1970 -632.1653 -2527.1625 470.1970 -701.3273 -2808.2236 514.1720 -612.7447 -2531.9415 470.1970 -612.7447 -2531.9415 470.1970 -701.3273 -2808.2236 514.1720 -681.9067 -2813.0024 514.1720 -701.3273 -2808.2236 514.1720 -770.4883 -3089.2845 556.4920 -681.9067 -2813.0024 514.1720 -681.9067 -2813.0024 514.1720 -770.4883 -3089.2845 556.4920 -751.0677 -3094.0635 556.4920 -770.4883 -3089.2845 556.4920 -839.6503 -3370.3455 597.1580 -751.0677 -3094.0635 556.4920 -751.0677 -3094.0635 556.4920 -839.6503 -3370.3455 597.1580 -820.2297 -3375.1245 597.1580 -839.6503 -3370.3455 597.1580 -908.8123 -3651.4076 636.1700 -820.2297 -3375.1245 597.1580 -820.2297 -3375.1245 597.1580 -908.8123 -3651.4076 636.1700 -889.3917 -3656.1864 636.1700 -908.8123 -3651.4076 636.1700 -977.9733 -3932.4685 673.5290 -889.3917 -3656.1864 636.1700 -889.3917 -3656.1864 636.1700 -977.9733 -3932.4685 673.5290 -958.5527 -3937.2475 673.5290 -977.9733 -3932.4685 673.5290 -1047.1353 -4213.5295 709.2330 -958.5527 -3937.2475 673.5290 -958.5527 -3937.2475 673.5290 -1047.1353 -4213.5295 709.2330 -1027.7147 -4218.3085 709.2330 -1047.1353 -4213.5295 709.2330 -1116.2973 -4494.5915 743.2840 -1027.7147 -4218.3085 709.2330 -1027.7147 -4218.3085 709.2330 -1116.2973 -4494.5915 743.2840 -1096.8767 -4499.3705 743.2840 -1116.2973 -4494.5915 743.2840 -1185.4593 -4775.6526 775.6800 -1096.8767 -4499.3705 743.2840 -1096.8767 -4499.3705 743.2840 -1185.4593 -4775.6526 775.6800 -1166.0387 -4780.4314 775.6800 -1185.4593 -4775.6526 775.6800 -1254.6203 -5056.7135 806.4230 -1166.0387 -4780.4314 775.6800 -1166.0387 -4780.4314 775.6800 -1254.6203 -5056.7135 806.4230 -1235.1997 -5061.4925 806.4230 -1254.6203 -5056.7135 806.4230 -1323.7823 -5337.7745 835.5110 -1235.1997 -5061.4925 806.4230 -1235.1997 -5061.4925 806.4230 -1323.7823 -5337.7745 835.5110 -1304.3617 -5342.5535 835.5110 -1323.7823 -5337.7745 835.5110 -1392.9443 -5618.8366 862.9460 -1304.3617 -5342.5535 835.5110 -1304.3617 -5342.5535 835.5110 -1392.9443 -5618.8366 862.9460 -1373.5237 -5623.6154 862.9460 -1392.9443 -5618.8366 862.9460 -1462.1053 -5899.8975 888.7260 -1373.5237 -5623.6154 862.9460 -1373.5237 -5623.6154 862.9460 -1462.1053 -5899.8975 888.7260 -1442.6847 -5904.6765 888.7260 -1462.1053 -5899.8975 888.7260 -1531.2673 -6180.9585 912.8530 -1442.6847 -5904.6765 888.7260 -1442.6847 -5904.6765 888.7260 -1531.2673 -6180.9585 912.8530 -1511.8467 -6185.7375 912.8530 -1531.2673 -6180.9585 912.8530 -1600.4293 -6462.0206 935.3250 -1511.8467 -6185.7375 912.8530 -1511.8467 -6185.7375 912.8530 -1600.4293 -6462.0206 935.3250 -1581.0087 -6466.7994 935.3250 -1600.4293 -6462.0206 935.3250 -1669.5903 -6743.0815 956.1440 -1581.0087 -6466.7994 935.3250 -1581.0087 -6466.7994 935.3250 -1669.5903 -6743.0815 956.1440 -1650.1697 -6747.8605 956.1440 -1669.5903 -6743.0815 956.1440 -1738.7523 -7024.1425 975.3080 -1650.1697 -6747.8605 956.1440 -1650.1697 -6747.8605 956.1440 -1738.7523 -7024.1425 975.3080 -1719.3317 -7028.9215 975.3080 -1738.7523 -7024.1425 975.3080 -1807.9143 -7305.2036 992.8190 -1719.3317 -7028.9215 975.3080 -1719.3317 -7028.9215 975.3080 -1807.9143 -7305.2036 992.8190 -1788.4937 -7309.9824 992.8190 -1807.9143 -7305.2036 992.8190 -1877.0753 -7586.2655 1008.6760 -1788.4937 -7309.9824 992.8190 -1788.4937 -7309.9824 992.8190 -1877.0753 -7586.2655 1008.6760 -1857.6547 -7591.0445 1008.6760 -1877.0753 -7586.2655 1008.6760 -1946.2373 -7867.3265 1022.8790 -1857.6547 -7591.0445 1008.6760 -1857.6547 -7591.0445 1008.6760 -1946.2373 -7867.3265 1022.8790 -1926.8167 -7872.1055 1022.8790 -1946.2373 -7867.3265 1022.8790 -2015.3993 -8148.3876 1035.4270 -1926.8167 -7872.1055 1022.8790 -1926.8167 -7872.1055 1022.8790 -2015.3993 -8148.3876 1035.4270 -1995.9787 -8153.1664 1035.4270 -2015.3993 -8148.3876 1035.4270 -2084.5603 -8429.4495 1046.3220 -1995.9787 -8153.1664 1035.4270 -1995.9787 -8153.1664 1035.4270 -2084.5603 -8429.4495 1046.3220 -2065.1397 -8434.2285 1046.3220 -2084.5603 -8429.4495 1046.3220 -2153.7223 -8710.5105 1055.5630 -2065.1397 -8434.2285 1046.3220 -2065.1397 -8434.2285 1046.3220 -2153.7223 -8710.5105 1055.5630 -2134.3017 -8715.2895 1055.5630 -2153.7223 -8710.5105 1055.5630 -2222.8843 -8991.5716 1063.1500 -2134.3017 -8715.2895 1055.5630 -2134.3017 -8715.2895 1055.5630 -2222.8843 -8991.5716 1063.1500 -2203.4637 -8996.3504 1063.1500 -2222.8843 -8991.5716 1063.1500 -2292.0453 -9272.6325 1069.0820 -2203.4637 -8996.3504 1063.1500 -2203.4637 -8996.3504 1063.1500 -2292.0453 -9272.6325 1069.0820 -2272.6247 -9277.4115 1069.0820 -2292.0453 -9272.6325 1069.0820 -2361.2073 -9553.6945 1073.3610 -2272.6247 -9277.4115 1069.0820 -2272.6247 -9277.4115 1069.0820 -2361.2073 -9553.6945 1073.3610 -2341.7867 -9558.4735 1073.3610 -2361.2073 -9553.6945 1073.3610 -2430.3693 -9834.7556 1075.9860 -2341.7867 -9558.4735 1073.3610 -2341.7867 -9558.4735 1073.3610 -2430.3693 -9834.7556 1075.9860 -2410.9487 -9839.5344 1075.9860 -2430.3693 -9834.7556 1075.9860 -2499.5303 -10115.8165 1076.9570 -2410.9487 -9839.5344 1075.9860 -2410.9487 -9839.5344 1075.9860 -2499.5303 -10115.8165 1076.9570 -2480.1097 -10120.5955 1076.9570 -2499.5303 -10115.8165 1076.9570 -2568.6923 -10396.8785 1076.2740 -2480.1097 -10120.5955 1076.9570 -2480.1097 -10120.5955 1076.9570 -2568.6923 -10396.8785 1076.2740 -2549.2717 -10401.6575 1076.2740 -2568.6923 -10396.8785 1076.2740 -2637.8543 -10677.9396 1073.9370 -2549.2717 -10401.6575 1076.2740 -2549.2717 -10401.6575 1076.2740 -2637.8543 -10677.9396 1073.9370 -2618.4337 -10682.7184 1073.9370 -2637.8543 -10677.9396 1073.9370 -2707.0153 -10959.0005 1069.9460 -2618.4337 -10682.7184 1073.9370 -2618.4337 -10682.7184 1073.9370 -2707.0153 -10959.0005 1069.9460 -2687.5947 -10963.7795 1069.9460 -2707.0153 -10959.0005 1069.9460 -2776.1773 -11240.0615 1064.3010 -2687.5947 -10963.7795 1069.9460 -2687.5947 -10963.7795 1069.9460 -2776.1773 -11240.0615 1064.3010 -2756.7567 -11244.8405 1064.3010 -2776.1773 -11240.0615 1064.3010 -2845.3393 -11521.1236 1057.0020 -2756.7567 -11244.8405 1064.3010 -2756.7567 -11244.8405 1064.3010 -2845.3393 -11521.1236 1057.0020 -2825.9187 -11525.9024 1057.0020 -2845.3393 -11521.1236 1057.0020 -2914.5003 -11802.1845 1048.0490 -2825.9187 -11525.9024 1057.0020 -2825.9187 -11525.9024 1057.0020 -2914.5003 -11802.1845 1048.0490 -2895.0797 -11806.9635 1048.0490 -2914.5003 -11802.1845 1048.0490 -2983.6623 -12083.2455 1037.4420 -2895.0797 -11806.9635 1048.0490 -2895.0797 -11806.9635 1048.0490 -2983.6623 -12083.2455 1037.4420 -2964.2417 -12088.0245 1037.4420 -2983.6623 -12083.2455 1037.4420 -3052.8243 -12364.3075 1025.1810 -2964.2417 -12088.0245 1037.4420 -2964.2417 -12088.0245 1037.4420 -3052.8243 -12364.3075 1025.1810 -3033.4037 -12369.0865 1025.1810 -3052.8243 -12364.3075 1025.1810 -3121.9863 -12645.3686 1011.2660 -3033.4037 -12369.0865 1025.1810 -3033.4037 -12369.0865 1025.1810 -3121.9863 -12645.3686 1011.2660 -3102.5657 -12650.1474 1011.2660 -3121.9863 -12645.3686 1011.2660 -3191.1473 -12926.4295 995.6980 -3102.5657 -12650.1474 1011.2660 -3102.5657 -12650.1474 1011.2660 -3191.1473 -12926.4295 995.6980 -3171.7267 -12931.2085 995.6980 -3191.1473 -12926.4295 995.6980 -3260.3093 -13207.4905 978.4750 -3171.7267 -12931.2085 995.6980 -3171.7267 -12931.2085 995.6980 -3260.3093 -13207.4905 978.4750 -3240.8887 -13212.2695 978.4750 -3260.3093 -13207.4905 978.4750 -3329.4713 -13488.5526 959.5980 -3240.8887 -13212.2695 978.4750 -3240.8887 -13212.2695 978.4750 -3329.4713 -13488.5526 959.5980 -3310.0507 -13493.3314 959.5980 -3329.4713 -13488.5526 959.5980 -3398.6323 -13769.6135 939.0670 -3310.0507 -13493.3314 959.5980 -3310.0507 -13493.3314 959.5980 -3398.6323 -13769.6135 939.0670 -3379.2117 -13774.3925 939.0670 -3398.6323 -13769.6135 939.0670 -3467.7943 -14050.6745 916.8820 -3379.2117 -13774.3925 939.0670 -3379.2117 -13774.3925 939.0670 -3467.7943 -14050.6745 916.8820 -3448.3737 -14055.4535 916.8820 -3467.7943 -14050.6745 916.8820 -3536.9563 -14331.7366 893.0440 -3448.3737 -14055.4535 916.8820 -3448.3737 -14055.4535 916.8820 -3536.9563 -14331.7366 893.0440 -3517.5357 -14336.5154 893.0440 -3536.9563 -14331.7366 893.0440 -3606.1173 -14612.7975 867.5510 -3517.5357 -14336.5154 893.0440 -3517.5357 -14336.5154 893.0440 -3606.1173 -14612.7975 867.5510 -3586.6967 -14617.5765 867.5510 -3606.1173 -14612.7975 867.5510 -3675.2793 -14893.8585 840.4040 -3586.6967 -14617.5765 867.5510 -3586.6967 -14617.5765 867.5510 -3675.2793 -14893.8585 840.4040 -3655.8587 -14898.6375 840.4040 -3675.2793 -14893.8585 840.4040 -3744.4413 -15174.9196 811.6040 -3655.8587 -14898.6375 840.4040 -3655.8587 -14898.6375 840.4040 -3744.4413 -15174.9196 811.6040 -3725.0207 -15179.6984 811.6040 -3744.4413 -15174.9196 811.6040 -3813.6023 -15455.9815 781.1490 -3725.0207 -15179.6984 811.6040 -3725.0207 -15179.6984 811.6040 -3813.6023 -15455.9815 781.1490 -3794.1817 -15460.7605 781.1490 -3813.6023 -15455.9815 781.1490 -3882.7643 -15737.0425 749.0410 -3794.1817 -15460.7605 781.1490 -3794.1817 -15460.7605 781.1490 -3882.7643 -15737.0425 749.0410 -3863.3437 -15741.8215 749.0410</float_array>
          <technique_common>
            <accessor source="#portal_arc_a999-mesh-positions-array" count="336" stride="3">
              <param name="X" type="float"/>
              <param name="Y" type="float"/>
              <param name="Z" type="float"/>
            </accessor>
          </technique_common>
        </source>
        <source id="portal_arc_a999-mesh-normals">
          <float_array id="portal_arc_a999-mesh-normals-array" count="1008">0.0476 0.1935 0.9799 0.0476 0.1935 0.9799 0.0476 0.1935 0.9799 0.0476 0.1935 0.9799 0.0476 0.1935 0.9799 0.0476 0.1935 0.9799 0.0463 0.1883 0.9810 0.0463 0.1883 0.9810 0.0463 0.1883 0.9810 0.0463 0.1883 0.9810 0.0463 0.1883 0.9810 0.0463 0.1883 0.9810 0.0450 0.1830 0.9821 0.0450 0.1830 0.9821 0.0450 0.1830 0.9821 0.0450 0.1830 0.9821 0.0450 0.1830 0.9821 0.0450 0.1830 0.9821 0.0437 0.1778 0.9831 0.0437 0.1778 0.9831 0.0437 0.1778 0.9831 0.0437 0.1778 0.9831 0.0437 0.1778 0.9831 0.0437 0.1778 0.9831 0.0424 0.1725 0.9841 0.0424 0.1725 0.9841 0.0424 0.1725 0.9841 0.0424 0.1725 0.9841 0.0424 0.1725 0.9841 0.0424 0.1725 0.9841 0.0411 0.1672 0.9851 0.0411 0.1672 0.9851 0.0411 0.1672 0.9851 0.0411 0.1672 0.9851 0.0411 0.1672 0.9851 0.0411 0.1672 0.9851 0.0398 0.1619 0.9860 0.0398 0.1619 0.9860 0.0398 0.1619 0.9860 0.0398 0.1619 0.9860 0.0398 0.1619 0.9860 0.0398 0.1619 0.9860 0.0385 0.1565 0.9869 0.0385 0.1565 0.9869 0.0385 0.1565 0.9869 0.0385 0.1565 0.9869 0.0385 0.1565 0.9869 0.0385 0.1565 0.9869 0.0372 0.1512 0.9878 0.0372 0.1512 0.9878 0.0372 0.1512 0.9878 0.0372 0.1512 0.9878 0.0372 0.1512 0.9878 0.0372 0.1512 0.9878 0.0359 0.1459 0.9887 0.0359 0.1459 0.9887 0.0359 0.1459 0.9887 0.0359 0.1459 0.9887 0.0359 0.1459 0.9887 0.0359 0.1459 0.9887 0.0346 0.1405 0.9895 0.0346 0.1405 0.9895 0.0346 0.1405 0.9895 0.0346 0.1405 0.9895 0.0346 0.1405 0.9895 0.0346 0.1405 0.9895 0.0332 0.1351 0.9903 0.0332 0.1351 0.9903 0.0332 0.1351 0.9903 0.0332 0.1351 0.9903 0.0332 0.1351 0.9903 0.0332 0.1351 0.9903 0.0319 0.1297 0.9910 0.0319 0.1297 0.9910 0.0319 0.1297 0.9910 0.0319 0.1297 0.9910 0.0319 0.1297 0.9910 0.0319 0.1297 0.9910 0.0306 0.1243 0.9918 0.0306 0.1243 0.9918 0.0306 0.1243 0.9918 0.0306 0.1243 0.9918 0.0306 0.1243 0.9918 0.0306 0.1243 0.9918 0.0293 0.1189 0.9925 0.0293 0.1189 0.9925 0.0293 0.1189 0.9925 0.0293 0.1189 0.9925 0.0293 0.1189 0.9925 0.0293 0.1189 0.9925 0.0279 0.1135 0.9932 0.0279 0.1135 0.9932 0.0279 0.1135 0.9932 0.0279 0.1135 0.9932 0.0279 0.1135 0.9932 0.0279 0.1135 0.9932 0.0266 0.1080 0.9938 0.0266 0.1080 0.9938 0.0266 0.1080 0.9938 0.0266 0.1080 0.9938 0.0266 0.1080 0.9938 0.0266 0.1080 0.9938 0.0252 0.1026 0.9944 0.0252 0.1026 0.9944 0.0252 0.1026 0.9944 0.0252 0.1026 0.9944 0.0252 0.1026 0.9944 0.0252 0.1026 0.9944 0.0239 0.0971 0.9950 0.0239 0.0971 0.9950 0.0239 0.0971 0.9950 0.0239 0.0971 0.9950 0.0239 0.0971 0.9950 0.0239 0.0971 0.9950 0.0225 0.0916 0.9955 0.0225 0.0916 0.9955 0.0225 0.0916 0.9955 0.0225 0.0916 0.9955 0.0225 0.0916 0.9955 0.0225 0.0916 0.9955 0.0212 0.0861 0.9961 0.0212 0.0861 0.9961 0.0212 0.0861 0.9961 0.0212 0.0861 0.9961 0.0212 0.0861 0.9961 0.0212 0.0861 0.9961 0.0198 0.0807 0.9965 0.0198 0.0807 0.9965 0.0198 0.0807 0.9965 0.0198 0.0807 0.9965 0.0198 0.0807 0.9965 0.0198 0.0807 0.9965 0.0185 0.0752 0.9970 0.0185 0.0752 0.9970 0.0185 0.0752 0.9970 0.0185 0.0752 0.9970 0.0185 0.0752 0.9970 0.0185 0.0752 0.9970 0.0171 0.0697 0.9974 0.0171 0.0697 0.9974 0.0171 0.0697 0.9974 0.0171 0.0697 0.9974 0.0171 0.0697 0.9974 0.0171 0.0697 0.9974 0.0158 0.0642 0.9978 0.0158 0.0642 0.9978 0.0158 0.0642 0.9978 0.0158 0.0642 0.9978 0.0158 0.0642 0.9978 0.0158 0.0642 0.9978 0.0144 0.0586 0.9982 0.0144 0.0586 0.9982 0.0144 0.0586 0.9982 0.0144 0.0586 0.9982 0.0144 0.0586 0.9982 0.0144 0.0586 0.9982 0.0131 0.0531 0.9985 0.0131 0.0531 0.9985 0.0131 0.0531 0.9985 0.0131 0.0531 0.9985 0.0131 0.0531 0.9985 0.0131 0.0531 0.9985 0.0117 0.0476 0.9988 0.0117 0.0476 0.9988 0.0117 0.0476 0.9988 0.0117 0.0476 0.9988 0.0117 0.0476 0.9988 0.0117 0.0476 0.9988 0.0103 0.0421 0.9991 0.0103 0.0421 0.9991 0.0103 0.0421 0.9991 0.0103 0.0421 0.9991 0.0103 0.0421 0.9991 0.0103 0.0421 0.9991 0.0090 0.0365 0.9993 0.0090 0.0365 0.9993 0.0090 0.0365 0.9993 0.0090 0.0365 0.9993 0.0090 0.0365 0.9993 0.0090 0.0365 0.9993 0.0076 0.0310 0.9995 0.0076 0.0310 0.9995 0.0076 0.0310 0.9995 0.0076 0.0310 0.9995 0.0076 0.0310 0.9995 0.0076 0.0310 0.9995 0.0063 0.0254 0.9997 0.0063 0.0254 0.9997 0.0063 0.0254 0.9997 0.0063 0.0254 0.9997 0.0063 0.0254 0.9997 0.0063 0.0254 0.9997 0.0049 0.0199 0.9998 0.0049 0.0199 0.9998 0.0049 0.0199 0.9998 0.0049 0.0199 0.9998 0.0049 0.0199 0.9998 0.0049 0.0199 0.9998 0.0035 0.0144 0.9999 0.0035 0.0144 0.9999 0.0035 0.0144 0.9999 0.0035 0.0144 0.9999 0.0035 0.0144 0.9999 0.0035 0.0144 0.9999 0.0022 0.0088 1.0000 0.0022 0.0088 1.0000 0.0022 0.0088 1.0000 0.0022 0.0088 1.0000 0.0022 0.0088 1.0000 0.0022 0.0088 1.0000 0.0008 0.0033 1.0000 0.0008 0.0033 1.0000 0.0008 0.0033 1.0000 0.0008 0.0033 1.0000 0.0008 0.0033 1.0000 0.0008 0.0033 1.0000 -0.0006 -0.0023 1.0000 -0.0006 -0.0023 1.0000 -0.0006 -0.0023 1.0000 -0.0006 -0.0023 1.0000 -0.0006 -0.0023 1.0000 -0.0006 -0.0023 1.0000 -0.0019 -0.0078 1.0000 -0.0019 -0.0078 1.0000 -0.0019 -0.0078 1.0000 -0.0019 -0.0078 1.0000 -0.0019 -0.0078 1.0000 -0.0019 -0.0078 1.0000 -0.0033 -0.0134 0.9999 -0.0033 -0.0134 0.9999 -0.0033 -0.0134 0.9999 -0.0033 -0.0134 0.9999 -0.0033 -0.0134 0.9999 -0.0033 -0.0134 0.9999 -0.0047 -0.0189 0.9998 -0.0047 -0.0189 0.9998 -0.0047 -0.0189 0.9998 -0.0047 -0.0189 0.9998 -0.0047 -0.0189 0.9998 -0.0047 -0.0189 0.9998 -0.0060 -0.0245 0.9997 -0.0060 -0.0245 0.9997 -0.0060 -0.0245 0.9997 -0.0060 -0.0245 0.9997 -0.0060 -0.0245 0.9997 -0.0060 -0.0245 0.9997 -0.0074 -0.0300 0.9995 -0.0074 -0.0300 0.9995 -0.0074 -0.0300 0.9995 -0.0074 -0.0300 0.9995 -0.0074 -0.0300 0.9995 -0.0074 -0.0300 0.9995 -0.0088 -0.0356 0.9993 -0.0088 -0.0356 0.9993 -0.0088 -0.0356 0.9993 -0.0088 -0.0356 0.9993 -0.0088 -0.0356 0.9993 -0.0088 -0.0356 0.9993 -0.0101 -0.0411 0.9991 -0.0101 -0.0411 0.9991 -0.0101 -0.0411 0.9991 -0.0101 -0.0411 0.9991 -0.0101 -0.0411 0.9991 -0.0101 -0.0411 0.9991 -0.0115 -0.0466 0.9988 -0.0115 -0.0466 0.9988 -0.0115 -0.0466 0.9988 -0.0115 -0.0466 0.9988 -0.0115 -0.0466 0.9988 -0.0115 -0.0466 0.9988 -0.0128 -0.0522 0.9986 -0.0128 -0.0522 0.9986 -0.0128 -0.0522 0.9986 -0.0128 -0.0522 0.9986 -0.0128 -0.0522 0.9986 -0.0128 -0.0522 0.9986 -0.0142 -0.0577 0.9982 -0.0142 -0.0577 0.9982 -0.0142 -0.0577 0.9982 -0.0142 -0.0577 0.9982 -0.0142 -0.0577 0.9982 -0.0142 -0.0577 0.9982 -0.0156 -0.0632 0.9979 -0.0156 -0.0632 0.9979 -0.0156 -0.0632 0.9979 -0.0156 -0.0632 0.9979 -0.0156 -0.0632 0.9979 -0.0156 -0.0632 0.9979 -0.0169 -0.0687 0.9975 -0.0169 -0.0687 0.9975 -0.0169 -0.0687 0.9975 -0.0169 -0.0687 0.9975 -0.0169 -0.0687 0.9975 -0.0169 -0.0687 0.9975 -0.0183 -0.0742 0.9971 -0.0183 -0.0742 0.9971 -0.0183 -0.0742 0.9971 -0.0183 -0.0742 0.9971 -0.0183 -0.0742 0.9971 -0.0183 -0.0742 0.9971 -0.0196 -0.0797 0.9966 -0.0196 -0.0797 0.9966 -0.0196 -0.0797 0.9966 -0.0196 -0.0797 0.9966 -0.0196 -0.0797 0.9966 -0.0196 -0.0797 0.9966 -0.0210 -0.0852 0.9961 -0.0210 -0.0852 0.9961 -0.0210 -0.0852 0.9961 -0.0210 -0.0852 0.9961 -0.0210 -0.0852 0.9961 -0.0210 -0.0852 0.9961 -0.0223 -0.0907 0.9956 -0.0223 -0.0907 0.9956 -0.0223 -0.0907 0.9956 -0.0223 -0.0907 0.9956 -0.0223 -0.0907 0.9956 -0.0223 -0.0907 0.9956 -0.0237 -0.0961 0.9951 -0.0237 -0.0961 0.9951 -0.0237 -0.0961 0.9951 -0.0237 -0.0961 0.9951 -0.0237 -0.0961 0.9951 -0.0237 -0.0961 0.9951 -0.0250 -0.1016 0.9945 -0.0250 -0.1016 0.9945 -0.0250 -0.1016 0.9945 -0.0250 -0.1016 0.9945 -0.0250 -0.1016 0.9945 -0.0250 -0.1016 0.9945 -0.0263 -0.1071 0.9939 -0.0263 -0.1071 0.9939 -0.0263 -0.1071 0.9939 -0.0263 -0.1071 0.9939 -0.0263 -0.1071 0.9939 -0.0263 -0.1071 0.9939</float_array>
          <technique_common>
            <accessor source="#portal_arc_a999-mesh-normals-array" count="336" stride="3">
              <param name="X" type="float"/>
              <param name="Y" type="float"/>
              <param name="Z" type="float"/>
            </accessor>
          </technique_common>
        </source>
        <source id="portal_arc_a999-mesh-map-0">
          <float_array id="portal_arc_a999-mesh-map-0-array" count="672">0 0 0 0 0 0 0 0 0 0 0 0 0 0 0 0 0 0 0 0 0 0 0 0 0 0 0 0 0 0 0 0 0 0 0 0 0 0 0 0 0 0 0 0 0 0 0 0 0 0 0 0 0 0 0 0 0 0 0 0 0 0 0 0 0 0 0 0 0 0 0 0 0 0 0 0 0 0 0 0 0 0 0 0 0 0 0 0 0 0 0 0 0 0 0 0 0 0 0 0 0 0 0 0 0 0 0 0 0 0 0 0 0 0 0 0 0 0 0 0 0 0 0 0 0 0 0 0 0 0 0 0 0 0 0 0 0 0 0 0 0 0 0 0 0 0 0 0 0 0 0 0 0 0 0 0 0 0 0 0 0 0 0 0 0 0 0 0 0 0 0 0 0 0 0 0 0 0 0 0 0 0 0 0 0 0 0 0 0 0 0 0 0 0 0 0 0 0 0 0 0 0 0 0 0 0 0 0 0 0 0 0 0 0 0 0 0 0 0 0 0 0 0 0 0 0 0 0 0 0 0 0 0 0 0 0 0 0 0 0 0 0 0 0 0 0 0 0 0 0 0 0 0 0 0 0 0 0 0 0 0 0 0 0 0 0 0 0 0 0 0 0 0 0 0 0 0 0 0 0 0 0 0 0 0 0 0 0 0 0 0 0 0 0 0 0 0 0 0 0 0 0 0 0 0 0 0 0 0 0 0 0 0 0 0 0 0 0 0 0 0 0 0 0 0 0 0 0 0 0 0 0 0 0 0 0 0 0 0 0 0 0 0 0 0 0 0 0 0 0 0 0 0 0 0 0 0 0 0 0 0 0 0 0 0 0 0 0 0 0 0 0 0 0 0 0 0 0 0 0 0 0 0 0 0 0 0 0 0 0 0 0 0 0 0 0 0 0 0 0 0 0 0 0 0 0 0 0 0 0 0 0 0 0 0 0 0 0 0 0 0 0 0 0 0 0 0 0 0 0 0 0 0 0 0 0 0 0 0 0 0 0 0 0 0 0 0 0 0 0 0 0 0 0 0 0 0 0 0 0 0 0 0 0 0 0 0 0 0 0 0 0 0 0 0 0 0 0 0 0 0 0 0 0 0 0 0 0 0 0 0 0 0 0 0 0 0 0 0 0 0 0 0 0 0 0 0 0 0 0 0 0 0 0 0 0 0 0 0 0 0 0 0 0 0 0 0 0 0 0 0 0 0 0 0 0 0 0 0 0 0 0 0 0 0 0 0 0 0 0 0 0 0 0 0 0 0 0 0 0 0 0 0 0 0 0 0 0 0 0 0 0 0 0 0 0 0 0 0 0 0 0 0 0 0 0 0 0 0 0 0 0 0 0 0 0 0 0 0 0 0 0 0 0 0 0 0 0 0 0 0 0 0 0 0 0 0 0 0 0 0 0 0 0 0 0 0 0 0 0 0 0 0 0 0 0 0 0 0 0 0 0 0 0 0 0 0 0 0 0 0 0 0 0 0 0 0 0 0 0 0 0 0 0 0 0 0 0 0 0 0 0</float_array>
          <technique_common>
            <accessor source="#portal_arc_a999-mesh-map-0-array" count="336" stride="2">
              <param name="S" type="float"/>
              <param name="T" type="float"/>
            </accessor>
          </technique_common>
        </source>
        <vertices id="portal_arc_a999-mesh-vertices">
          <input semantic="POSITION" source="#portal_arc_a999-mesh-positions"/>
        </vertices>
        <triangles material="portal_arc" count="112">
          <input semantic="VERTEX" source="#portal_arc_a999-mesh-vertices" offset="0"/>
          <input semantic="NORMAL" source="#portal_arc_a999-mesh-normals" offset="0"/>
          <input semantic="TEXCOORD" source="#portal_arc_a999-mesh-map-0" offset="0" set="0"/>
          <p>0 1 2 3 4 5 6 7 8 9 10 11 12 13 14 15 16 17 18 19 20 21 22 23 24 25 26 27 28 29 30 31 32 33 34 35 36 37 38 39 40 41 42 43 44 45 46 47 48 49 50 51 52 53 54 55 56 57 58 59 60 61 62 63 64 65 66 67 68 69 70 71 72 73 74 75 76 77 78 79 80 81 82 83 84 85 86 87 88 89 90 91 92 93 94 95 96 97 98 99 100 101 102 103 104 105 106 107 108 109 110 111 112 113 114 115 116 117 118 119 120 121 122 123 124 125 126 127 128 129 130 131 132 133 134 135 136 137 138 139 140 141 142 143 144 145 146 147 148 149 150 151 152 153 154 155 156 157 158 159 160 161 162 163 164 165 166 167 168 169 170 171 172 173 174 175 176 177 178 179 180 181 182 183 184 185 186 187 188 189 190 191 192 193 194 195 196 197 198 199 200 201 202 203 204 205 206 207 208 209 210 211 212 213 214 215 216 217 218 219 220 221 222 223 224 225 226 227 228 229 230 231 232 233 234 235 236 237 238 239 240 241 242 243 244 245 246 247 248 249 250 251 252 253 254 255 256 257 258 259 260 261 262 263 264 265 266 267 268 269 270 271 272 273 274 275 276 277 278 279 280 281 282 283 284 285 286 287 288 289 290 291 292 293 294 295 296 297 298 299 300 301 302 303 304 305 306 307 308 309 310 311 312 313 314 315 316 317 318 319 320 321 322 323 324 325 326 327 328 329 330 331 332 333 334 335</p>
        </triangles>
      </mesh>
    </geometry>
  </library_geometries>
  <library_visual_scenes>
    <visual_scene id="Scene" name="Scene">
      <node id="base00" name="base00" type="NODE">
        <node id="start01" name="start01" type="NODE">
          <node id="portal_arc_a999" name="portal_arc_a999" type="NODE">
            <instance_geometry url="#portal_arc_a999-mesh">
              <bind_material>
                <technique_common>
                  <instance_material symbol="portal_arc" target="#portal_arc-material">
                    <bind_vertex_input semantic="UVSET0" input_semantic="TEXCOORD" input_set="0"/>
                  </instance_material>
                </technique_common>
              </bind_material>
            </instance_geometry>
          </node>
        </node>
      </node>
    </visual_scene>
  </library_visual_scenes>
  <scene>
    <instance_visual_scene url="#Scene"/>
  </scene>
</COLLADA>
