<?xml version="1.0" encoding="utf-8"?>
<COLLADA xmlns="http://www.collada.org/2005/11/COLLADASchema" version="1.4.1">
  <asset>
    <contributor><authoring_tool>beamng_autoroad build_portals</authoring_tool></contributor>
    <unit name="meter" meter="1"/>
    <up_axis>Z_UP</up_axis>
  </asset>
  <library_effects>
    <effect id="portal_arc-effect">
      <profile_COMMON>
        <technique sid="common">
          <lambert>
            <diffuse><color>1.0 0.4 0.28 0.18</color></diffuse>
            <transparent opaque="A_ONE"><color>1 1 1 1</color></transparent>
            <transparency><float>0.82</float></transparency>
          </lambert>
        </technique>
      </profile_COMMON>
    </effect>
  </library_effects>
  <library_materials>
    <material id="portal_arc-material" name="portal_arc">
      <instance_effect url="#portal_arc-effect"/>
    </material>
  </library_materials>
  <library_geometries>
    <geometry id="portal_arc_a999-mesh" name="portal_arc_a999-mesh">
      <mesh>
        <source id="portal_arc_a999-mesh-positions">
          <float_array id="portal_arc_a999-mesh-positions-array" count="1008">-6.2191 7.8309 0.0000 -131.0151 -91.2791 29.4080 6.2191 -7.8309 0.0000 6.2191 -7.8309 0.0000 -131.0151 -91.2791 29.4080 -118.5769 -106.9409 29.4080 -131.0151 -91.2791 29.4080 -255.8121 -190.3891 57.9060 -118.5769 -106.9409 29.4080 -118.5769 -106.9409 29.4080 -255.8121 -190.3891 57.9060 -243.3739 -206.0509 57.9060 -255.8121 -190.3891 57.9060 -380.6081 -289.4991 85.4930 -243.3739 -206.0509 57.9060 -243.3739 -206.0509 57.9060 -380.6081 -289.4991 85.4930 -368.1699 -305.1609 85.4930 -380.6081 -289.4991 85.4930 -505.4051 -388.6091 112.1690 -368.1699 -305.1609 85.4930 -368.1699 -305.1609 85.4930 -505.4051 -388.6091 112.1690 -492.9669 -404.2709 112.1690 -505.4051 -388.6091 112.1690 -630.2011 -487.7191 137.9350 -492.9669 -404.2709 112.1690 -492.9669 -404.2709 112.1690 -630.2011 -487.7191 137.9350 -617.7629 -503.3809 137.9350 -630.2011 -487.7191 137.9350 -754.9970 -586.8291 162.7900 -617.7629 -503.3809 137.9350 -617.7629 -503.3809 137.9350 -754.9970 -586.8291 162.7900 -742.5590 -602.4909 162.7900 -754.9970 -586.8291 162.7900 -879.7941 -685.9381 186.7340 -742.5590 -602.4909 162.7900 -742.5590 -602.4909 162.7900 -879.7941 -685.9381 186.7340 -867.3559 -701.5999 186.7340 -879.7941 -685.9381 186.7340 -1004.5901 -785.0481 209.7680 -867.3559 -701.5999 186.7340 -867.3559 -701.5999 186.7340 -1004.5901 -785.0481 209.7680 -992.1519 -800.7099 209.7680 -1004.5901 -785.0481 209.7680 -1129.3871 -884.1581 231.8910 -992.1519 -800.7099 209.7680 -992.1519 -800.7099 209.7680 -1129.3871 -884.1581 231.8910 -1116.9489 -899.8199 231.8910 -1129.3871 -884.1581 231.8910 -1254.1831 -983.2681 253.1030 -1116.9489 -899.8199 231.8910 -1116.9489 -899.8199 231.8910 -1254.1831 -983.2681 253.1030 -1241.7449 -998.9299 253.1030 -1254.1831 -983.2681 253.1030 -1378.9791 -1082.3781 273.4050 -1241.7449 -998.9299 253.1030 -1241.7449 -998.9299 253.1030 -1378.9791 -1082.3781 273.4050 -1366.5409 -1098.0399 273.4050 -1378.9791 -1082.3781 273.4050 -1503.7761 -1181.4881 292.7960 -1366.5409 -1098.0399 273.4050 -1366.5409 -1098.0399 273.4050 -1503.7761 -1181.4881 292.7960 -1491.3379 -1197.1499 292.7960 -1503.7761 -1181.4881 292.7960 -1628.5721 -1280.5981 311.2770 -1491.3379 -1197.1499 292.7960 -1491.3379 -1197.1499 292.7960 -1628.5721 -1280.5981 311.2770 -1616.1339 -1296.2599 311.2770 -1628.5721 -1280.5981 311.2770 -1753.3681 -1379.7081 328.8460 -1616.1339 -1296.2599 311.2770 -1616.1339 -1296.2599 311.2770 -1753.3681 -1379.7081 328.8460 -1740.9299 -1395.3699 328.8460 -1753.3681 -1379.7081 328.8460 -1878.1651 -1478.8181 345.5050 -1740.9299 -1395.3699 328.8460 -1740.9299 -1395.3699 328.8460 -1878.1651 -1478.8181 345.5050 -1865.7269 -1494.4799 345.5050 -1878.1651 -1478.8181 345.5050 -2002.9611 -1577.9281 361.2540 -1865.7269 -1494.4799 345.5050 -1865.7269 -1494.4799 345.5050 -2002.9611 -1577.9281 361.2540 -1990.5229 -1593.5899 361.2540 -2002.9611 -1577.9281 361.2540 -2127.7581 -1677.0381 376.0920 -1990.5229 -1593.5899 361.2540 -1990.5229 -1593.5899 361.2540 -2127.7581 -1677.0381 376.0920 -2115.3199 -1692.6999 376.0920 -2127.7581 -1677.0381 376.0920 -2252.5541 -1776.1481 390.0190 -2115.3199 -1692.6999 376.0920 -2115.3199 -1692.6999 376.0920 -2252.5541 -1776.1481 390.0190 -2240.1159 -1791.8099 390.0190 -2252.5541 -1776.1481 390.0190 -2377.3501 -1875.2581 403.0350 -2240.1159 -1791.8099 390.0190 -2240.1159 -1791.8099 390.0190 -2377.3501 -1875.2581 403.0350 -2364.9119 -1890.9199 403.0350 -2377.3501 -1875.2581 403.0350 -2502.1471 -1974.3681 415.1410 -2364.9119 -1890.9199 403.0350 -2364.9119 -1890.9199 403.0350 -2502.1471 -1974.3681 415.1410 -2489.7089 -1990.0299 415.1410 -2502.1471 -1974.3681 415.1410 -2626.9431 -2073.4771 426.3370 -2489.7089 -1990.0299 415.1410 -2489.7089 -1990.0299 415.1410 -2626.9431 -2073.4771 426.3370 -2614.5049 -2089.1389 426.3370 -2626.9431 -2073.4771 426.3370 -2751.7401 -2172.5871 436.6210 -2614.5049 -2089.1389 426.3370 -2614.5049 -2089.1389 426.3370 -2751.7401 -2172.5871 436.6210 -2739.3019 -2188.2489 436.6210 -2751.7401 -2172.5871 436.6210 -2876.5361 -2271.6971 445.9950 -2739.3019 -2188.2489 436.6210 -2739.3019 -2188.2489 436.6210 -2876.5361 -2271.6971 445.9950 -2864.0979 -2287.3589 445.9950 -2876.5361 -2271.6971 445.9950 -3001.3321 -2370.8071 454.4580 -2864.0979 -2287.3589 445.9950 -2864.0979 -2287.3589 445.9950 -3001.3321 -2370.8071 454.4580 -2988.8939 -2386.4689 454.4580 -3001.3321 -2370.8071 454.4580 -3126.1291 -2469.9171 462.0110 -2988.8939 -2386.4689 454.4580 -2988.8939 -2386.4689 454.4580 -3126.1291 -2469.9171 462.0110 -3113.6909 -2485.5789 462.0110 -3126.1291 -2469.9171 462.0110 -3250.9251 -2569.0271 468.6530 -3113.6909 -2485.5789 462.0110 -3113.6909 -2485.5789 462.0110 -3250.9251 -2569.0271 468.6530 -3238.4869 -2584.6889 468.6530 -3250.9251 -2569.0271 468.6530 -3375.7221 -2668.1371 474.3840 -3238.4869 -2584.6889 468.6530 -3238.4869 -2584.6889 468.6530 -3375.7221 -2668.1371 474.3840 -3363.2839 -2683.7989 474.3840 -3375.7221 -2668.1371 474.3840 -3500.5181 -2767.2471 479.2050 -3363.2839 -2683.7989 474.3840 -3363.2839 -2683.7989 474.3840 -3500.5181 -2767.2471 479.2050 -3488.0799 -2782.9089 479.2050 -3500.5181 -2767.2471 479.2050 -3625.3141 -2866.3571 483.1150 -3488.0799 -2782.9089 479.2050 -3488.0799 -2782.9089 479.2050 -3625.3141 -2866.3571 483.1150 -3612.8759 -2882.0189 483.1150 -3625.3141 -2866.3571 483.1150 -3750.1111 -2965.4671 486.1140 -3612.8759 -2882.0189 483.1150 -3612.8759 -2882.0189 483.1150 -3750.1111 -2965.4671 486.1140 -3737.6729 -2981.1289 486.1140 -3750.1111 -2965.4671 486.1140 -3874.9071 -3064.5771 488.2030 -3737.6729 -2981.1289 486.1140 -3737.6729 -2981.1289 486.1140 -3874.9071 -3064.5771 488.2030 -3862.4689 -3080.2389 488.2030 -3874.9071 -3064.5771 488.2030 -3999.7041 -3163.6871 489.3810 -3862.4689 -3080.2389 488.2030 -3862.4689 -3080.2389 488.2030 -3999.7041 -3163.6871 489.3810 -3987.2659 -3179.3489 489.3810 -3999.7041 -3163.6871 489.3810 -4124.5001 -3262.7971 489.6480 -3987.2659 -3179.3489 489.3810 -3987.2659 -3179.3489 489.3810 -4124.5001 -3262.7971 489.6480 -4112.0619 -3278.4589 489.6480 -4124.5001 -3262.7971 489.6480 -4249.2960 -3361.9071 489.0050 -4112.0619 -3278.4589 489.6480 -4112.0619 -3278.4589 489.6480 -4249.2960 -3361.9071 489.0050 -4236.8580 -3377.5689 489.0050 -4249.2960 -3361.9071 489.0050 -4374.0931 -3461.0161 487.4510 -4236.8580 -3377.5689 489.0050 -4236.8580 -3377.5689 489.0050 -4374.0931 -3461.0161 487.4510 -4361.6549 -3476.6779 487.4510 -4374.0931 -3461.0161 487.4510 -4498.8891 -3560.1261 484.9870 -4361.6549 -3476.6779 487.4510 -4361.6549 -3476.6779 487.4510 -4498.8891 -3560.1261 484.9870 -4486.4509 -3575.7879 484.9870 -4498.8891 -3560.1261 484.9870 -4623.6861 -3659.2361 481.6110 -4486.4509 -3575.7879 484.9870 -4486.4509 -3575.7879 484.9870 -4623.6861 -3659.2361 481.6110 -4611.2479 -3674.8979 481.6110 -4623.6861 -3659.2361 481.6110 -4748.4821 -3758.3461 477.3260 -4611.2479 -3674.8979 481.6110 -4611.2479 -3674.8979 481.6110 -4748.4821 -3758.3461 477.3260 -4736.0439 -3774.0079 477.3260 -4748.4821 -3758.3461 477.3260 -4873.2781 -3857.4561 472.1290 -4736.0439 -3774.0079 477.3260 -4736.0439 -3774.0079 477.3260 -4873.2781 -3857.4561 472.1290 -4860.8399 -3873.1179 472.1290 -4873.2781 -3857.4561 472.1290 -4998.0751 -3956.5661 466.0220 -4860.8399 -3873.1179 472.1290 -4860.8399 -3873.1179 472.1290 -4998.0751 -3956.5661 466.0220 -4985.6369 -3972.2279 466.0220 -4998.0751 -3956.5661 466.0220 -5122.8711 -4055.6761 459.0040 -4985.6369 -3972.2279 466.0220 -4985.6369 -3972.2279 466.0220 -5122.8711 -4055.6761 459.0040 -5110.4329 -4071.3379 459.0040 -5122.8711 -4055.6761 459.0040 -5247.6671 -4154.7861 451.0760 -5110.4329 -4071.3379 459.0040 -5110.4329 -4071.3379 459.0040 -5247.6671 -4154.7861 451.0760 -5235.2289 -4170.4479 451.0760 -5247.6671 -4154.7861 451.0760 -5372.4641 -4253.8961 442.2360 -5235.2289 -4170.4479 451.0760 -5235.2289 -4170.4479 451.0760 -5372.4641 -4253.8961 442.2360 -5360.0259 -4269.5579 442.2360 -5372.4641 -4253.8961 442.2360 -5497.2601 -4353.0061 432.4870 -5360.0259 -4269.5579 442.2360 -5360.0259 -4269.5579 442.2360 -5497.2601 -4353.0061 432.4870 -5484.8219 -4368.6679 432.4870 -5497.2601 -4353.0061 432.4870 -5622.0571 -4452.1161 421.8260 -5484.8219 -4368.6679 432.4870 -5484.8219 -4368.6679 432.4870 -5622.0571 -4452.1161 421.8260 -5609.6189 -4467.7779 421.8260 -5622.0571 -4452.1161 421.8260 -5746.8531 -4551.2261 410.2550 -5609.6189 -4467.7779 421.8260 -5609.6189 -4467.7779 421.8260 -5746.8531 -4551.2261 410.2550 -5734.4149 -4566.8879 410.2550 -5746.8531 -4551.2261 410.2550 -5871.6491 -4650.3361 397.7730 -5734.4149 -4566.8879 410.2550 -5734.4149 -4566.8879 410.2550 -5871.6491 -4650.3361 397.7730 -5859.2109 -4665.9979 397.7730 -5871.6491 -4650.3361 397.7730 -5996.4461 -4749.4461 384.3810 -5859.2109 -4665.9979 397.7730 -5859.2109 -4665.9979 397.7730 -5996.4461 -4749.4461 384.3810 -5984.0079 -4765.1079 384.3810 -5996.4461 -4749.4461 384.3810 -6121.2421 -4848.5551 370.0780 -5984.0079 -4765.1079 384.3810 -5984.0079 -4765.1079 384.3810 -6121.2421 -4848.5551 370.0780 -6108.8039 -4864.2169 370.0780 -6121.2421 -4848.5551 370.0780 -6246.0391 -4947.6651 354.8640 -6108.8039 -4864.2169 370.0780 -6108.8039 -4864.2169 370.0780 -6246.0391 -4947.6651 354.8640 -6233.6009 -4963.3269 354.8640 -6246.0391 -4947.6651 354.8640 -6370.8351 -5046.7751 338.7400 -6233.6009 -4963.3269 354.8640 -6233.6009 -4963.3269 354.8640 -6370.8351 -5046.7751 338.7400 -6358.3969 -5062.4369 338.7400 -6370.8351 -5046.7751 338.7400 -6495.6311 -5145.8851 321.7050 -6358.3969 -5062.4369 338.7400 -6358.3969 -5062.4369 338.7400 -6495.6311 -5145.8851 321.7050 -6483.1929 -5161.5469 321.7050 -6495.6311 -5145.8851 321.7050 -6620.4281 -5244.9951 303.7590 -6483.1929 -5161.5469 321.7050 -6483.1929 -5161.5469 321.7050 -6620.4281 -5244.9951 303.7590 -6607.9899 -5260.6569 303.7590 -6620.4281 -5244.9951 303.7590 -6745.2241 -5344.1051 284.9030 -6607.9899 -5260.6569 303.7590 -6607.9899 -5260.6569 303.7590 -6745.2241 -5344.1051 284.9030 -6732.7859 -5359.7669 284.9030 -6745.2241 -5344.1051 284.9030 -6870.0211 -5443.2151 265.1360 -6732.7859 -5359.7669 284.9030 -6732.7859 -5359.7669 284.9030 -6870.0211 -5443.2151 265.1360 -6857.5829 -5458.8769 265.1360 -6870.0211 -5443.2151 265.1360 -6994.8171 -5542.3251 244.4590 -6857.5829 -5458.8769 265.1360 -6857.5829 -5458.8769 265.1360 -6994.8171 -5542.3251 244.4590 -6982.3789 -5557.9869 244.4590</float_array>
          <technique_common>
            <accessor source="#portal_arc_a999-mesh-positions-array" count="336" stride="3">
              <param name="X" type="float"/>
              <param name="Y" type="float"/>
              <param name="Z" type="float"/>
            </accessor>
          </technique_common>
        </source>
        <source id="portal_arc_a999-mesh-normals">
          <float_array id="portal_arc_a999-mesh-normals-array" count="1008">0.1421 0.1129 0.9834 0.1421 0.1129 0.9834 0.1421 0.1129 0.9834 0.1421 0.1129 0.9834 0.1421 0.1129 0.9834 0.1421 0.1129 0.9834 0.1378 0.1095 0.9844 0.1378 0.1095 0.9844 0.1378 0.1095 0.9844 0.1378 0.1095 0.9844 0.1378 0.1095 0.9844 0.1378 0.1095 0.9844 0.1336 0.1061 0.9853 0.1336 0.1061 0.9853 0.1336 0.1061 0.9853 0.1336 0.1061 0.9853 0.1336 0.1061 0.9853 0.1336 0.1061 0.9853 0.1293 0.1027 0.9863 0.1293 0.1027 0.9863 0.1293 0.1027 0.9863 0.1293 0.1027 0.9863 0.1293 0.1027 0.9863 0.1293 0.1027 0.9863 0.1250 0.0993 0.9872 0.1250 0.0993 0.9872 0.1250 0.0993 0.9872 0.1250 0.0993 0.9872 0.1250 0.0993 0.9872 0.1250 0.0993 0.9872 0.1207 0.0958 0.9881 0.1207 0.0958 0.9881 0.1207 0.0958 0.9881 0.1207 0.0958 0.9881 0.1207 0.0958 0.9881 0.1207 0.0958 0.9881 0.1164 0.0924 0.9889 0.1164 0.0924 0.9889 0.1164 0.0924 0.9889 0.1164 0.0924 0.9889 0.1164 0.0924 0.9889 0.1164 0.0924 0.9889 0.1120 0.0890 0.9897 0.1120 0.0890 0.9897 0.1120 0.0890 0.9897 0.1120 0.0890 0.9897 0.1120 0.0890 0.9897 0.1120 0.0890 0.9897 0.1077 0.0855 0.9905 0.1077 0.0855 0.9905 0.1077 0.0855 0.9905 0.1077 0.0855 0.9905 0.1077 0.0855 0.9905 0.1077 0.0855 0.9905 0.1033 0.0821 0.9913 0.1033 0.0821 0.9913 0.1033 0.0821 0.9913 0.1033 0.0821 0.9913 0.1033 0.0821 0.9913 0.1033 0.0821 0.9913 0.0990 0.0786 0.9920 0.0990 0.0786 0.9920 0.0990 0.0786 0.9920 0.0990 0.0786 0.9920 0.0990 0.0786 0.9920 0.0990 0.0786 0.9920 0.0946 0.0751 0.9927 0.0946 0.0751 0.9927 0.0946 0.0751 0.9927 0.0946 0.0751 0.9927 0.0946 0.0751 0.9927 0.0946 0.0751 0.9927 0.0902 0.0716 0.9933 0.0902 0.0716 0.9933 0.0902 0.0716 0.9933 0.0902 0.0716 0.9933 0.0902 0.0716 0.9933 0.0902 0.0716 0.9933 0.0858 0.0681 0.9940 0.0858 0.0681 0.9940 0.0858 0.0681 0.9940 0.0858 0.0681 0.9940 0.0858 0.0681 0.9940 0.0858 0.0681 0.9940 0.0814 0.0647 0.9946 0.0814 0.0647 0.9946 0.0814 0.0647 0.9946 0.0814 0.0647 0.9946 0.0814 0.0647 0.9946 0.0814 0.0647 0.9946 0.0770 0.0612 0.9952 0.0770 0.0612 0.9952 0.0770 0.0612 0.9952 0.0770 0.0612 0.9952 0.0770 0.0612 0.9952 0.0770 0.0612 0.9952 0.0726 0.0577 0.9957 0.0726 0.0577 0.9957 0.0726 0.0577 0.9957 0.0726 0.0577 0.9957 0.0726 0.0577 0.9957 0.0726 0.0577 0.9957 0.0682 0.0541 0.9962 0.0682 0.0541 0.9962 0.0682 0.0541 0.9962 0.0682 0.0541 0.9962 0.0682 0.0541 0.9962 0.0682 0.0541 0.9962 0.0637 0.0506 0.9967 0.0637 0.0506 0.9967 0.0637 0.0506 0.9967 0.0637 0.0506 0.9967 0.0637 0.0506 0.9967 0.0637 0.0506 0.9967 0.0593 0.0471 0.9971 0.0593 0.0471 0.9971 0.0593 0.0471 0.9971 0.0593 0.0471 0.9971 0.0593 0.0471 0.9971 0.0593 0.0471 0.9971 0.0549 0.0436 0.9975 0.0549 0.0436 0.9975 0.0549 0.0436 0.9975 0.0549 0.0436 0.9975 0.0549 0.0436 0.9975 0.0549 0.0436 0.9975 0.0504 0.0400 0.9979 0.0504 0.0400 0.9979 0.0504 0.0400 0.9979 0.0504 0.0400 0.9979 0.0504 0.0400 0.9979 0.0504 0.0400 0.9979 0.0460 0.0365 0.9983 0.0460 0.0365 0.9983 0.0460 0.0365 0.9983 0.0460 0.0365 0.9983 0.0460 0.0365 0.9983 0.0460 0.0365 0.9983 0.0415 0.0330 0.9986 0.0415 0.0330 0.9986 0.0415 0.0330 0.9986 0.0415 0.0330 0.9986 0.0415 0.0330 0.9986 0.0415 0.0330 0.9986 0.0371 0.0294 0.9989 0.0371 0.0294 0.9989 0.0371 0.0294 0.9989 0.0371 0.0294 0.9989 0.0371 0.0294 0.9989 0.0371 0.0294 0.9989 0.0326 0.0259 0.9991 0.0326 0.0259 0.9991 0.0326 0.0259 0.9991 0.0326 0.0259 0.9991 0.0326 0.0259 0.9991 0.0326 0.0259 0.9991 0.0281 0.0224 0.9994 0.0281 0.0224 0.9994 0.0281 0.0224 0.9994 0.0281 0.0224 0.9994 0.0281 0.0224 0.9994 0.0281 0.0224 0.9994 0.0237 0.0188 0.9995 0.0237 0.0188 0.9995 0.0237 0.0188 0.9995 0.0237 0.0188 0.9995 0.0237 0.0188 0.9995 0.0237 0.0188 0.9995 0.0192 0.0153 0.9997 0.0192 0.0153 0.9997 0.0192 0.0153 0.9997 0.0192 0.0153 0.9997 0.0192 0.0153 0.9997 0.0192 0.0153 0.9997 0.0147 0.0117 0.9998 0.0147 0.0117 0.9998 0.0147 0.0117 0.9998 0.0147 0.0117 0.9998 0.0147 0.0117 0.9998 0.0147 0.0117 0.9998 0.0103 0.0082 0.9999 0.0103 0.0082 0.9999 0.0103 0.0082 0.9999 0.0103 0.0082 0.9999 0.0103 0.0082 0.9999 0.0103 0.0082 0.9999 0.0058 0.0046 1.0000 0.0058 0.0046 1.0000 0.0058 0.0046 1.0000 0.0058 0.0046 1.0000 0.0058 0.0046 1.0000 0.0058 0.0046 1.0000 0.0013 0.0010 1.0000 0.0013 0.0010 1.0000 0.0013 0.0010 1.0000 0.0013 0.0010 1.0000 0.0013 0.0010 1.0000 0.0013 0.0010 1.0000 -0.0032 -0.0025 1.0000 -0.0032 -0.0025 1.0000 -0.0032 -0.0025 1.0000 -0.0032 -0.0025 1.0000 -0.0032 -0.0025 1.0000 -0.0032 -0.0025 1.0000 -0.0076 -0.0061 1.0000 -0.0076 -0.0061 1.0000 -0.0076 -0.0061 1.0000 -0.0076 -0.0061 1.0000 -0.0076 -0.0061 1.0000 -0.0076 -0.0061 1.0000 -0.0121 -0.0096 0.9999 -0.0121 -0.0096 0.9999 -0.0121 -0.0096 0.9999 -0.0121 -0.0096 0.9999 -0.0121 -0.0096 0.9999 -0.0121 -0.0096 0.9999 -0.0166 -0.0132 0.9998 -0.0166 -0.0132 0.9998 -0.0166 -0.0132 0.9998 -0.0166 -0.0132 0.9998 -0.0166 -0.0132 0.9998 -0.0166 -0.0132 0.9998 -0.0210 -0.0167 0.9996 -0.0210 -0.0167 0.9996 -0.0210 -0.0167 0.9996 -0.0210 -0.0167 0.9996 -0.0210 -0.0167 0.9996 -0.0210 -0.0167 0.9996 -0.0255 -0.0203 0.9995 -0.0255 -0.0203 0.9995 -0.0255 -0.0203 0.9995 -0.0255 -0.0203 0.9995 -0.0255 -0.0203 0.9995 -0.0255 -0.0203 0.9995 -0.0300 -0.0238 0.9993 -0.0300 -0.0238 0.9993 -0.0300 -0.0238 0.9993 -0.0300 -0.0238 0.9993 -0.0300 -0.0238 0.9993 -0.0300 -0.0238 0.9993 -0.0345 -0.0274 0.9990 -0.0345 -0.0274 0.9990 -0.0345 -0.0274 0.9990 -0.0345 -0.0274 0.9990 -0.0345 -0.0274 0.9990 -0.0345 -0.0274 0.9990 -0.0389 -0.0309 0.9988 -0.0389 -0.0309 0.9988 -0.0389 -0.0309 0.9988 -0.0389 -0.0309 0.9988 -0.0389 -0.0309 0.9988 -0.0389 -0.0309 0.9988 -0.0434 -0.0344 0.9985 -0.0434 -0.0344 0.9985 -0.0434 -0.0344 0.9985 -0.0434 -0.0344 0.9985 -0.0434 -0.0344 0.9985 -0.0434 -0.0344 0.9985 -0.0478 -0.0380 0.9981 -0.0478 -0.0380 0.9981 -0.0478 -0.0380 0.9981 -0.0478 -0.0380 0.9981 -0.0478 -0.0380 0.9981 -0.0478 -0.0380 0.9981 -0.0523 -0.0415 0.9978 -0.0523 -0.0415 0.9978 -0.0523 -0.0415 0.9978 -0.0523 -0.0415 0.9978 -0.0523 -0.0415 0.9978 -0.0523 -0.0415 0.9978 -0.0567 -0.0450 0.9974 -0.0567 -0.0450 0.9974 -0.0567 -0.0450 0.9974 -0.0567 -0.0450 0.9974 -0.0567 -0.0450 0.9974 -0.0567 -0.0450 0.9974 -0.0611 -0.0486 0.9969 -0.0611 -0.0486 0.9969 -0.0611 -0.0486 0.9969 -0.0611 -0.0486 0.9969 -0.0611 -0.0486 0.9969 -0.0611 -0.0486 0.9969 -0.0656 -0.0521 0.9965 -0.0656 -0.0521 0.9965 -0.0656 -0.0521 0.9965 -0.0656 -0.0521 0.9965 -0.0656 -0.0521 0.9965 -0.0656 -0.0521 0.9965 -0.0700 -0.0556 0.9960 -0.0700 -0.0556 0.9960 -0.0700 -0.0556 0.9960 -0.0700 -0.0556 0.9960 -0.0700 -0.0556 0.9960 -0.0700 -0.0556 0.9960 -0.0744 -0.0591 0.9955 -0.0744 -0.0591 0.9955 -0.0744 -0.0591 0.9955 -0.0744 -0.0591 0.9955 -0.0744 -0.0591 0.9955 -0.0744 -0.0591 0.9955 -0.0788 -0.0626 0.9949 -0.0788 -0.0626 0.9949 -0.0788 -0.0626 0.9949 -0.0788 -0.0626 0.9949 -0.0788 -0.0626 0.9949 -0.0788 -0.0626 0.9949 -0.0832 -0.0661 0.9943 -0.0832 -0.0661 0.9943 -0.0832 -0.0661 0.9943 -0.0832 -0.0661 0.9943 -0.0832 -0.0661 0.9943 -0.0832 -0.0661 0.9943 -0.0876 -0.0696 0.9937 -0.0876 -0.0696 0.9937 -0.0876 -0.0696 0.9937 -0.0876 -0.0696 0.9937 -0.0876 -0.0696 0.9937 -0.0876 -0.0696 0.9937 -0.0920 -0.0731 0.9931 -0.0920 -0.0731 0.9931 -0.0920 -0.0731 0.9931 -0.0920 -0.0731 0.9931 -0.0920 -0.0731 0.9931 -0.0920 -0.0731 0.9931 -0.0964 -0.0766 0.9924 -0.0964 -0.0766 0.9924 -0.0964 -0.0766 0.9924 -0.0964 -0.0766 0.9924 -0.0964 -0.0766 0.9924 -0.0964 -0.0766 0.9924 -0.1008 -0.0800 0.9917 -0.1008 -0.0800 0.9917 -0.1008 -0.0800 0.9917 -0.1008 -0.0800 0.9917 -0.1008 -0.0800 0.9917 -0.1008 -0.0800 0.9917</float_array>
          <technique_common>
            <accessor source="#portal_arc_a999-mesh-normals-array" count="336" stride="3">
              <param name="X" type="float"/>
              <param name="Y" type="float"/>
              <param name="Z" type="float"/>
            </accessor>
          </technique_common>
        </source>
        <source id="portal_arc_a999-mesh-map-0">
          <float_array id="portal_arc_a999-mesh-map-0-array" count="672">0 0 0 0 0 0 0 0 0 0 0 0 0 0 0 0 0 0 0 0 0 0 0 0 0 0 0 0 0 0 0 0 0 0 0 0 0 0 0 0 0 0 0 0 0 0 0 0 0 0 0 0 0 0 0 0 0 0 0 0 0 0 0 0 0 0 0 0 0 0 0 0 0 0 0 0 0 0 0 0 0 0 0 0 0 0 0 0 0 0 0 0 0 0 0 0 0 0 0 0 0 0 0 0 0 0 0 0 0 0 0 0 0 0 0 0 0 0 0 0 0 0 0 0 0 0 0 0 0 0 0 0 0 0 0 0 0 0 0 0 0 0 0 0 0 0 0 0 0 0 0 0 0 0 0 0 0 0 0 0 0 0 0 0 0 0 0 0 0 0 0 0 0 0 0 0 0 0 0 0 0 0 0 0 0 0 0 0 0 0 0 0 0 0 0 0 0 0 0 0 0 0 0 0 0 0 0 0 0 0 0 0 0 0 0 0 0 0 0 0 0 0 0 0 0 0 0 0 0 0 0 0 0 0 0 0 0 0 0 0 0 0 0 0 0 0 0 0 0 0 0 0 0 0 0 0 0 0 0 0 0 0 0 0 0 0 0 0 0 0 0 0 0 0 0 0 0 0 0 0 0 0 0 0 0 0 0 0 0 0 0 0 0 0 0 0 0 0 0 0 0 0 0 0 0 0 0 0 0 0 0 0 0 0 0 0 0 0 0 0 0 0 0 0 0 0 0 0 0 0 0 0 0 0 0 0 0 0 0 0 0 0 0 0 0 0 0 0 0 0 0 0 0 0 0 0 0 0 0 0 0 0 0 0 0 0 0 0 0 0 0 0 0 0 0 0 0 0 0 0 0 0 0 0 0 0 0 0 0 0 0 0 0 0 0 0 0 0 0 0 0 0 0 0 0 0 0 0 0 0 0 0 0 0 0 0 0 0 0 0 0 0 0 0 0 0 0 0 0 0 0 0 0 0 0 0 0 0 0 0 0 0 0 0 0 0 0 0 0 0 0 0 0 0 0 0 0 0 0 0 0 0 0 0 0 0 0 0 0 0 0 0 0 0 0 0 0 0 0 0 0 0 0 0 0 0 0 0 0 0 0 0 0 0 0 0 0 0 0 0 0 0 0 0 0 0 0 0 0 0 0 0 0 0 0 0 0 0 0 0 0 0 0 0 0 0 0 0 0 0 0 0 0 0 0 0 0 0 0 0 0 0 0 0 0 0 0 0 0 0 0 0 0 0 0 0 0 0 0 0 0 0 0 0 0 0 0 0 0 0 0 0 0 0 0 0 0 0 0 0 0 0 0 0 0 0 0 0 0 0 0 0 0 0 0 0 0 0 0 0 0 0 0 0 0 0 0 0 0 0 0 0 0 0 0 0 0 0 0 0 0 0 0 0 0 0 0 0 0 0 0 0 0 0 0 0 0 0 0 0 0 0 0 0 0 0 0 0 0 0 0 0 0 0 0 0 0 0 0 0 0 0 0 0 0 0 0 0 0 0 0 0</float_array>
          <technique_common>
            <accessor source="#portal_arc_a999-mesh-map-0-array" count="336" stride="2">
              <param name="S" type="float"/>
              <param name="T" type="float"/>
            </accessor>
          </technique_common>
        </source>
        <vertices id="portal_arc_a999-mesh-vertices">
          <input semantic="POSITION" source="#portal_arc_a999-mesh-positions"/>
        </vertices>
        <triangles material="portal_arc" count="112">
          <input semantic="VERTEX" source="#portal_arc_a999-mesh-vertices" offset="0"/>
          <input semantic="NORMAL" source="#portal_arc_a999-mesh-normals" offset="0"/>
          <input semantic="TEXCOORD" source="#portal_arc_a999-mesh-map-0" offset="0" set="0"/>
          <p>0 1 2 3 4 5 6 7 8 9 10 11 12 13 14 15 16 17 18 19 20 21 22 23 24 25 26 27 28 29 30 31 32 33 34 35 36 37 38 39 40 41 42 43 44 45 46 47 48 49 50 51 52 53 54 55 56 57 58 59 60 61 62 63 64 65 66 67 68 69 70 71 72 73 74 75 76 77 78 79 80 81 82 83 84 85 86 87 88 89 90 91 92 93 94 95 96 97 98 99 100 101 102 103 104 105 106 107 108 109 110 111 112 113 114 115 116 117 118 119 120 121 122 123 124 125 126 127 128 129 130 131 132 133 134 135 136 137 138 139 140 141 142 143 144 145 146 147 148 149 150 151 152 153 154 155 156 157 158 159 160 161 162 163 164 165 166 167 168 169 170 171 172 173 174 175 176 177 178 179 180 181 182 183 184 185 186 187 188 189 190 191 192 193 194 195 196 197 198 199 200 201 202 203 204 205 206 207 208 209 210 211 212 213 214 215 216 217 218 219 220 221 222 223 224 225 226 227 228 229 230 231 232 233 234 235 236 237 238 239 240 241 242 243 244 245 246 247 248 249 250 251 252 253 254 255 256 257 258 259 260 261 262 263 264 265 266 267 268 269 270 271 272 273 274 275 276 277 278 279 280 281 282 283 284 285 286 287 288 289 290 291 292 293 294 295 296 297 298 299 300 301 302 303 304 305 306 307 308 309 310 311 312 313 314 315 316 317 318 319 320 321 322 323 324 325 326 327 328 329 330 331 332 333 334 335</p>
        </triangles>
      </mesh>
    </geometry>
  </library_geometries>
  <library_visual_scenes>
    <visual_scene id="Scene" name="Scene">
      <node id="base00" name="base00" type="NODE">
        <node id="start01" name="start01" type="NODE">
          <node id="portal_arc_a999" name="portal_arc_a999" type="NODE">
            <instance_geometry url="#portal_arc_a999-mesh">
              <bind_material>
                <technique_common>
                  <instance_material symbol="portal_arc" target="#portal_arc-material">
                    <bind_vertex_input semantic="UVSET0" input_semantic="TEXCOORD" input_set="0"/>
                  </instance_material>
                </technique_common>
              </bind_material>
            </instance_geometry>
          </node>
        </node>
      </node>
    </visual_scene>
  </library_visual_scenes>
  <scene>
    <instance_visual_scene url="#Scene"/>
  </scene>
</COLLADA>
