<?xml version="1.0" encoding="utf-8"?>
<COLLADA xmlns="http://www.collada.org/2005/11/COLLADASchema" version="1.4.1">
  <asset>
    <contributor><authoring_tool>beamng_autoroad build_portals</authoring_tool></contributor>
    <unit name="meter" meter="1"/>
    <up_axis>Z_UP</up_axis>
  </asset>
  <library_effects>
    <effect id="portal_arc-effect">
      <profile_COMMON>
        <technique sid="common">
          <lambert>
            <diffuse><color>1.0 0.4 0.28 0.18</color></diffuse>
            <transparent opaque="A_ONE"><color>1 1 1 1</color></transparent>
            <transparency><float>0.82</float></transparency>
          </lambert>
        </technique>
      </profile_COMMON>
    </effect>
  </library_effects>
  <library_materials>
    <material id="portal_arc-material" name="portal_arc">
      <instance_effect url="#portal_arc-effect"/>
    </material>
  </library_materials>
  <library_geometries>
    <geometry id="portal_arc_a999-mesh" name="portal_arc_a999-mesh">
      <mesh>
        <source id="portal_arc_a999-mesh-positions">
          <float_array id="portal_arc_a999-mesh-positions-array" count="1008">4.3412 -9.0085 0.0000 292.8132 130.0064 218.4760 -4.3412 9.0085 0.0000 -4.3412 9.0085 0.0000 292.8132 130.0064 218.4760 284.1308 148.0236 218.4760 292.8132 130.0064 218.4760 581.2862 269.0205 429.6330 284.1308 148.0236 218.4760 284.1308 148.0236 218.4760 581.2862 269.0205 429.6330 572.6038 287.0375 429.6330 581.2862 269.0205 429.6330 869.7582 408.0354 633.4710 572.6038 287.0375 429.6330 572.6038 287.0375 429.6330 869.7582 408.0354 633.4710 861.0758 426.0526 633.4710 869.7582 408.0354 633.4710 1158.2312 547.0495 829.9890 861.0758 426.0526 633.4710 861.0758 426.0526 633.4710 1158.2312 547.0495 829.9890 1149.5488 565.0665 829.9890 1158.2312 547.0495 829.9890 1446.7032 686.0644 1019.1880 1149.5488 565.0665 829.9890 1149.5488 565.0665 829.9890 1446.7032 686.0644 1019.1880 1438.0208 704.0816 1019.1880 1446.7032 686.0644 1019.1880 1735.1762 825.0785 1201.0670 1438.0208 704.0816 1019.1880 1438.0208 704.0816 1019.1880 1735.1762 825.0785 1201.0670 1726.4938 843.0955 1201.0670 1735.1762 825.0785 1201.0670 2023.6482 964.0934 1375.6280 1726.4938 843.0955 1201.0670 1726.4938 843.0955 1201.0670 2023.6482 964.0934 1375.6280 2014.9658 982.1106 1375.6280 2023.6482 964.0934 1375.6280 2312.1212 1103.1075 1542.8690 2014.9658 982.1106 1375.6280 2014.9658 982.1106 1375.6280 2312.1212 1103.1075 1542.8690 2303.4388 1121.1245 1542.8690 2312.1212 1103.1075 1542.8690 2600.5932 1242.1224 1702.7900 2303.4388 1121.1245 1542.8690 2303.4388 1121.1245 1542.8690 2600.5932 1242.1224 1702.7900 2591.9108 1260.1396 1702.7900 2600.5932 1242.1224 1702.7900 2889.0662 1381.1365 1855.3920 2591.9108 1260.1396 1702.7900 2591.9108 1260.1396 1702.7900 2889.0662 1381.1365 1855.3920 2880.3838 1399.1535 1855.3920 2889.0662 1381.1365 1855.3920 3177.5382 1520.1514 2000.6750 2880.3838 1399.1535 1855.3920 2880.3838 1399.1535 1855.3920 3177.5382 1520.1514 2000.6750 3168.8558 1538.1686 2000.6750 3177.5382 1520.1514 2000.6750 3466.0112 1659.1655 2138.6390 3168.8558 1538.1686 2000.6750 3168.8558 1538.1686 2000.6750 3466.0112 1659.1655 2138.6390 3457.3288 1677.1825 2138.6390 3466.0112 1659.1655 2138.6390 3754.4832 1798.1804 2269.2830 3457.3288 1677.1825 2138.6390 3457.3288 1677.1825 2138.6390 3754.4832 1798.1804 2269.2830 3745.8008 1816.1976 2269.2830 3754.4832 1798.1804 2269.2830 4042.9562 1937.1945 2392.6080 3745.8008 1816.1976 2269.2830 3745.8008 1816.1976 2269.2830 4042.9562 1937.1945 2392.6080 4034.2738 1955.2115 2392.6080 4042.9562 1937.1945 2392.6080 4331.4282 2076.2094 2508.6130 4034.2738 1955.2115 2392.6080 4034.2738 1955.2115 2392.6080 4331.4282 2076.2094 2508.6130 4322.7458 2094.2266 2508.6130 4331.4282 2076.2094 2508.6130 4619.9002 2215.2235 2617.3000 4322.7458 2094.2266 2508.6130 4322.7458 2094.2266 2508.6130 4619.9002 2215.2235 2617.3000 4611.2178 2233.2405 2617.3000 4619.9002 2215.2235 2617.3000 4908.3732 2354.2384 2718.6670 4611.2178 2233.2405 2617.3000 4611.2178 2233.2405 2617.3000 4908.3732 2354.2384 2718.6670 4899.6908 2372.2556 2718.6670 4908.3732 2354.2384 2718.6670 5196.8452 2493.2525 2812.7140 4899.6908 2372.2556 2718.6670 4899.6908 2372.2556 2718.6670 5196.8452 2493.2525 2812.7140 5188.1628 2511.2695 2812.7140 5196.8452 2493.2525 2812.7140 5485.3182 2632.2674 2899.4420 5188.1628 2511.2695 2812.7140 5188.1628 2511.2695 2812.7140 5485.3182 2632.2674 2899.4420 5476.6358 2650.2846 2899.4420 5485.3182 2632.2674 2899.4420 5773.7902 2771.2815 2978.8510 5476.6358 2650.2846 2899.4420 5476.6358 2650.2846 2899.4420 5773.7902 2771.2815 2978.8510 5765.1078 2789.2985 2978.8510 5773.7902 2771.2815 2978.8510 6062.2632 2910.2964 3050.9410 5765.1078 2789.2985 2978.8510 5765.1078 2789.2985 2978.8510 6062.2632 2910.2964 3050.9410 6053.5808 2928.3136 3050.9410 6062.2632 2910.2964 3050.9410 6350.7352 3049.3105 3115.7110 6053.5808 2928.3136 3050.9410 6053.5808 2928.3136 3050.9410 6350.7352 3049.3105 3115.7110 6342.0528 3067.3275 3115.7110 6350.7352 3049.3105 3115.7110 6639.2082 3188.3254 3173.1620 6342.0528 3067.3275 3115.7110 6342.0528 3067.3275 3115.7110 6639.2082 3188.3254 3173.1620 6630.5258 3206.3426 3173.1620 6639.2082 3188.3254 3173.1620 6927.6802 3327.3395 3223.2940 6630.5258 3206.3426 3173.1620 6630.5258 3206.3426 3173.1620 6927.6802 3327.3395 3223.2940 6918.9978 3345.3565 3223.2940 6927.6802 3327.3395 3223.2940 7216.1532 3466.3544 3266.1060 6918.9978 3345.3565 3223.2940 6918.9978 3345.3565 3223.2940 7216.1532 3466.3544 3266.1060 7207.4708 3484.3716 3266.1060 7216.1532 3466.3544 3266.1060 7504.6252 3605.3685 3301.5990 7207.4708 3484.3716 3266.1060 7207.4708 3484.3716 3266.1060 7504.6252 3605.3685 3301.5990 7495.9428 3623.3855 3301.5990 7504.6252 3605.3685 3301.5990 7793.0982 3744.3834 3329.7720 7495.9428 3623.3855 3301.5990 7495.9428 3623.3855 3301.5990 7793.0982 3744.3834 3329.7720 7784.4158 3762.4006 3329.7720 7793.0982 3744.3834 3329.7720 8081.5702 3883.3975 3350.6260 7784.4158 3762.4006 3329.7720 7784.4158 3762.4006 3329.7720 8081.5702 3883.3975 3350.6260 8072.8878 3901.4145 3350.6260 8081.5702 3883.3975 3350.6260 8370.0422 4022.4124 3364.1610 8072.8878 3901.4145 3350.6260 8072.8878 3901.4145 3350.6260 8370.0422 4022.4124 3364.1610 8361.3598 4040.4296 3364.1610 8370.0422 4022.4124 3364.1610 8658.5152 4161.4265 3370.3770 8361.3598 4040.4296 3364.1610 8361.3598 4040.4296 3364.1610 8658.5152 4161.4265 3370.3770 8649.8328 4179.4435 3370.3770 8658.5152 4161.4265 3370.3770 8946.9872 4300.4415 3369.2730 8649.8328 4179.4435 3370.3770 8649.8328 4179.4435 3370.3770 8946.9872 4300.4415 3369.2730 8938.3048 4318.4585 3369.2730 8946.9872 4300.4415 3369.2730 9235.4602 4439.4564 3360.8500 8938.3048 4318.4585 3369.2730 8938.3048 4318.4585 3369.2730 9235.4602 4439.4564 3360.8500 9226.7778 4457.4736 3360.8500 9235.4602 4439.4564 3360.8500 9523.9322 4578.4705 3345.1070 9226.7778 4457.4736 3360.8500 9226.7778 4457.4736 3360.8500 9523.9322 4578.4705 3345.1070 9515.2498 4596.4875 3345.1070 9523.9322 4578.4705 3345.1070 9812.4052 4717.4854 3322.0460 9515.2498 4596.4875 3345.1070 9515.2498 4596.4875 3345.1070 9812.4052 4717.4854 3322.0460 9803.7228 4735.5026 3322.0460 9812.4052 4717.4854 3322.0460 10100.8772 4856.4995 3291.6650 9803.7228 4735.5026 3322.0460 9803.7228 4735.5026 3322.0460 10100.8772 4856.4995 3291.6650 10092.1948 4874.5165 3291.6650 10100.8772 4856.4995 3291.6650 10389.3502 4995.5144 3253.9640 10092.1948 4874.5165 3291.6650 10092.1948 4874.5165 3291.6650 10389.3502 4995.5144 3253.9640 10380.6678 5013.5316 3253.9640 10389.3502 4995.5144 3253.9640 10677.8222 5134.5285 3208.9440 10380.6678 5013.5316 3253.9640 10380.6678 5013.5316 3253.9640 10677.8222 5134.5285 3208.9440 10669.1398 5152.5455 3208.9440 10677.8222 5134.5285 3208.9440 10966.2952 5273.5434 3156.6050 10669.1398 5152.5455 3208.9440 10669.1398 5152.5455 3208.9440 10966.2952 5273.5434 3156.6050 10957.6128 5291.5606 3156.6050 10966.2952 5273.5434 3156.6050 11254.7672 5412.5575 3096.9470 10957.6128 5291.5606 3156.6050 10957.6128 5291.5606 3156.6050 11254.7672 5412.5575 3096.9470 11246.0848 5430.5745 3096.9470 11254.7672 5412.5575 3096.9470 11543.2402 5551.5724 3029.9690 11246.0848 5430.5745 3096.9470 11246.0848 5430.5745 3096.9470 11543.2402 5551.5724 3029.9690 11534.5578 5569.5896 3029.9690 11543.2402 5551.5724 3029.9690 11831.7122 5690.5865 2955.6720 11534.5578 5569.5896 3029.9690 11534.5578 5569.5896 3029.9690 11831.7122 5690.5865 2955.6720 11823.0298 5708.6035 2955.6720 11831.7122 5690.5865 2955.6720 12120.1852 5829.6014 2874.0550 11823.0298 5708.6035 2955.6720 11823.0298 5708.6035 2955.6720 12120.1852 5829.6014 2874.0550 12111.5028 5847.6186 2874.0550 12120.1852 5829.6014 2874.0550 12408.6572 5968.6155 2785.1200 12111.5028 5847.6186 2874.0550 12111.5028 5847.6186 2874.0550 12408.6572 5968.6155 2785.1200 12399.9748 5986.6325 2785.1200 12408.6572 5968.6155 2785.1200 12697.1292 6107.6304 2688.8650 12399.9748 5986.6325 2785.1200 12399.9748 5986.6325 2785.1200 12697.1292 6107.6304 2688.8650 12688.4468 6125.6476 2688.8650 12697.1292 6107.6304 2688.8650 12985.6022 6246.6445 2585.2900 12688.4468 6125.6476 2688.8650 12688.4468 6125.6476 2688.8650 12985.6022 6246.6445 2585.2900 12976.9198 6264.6615 2585.2900 12985.6022 6246.6445 2585.2900 13274.0742 6385.6594 2474.3960 12976.9198 6264.6615 2585.2900 12976.9198 6264.6615 2585.2900 13274.0742 6385.6594 2474.3960 13265.3918 6403.6766 2474.3960 13274.0742 6385.6594 2474.3960 13562.5472 6524.6735 2356.1830 13265.3918 6403.6766 2474.3960 13265.3918 6403.6766 2474.3960 13562.5472 6524.6735 2356.1830 13553.8648 6542.6905 2356.1830 13562.5472 6524.6735 2356.1830 13851.0192 6663.6884 2230.6510 13553.8648 6542.6905 2356.1830 13553.8648 6542.6905 2356.1830 13851.0192 6663.6884 2230.6510 13842.3368 6681.7056 2230.6510 13851.0192 6663.6884 2230.6510 14139.4922 6802.7025 2097.7990 13842.3368 6681.7056 2230.6510 13842.3368 6681.7056 2230.6510 14139.4922 6802.7025 2097.7990 14130.8098 6820.7195 2097.7990 14139.4922 6802.7025 2097.7990 14427.9642 6941.7174 1957.6280 14130.8098 6820.7195 2097.7990 14130.8098 6820.7195 2097.7990 14427.9642 6941.7174 1957.6280 14419.2818 6959.7346 1957.6280 14427.9642 6941.7174 1957.6280 14716.4372 7080.7315 1810.1370 14419.2818 6959.7346 1957.6280 14419.2818 6959.7346 1957.6280 14716.4372 7080.7315 1810.1370 14707.7548 7098.7485 1810.1370 14716.4372 7080.7315 1810.1370 15004.9092 7219.7464 1655.3280 14707.7548 7098.7485 1810.1370 14707.7548 7098.7485 1810.1370 15004.9092 7219.7464 1655.3280 14996.2268 7237.7636 1655.3280 15004.9092 7219.7464 1655.3280 15293.3822 7358.7605 1493.1980 14996.2268 7237.7636 1655.3280 14996.2268 7237.7636 1655.3280 15293.3822 7358.7605 1493.1980 15284.6998 7376.7775 1493.1980 15293.3822 7358.7605 1493.1980 15581.8542 7497.7754 1323.7500 15284.6998 7376.7775 1493.1980 15284.6998 7376.7775 1493.1980 15581.8542 7497.7754 1323.7500 15573.1718 7515.7926 1323.7500 15581.8542 7497.7754 1323.7500 15870.3272 7636.7895 1146.9820 15573.1718 7515.7926 1323.7500 15573.1718 7515.7926 1323.7500 15870.3272 7636.7895 1146.9820 15861.6448 7654.8065 1146.9820 15870.3272 7636.7895 1146.9820 16158.7992 7775.8045 962.8950 15861.6448 7654.8065 1146.9820 15861.6448 7654.8065 1146.9820 16158.7992 7775.8045 962.8950 16150.1168 7793.8215 962.8950</float_array>
          <technique_common>
            <accessor source="#portal_arc_a999-mesh-positions-array" count="336" stride="3">
              <param name="X" type="float"/>
              <param name="Y" type="float"/>
              <param name="Z" type="float"/>
            </accessor>
          </technique_common>
        </source>
        <source id="portal_arc_a999-mesh-normals">
          <float_array id="portal_arc_a999-mesh-normals-array" count="1008">-0.5077 -0.2447 0.8261 -0.5077 -0.2447 0.8261 -0.5077 -0.2447 0.8261 -0.5077 -0.2447 0.8261 -0.5077 -0.2447 0.8261 -0.5077 -0.2447 0.8261 -0.4959 -0.2390 0.8348 -0.4959 -0.2390 0.8348 -0.4959 -0.2390 0.8348 -0.4959 -0.2390 0.8348 -0.4959 -0.2390 0.8348 -0.4959 -0.2390 0.8348 -0.4837 -0.2331 0.8436 -0.4837 -0.2331 0.8436 -0.4837 -0.2331 0.8436 -0.4838 -0.2331 0.8436 -0.4838 -0.2331 0.8436 -0.4838 -0.2331 0.8436 -0.4712 -0.2271 0.8523 -0.4712 -0.2271 0.8523 -0.4712 -0.2271 0.8523 -0.4712 -0.2271 0.8523 -0.4712 -0.2271 0.8523 -0.4712 -0.2271 0.8523 -0.4583 -0.2208 0.8610 -0.4583 -0.2208 0.8610 -0.4583 -0.2208 0.8610 -0.4583 -0.2208 0.8610 -0.4583 -0.2208 0.8610 -0.4583 -0.2208 0.8610 -0.4449 -0.2144 0.8695 -0.4449 -0.2144 0.8695 -0.4449 -0.2144 0.8695 -0.4449 -0.2144 0.8695 -0.4449 -0.2144 0.8695 -0.4449 -0.2144 0.8695 -0.4312 -0.2078 0.8780 -0.4312 -0.2078 0.8780 -0.4312 -0.2078 0.8780 -0.4312 -0.2078 0.8780 -0.4312 -0.2078 0.8780 -0.4312 -0.2078 0.8780 -0.4170 -0.2010 0.8864 -0.4170 -0.2010 0.8864 -0.4170 -0.2010 0.8864 -0.4170 -0.2010 0.8864 -0.4170 -0.2010 0.8864 -0.4170 -0.2010 0.8864 -0.4025 -0.1940 0.8946 -0.4025 -0.1940 0.8946 -0.4025 -0.1940 0.8946 -0.4025 -0.1940 0.8946 -0.4025 -0.1940 0.8946 -0.4025 -0.1940 0.8946 -0.3875 -0.1868 0.9027 -0.3875 -0.1868 0.9027 -0.3875 -0.1868 0.9027 -0.3875 -0.1868 0.9027 -0.3875 -0.1868 0.9027 -0.3875 -0.1868 0.9027 -0.3722 -0.1794 0.9107 -0.3722 -0.1794 0.9107 -0.3722 -0.1794 0.9107 -0.3722 -0.1794 0.9107 -0.3722 -0.1794 0.9107 -0.3722 -0.1794 0.9107 -0.3564 -0.1718 0.9184 -0.3564 -0.1718 0.9184 -0.3564 -0.1718 0.9184 -0.3564 -0.1718 0.9184 -0.3564 -0.1718 0.9184 -0.3564 -0.1718 0.9184 -0.3403 -0.1640 0.9259 -0.3403 -0.1640 0.9259 -0.3403 -0.1640 0.9259 -0.3403 -0.1640 0.9259 -0.3403 -0.1640 0.9259 -0.3403 -0.1640 0.9259 -0.3238 -0.1560 0.9332 -0.3238 -0.1560 0.9332 -0.3238 -0.1560 0.9332 -0.3238 -0.1560 0.9332 -0.3238 -0.1560 0.9332 -0.3238 -0.1560 0.9332 -0.3068 -0.1479 0.9402 -0.3068 -0.1479 0.9402 -0.3068 -0.1479 0.9402 -0.3068 -0.1479 0.9402 -0.3068 -0.1479 0.9402 -0.3068 -0.1479 0.9402 -0.2895 -0.1395 0.9469 -0.2895 -0.1395 0.9469 -0.2895 -0.1395 0.9469 -0.2895 -0.1395 0.9469 -0.2895 -0.1395 0.9469 -0.2895 -0.1395 0.9469 -0.2719 -0.1310 0.9534 -0.2719 -0.1310 0.9534 -0.2719 -0.1310 0.9534 -0.2719 -0.1310 0.9534 -0.2719 -0.1310 0.9534 -0.2719 -0.1310 0.9534 -0.2539 -0.1223 0.9595 -0.2539 -0.1223 0.9595 -0.2539 -0.1223 0.9595 -0.2539 -0.1223 0.9595 -0.2539 -0.1223 0.9595 -0.2539 -0.1223 0.9595 -0.2355 -0.1135 0.9652 -0.2355 -0.1135 0.9652 -0.2355 -0.1135 0.9652 -0.2355 -0.1135 0.9652 -0.2355 -0.1135 0.9652 -0.2355 -0.1135 0.9652 -0.2168 -0.1045 0.9706 -0.2168 -0.1045 0.9706 -0.2168 -0.1045 0.9706 -0.2168 -0.1045 0.9706 -0.2168 -0.1045 0.9706 -0.2168 -0.1045 0.9706 -0.1979 -0.0953 0.9756 -0.1979 -0.0953 0.9756 -0.1979 -0.0953 0.9756 -0.1979 -0.0953 0.9756 -0.1979 -0.0953 0.9756 -0.1979 -0.0953 0.9756 -0.1786 -0.0861 0.9802 -0.1786 -0.0861 0.9802 -0.1786 -0.0861 0.9802 -0.1786 -0.0861 0.9802 -0.1786 -0.0861 0.9802 -0.1786 -0.0861 0.9802 -0.1591 -0.0767 0.9843 -0.1591 -0.0767 0.9843 -0.1591 -0.0767 0.9843 -0.1591 -0.0767 0.9843 -0.1591 -0.0767 0.9843 -0.1591 -0.0767 0.9843 -0.1393 -0.0671 0.9880 -0.1393 -0.0671 0.9880 -0.1393 -0.0671 0.9880 -0.1393 -0.0671 0.9880 -0.1393 -0.0671 0.9880 -0.1393 -0.0671 0.9880 -0.1194 -0.0575 0.9912 -0.1194 -0.0575 0.9912 -0.1194 -0.0575 0.9912 -0.1194 -0.0575 0.9912 -0.1194 -0.0575 0.9912 -0.1194 -0.0575 0.9912 -0.0992 -0.0478 0.9939 -0.0992 -0.0478 0.9939 -0.0992 -0.0478 0.9939 -0.0992 -0.0478 0.9939 -0.0992 -0.0478 0.9939 -0.0992 -0.0478 0.9939 -0.0790 -0.0380 0.9962 -0.0790 -0.0380 0.9962 -0.0790 -0.0380 0.9962 -0.0790 -0.0380 0.9962 -0.0790 -0.0380 0.9962 -0.0790 -0.0380 0.9962 -0.0585 -0.0282 0.9979 -0.0585 -0.0282 0.9979 -0.0585 -0.0282 0.9979 -0.0585 -0.0282 0.9979 -0.0585 -0.0282 0.9979 -0.0585 -0.0282 0.9979 -0.0380 -0.0183 0.9991 -0.0380 -0.0183 0.9991 -0.0380 -0.0183 0.9991 -0.0380 -0.0183 0.9991 -0.0380 -0.0183 0.9991 -0.0380 -0.0183 0.9991 -0.0175 -0.0084 0.9998 -0.0175 -0.0084 0.9998 -0.0175 -0.0084 0.9998 -0.0175 -0.0084 0.9998 -0.0175 -0.0084 0.9998 -0.0175 -0.0084 0.9998 0.0031 0.0015 1.0000 0.0031 0.0015 1.0000 0.0031 0.0015 1.0000 0.0031 0.0015 1.0000 0.0031 0.0015 1.0000 0.0031 0.0015 1.0000 0.0237 0.0114 0.9997 0.0237 0.0114 0.9997 0.0237 0.0114 0.9997 0.0237 0.0114 0.9997 0.0237 0.0114 0.9997 0.0237 0.0114 0.9997 0.0442 0.0213 0.9988 0.0442 0.0213 0.9988 0.0442 0.0213 0.9988 0.0442 0.0213 0.9988 0.0442 0.0213 0.9988 0.0442 0.0213 0.9988 0.0647 0.0312 0.9974 0.0647 0.0312 0.9974 0.0647 0.0312 0.9974 0.0647 0.0312 0.9974 0.0647 0.0312 0.9974 0.0647 0.0312 0.9974 0.0851 0.0410 0.9955 0.0851 0.0410 0.9955 0.0851 0.0410 0.9955 0.0851 0.0410 0.9955 0.0851 0.0410 0.9955 0.0851 0.0410 0.9955 0.1053 0.0508 0.9931 0.1053 0.0508 0.9931 0.1053 0.0508 0.9931 0.1053 0.0508 0.9931 0.1053 0.0508 0.9931 0.1053 0.0508 0.9931 0.1254 0.0604 0.9903 0.1254 0.0604 0.9903 0.1254 0.0604 0.9903 0.1254 0.0604 0.9903 0.1254 0.0604 0.9903 0.1254 0.0604 0.9903 0.1453 0.0700 0.9869 0.1453 0.0700 0.9869 0.1453 0.0700 0.9869 0.1453 0.0700 0.9869 0.1453 0.0700 0.9869 0.1453 0.0700 0.9869 0.1650 0.0795 0.9831 0.1650 0.0795 0.9831 0.1650 0.0795 0.9831 0.1650 0.0795 0.9831 0.1650 0.0795 0.9831 0.1650 0.0795 0.9831 0.1844 0.0889 0.9788 0.1844 0.0889 0.9788 0.1844 0.0889 0.9788 0.1844 0.0889 0.9788 0.1844 0.0889 0.9788 0.1844 0.0889 0.9788 0.2036 0.0981 0.9741 0.2036 0.0981 0.9741 0.2036 0.0981 0.9741 0.2036 0.0981 0.9741 0.2036 0.0981 0.9741 0.2036 0.0981 0.9741 0.2225 0.1072 0.9690 0.2225 0.1072 0.9690 0.2225 0.1072 0.9690 0.2225 0.1072 0.9690 0.2225 0.1072 0.9690 0.2225 0.1072 0.9690 0.2411 0.1162 0.9635 0.2411 0.1162 0.9635 0.2411 0.1162 0.9635 0.2411 0.1162 0.9635 0.2411 0.1162 0.9635 0.2411 0.1162 0.9635 0.2593 0.1250 0.9577 0.2593 0.1250 0.9577 0.2593 0.1250 0.9577 0.2593 0.1250 0.9577 0.2593 0.1250 0.9577 0.2593 0.1250 0.9577 0.2772 0.1336 0.9515 0.2772 0.1336 0.9515 0.2772 0.1336 0.9515 0.2772 0.1336 0.9515 0.2772 0.1336 0.9515 0.2772 0.1336 0.9515 0.2948 0.1421 0.9449 0.2948 0.1421 0.9449 0.2948 0.1421 0.9449 0.2948 0.1421 0.9449 0.2948 0.1421 0.9449 0.2948 0.1421 0.9449 0.3120 0.1503 0.9381 0.3120 0.1503 0.9381 0.3120 0.1503 0.9381 0.3120 0.1503 0.9381 0.3120 0.1503 0.9381 0.3120 0.1503 0.9381 0.3288 0.1584 0.9310 0.3288 0.1584 0.9310 0.3288 0.1584 0.9310 0.3288 0.1584 0.9310 0.3288 0.1584 0.9310 0.3288 0.1584 0.9310 0.3452 0.1664 0.9237 0.3452 0.1664 0.9237 0.3452 0.1664 0.9237 0.3452 0.1664 0.9237 0.3452 0.1664 0.9237 0.3452 0.1664 0.9237 0.3612 0.1741 0.9161 0.3612 0.1741 0.9161 0.3612 0.1741 0.9161 0.3612 0.1741 0.9161 0.3612 0.1741 0.9161 0.3612 0.1741 0.9161 0.3769 0.1816 0.9083 0.3769 0.1816 0.9083 0.3769 0.1816 0.9083 0.3769 0.1816 0.9083 0.3769 0.1816 0.9083 0.3769 0.1816 0.9083 0.3921 0.1890 0.9003 0.3921 0.1890 0.9003 0.3921 0.1890 0.9003 0.3921 0.1890 0.9003 0.3921 0.1890 0.9003 0.3921 0.1890 0.9003 0.4069 0.1961 0.8922 0.4069 0.1961 0.8922 0.4069 0.1961 0.8922 0.4069 0.1961 0.8922 0.4069 0.1961 0.8922 0.4069 0.1961 0.8922 0.4213 0.2030 0.8839 0.4213 0.2030 0.8839 0.4213 0.2030 0.8839 0.4213 0.2030 0.8839 0.4213 0.2030 0.8839 0.4213 0.2030 0.8839 0.4354 0.2098 0.8755 0.4354 0.2098 0.8755 0.4354 0.2098 0.8755 0.4354 0.2098 0.8755 0.4354 0.2098 0.8755 0.4354 0.2098 0.8755 0.4490 0.2164 0.8670 0.4490 0.2164 0.8670 0.4490 0.2164 0.8670 0.4490 0.2164 0.8670 0.4490 0.2164 0.8670 0.4490 0.2164 0.8670</float_array>
          <technique_common>
            <accessor source="#portal_arc_a999-mesh-normals-array" count="336" stride="3">
              <param name="X" type="float"/>
              <param name="Y" type="float"/>
              <param name="Z" type="float"/>
            </accessor>
          </technique_common>
        </source>
        <source id="portal_arc_a999-mesh-map-0">
          <float_array id="portal_arc_a999-mesh-map-0-array" count="672">0 0 0 0 0 0 0 0 0 0 0 0 0 0 0 0 0 0 0 0 0 0 0 0 0 0 0 0 0 0 0 0 0 0 0 0 0 0 0 0 0 0 0 0 0 0 0 0 0 0 0 0 0 0 0 0 0 0 0 0 0 0 0 0 0 0 0 0 0 0 0 0 0 0 0 0 0 0 0 0 0 0 0 0 0 0 0 0 0 0 0 0 0 0 0 0 0 0 0 0 0 0 0 0 0 0 0 0 0 0 0 0 0 0 0 0 0 0 0 0 0 0 0 0 0 0 0 0 0 0 0 0 0 0 0 0 0 0 0 0 0 0 0 0 0 0 0 0 0 0 0 0 0 0 0 0 0 0 0 0 0 0 0 0 0 0 0 0 0 0 0 0 0 0 0 0 0 0 0 0 0 0 0 0 0 0 0 0 0 0 0 0 0 0 0 0 0 0 0 0 0 0 0 0 0 0 0 0 0 0 0 0 0 0 0 0 0 0 0 0 0 0 0 0 0 0 0 0 0 0 0 0 0 0 0 0 0 0 0 0 0 0 0 0 0 0 0 0 0 0 0 0 0 0 0 0 0 0 0 0 0 0 0 0 0 0 0 0 0 0 0 0 0 0 0 0 0 0 0 0 0 0 0 0 0 0 0 0 0 0 0 0 0 0 0 0 0 0 0 0 0 0 0 0 0 0 0 0 0 0 0 0 0 0 0 0 0 0 0 0 0 0 0 0 0 0 0 0 0 0 0 0 0 0 0 0 0 0 0 0 0 0 0 0 0 0 0 0 0 0 0 0 0 0 0 0 0 0 0 0 0 0 0 0 0 0 0 0 0 0 0 0 0 0 0 0 0 0 0 0 0 0 0 0 0 0 0 0 0 0 0 0 0 0 0 0 0 0 0 0 0 0 0 0 0 0 0 0 0 0 0 0 0 0 0 0 0 0 0 0 0 0 0 0 0 0 0 0 0 0 0 0 0 0 0 0 0 0 0 0 0 0 0 0 0 0 0 0 0 0 0 0 0 0 0 0 0 0 0 0 0 0 0 0 0 0 0 0 0 0 0 0 0 0 0 0 0 0 0 0 0 0 0 0 0 0 0 0 0 0 0 0 0 0 0 0 0 0 0 0 0 0 0 0 0 0 0 0 0 0 0 0 0 0 0 0 0 0 0 0 0 0 0 0 0 0 0 0 0 0 0 0 0 0 0 0 0 0 0 0 0 0 0 0 0 0 0 0 0 0 0 0 0 0 0 0 0 0 0 0 0 0 0 0 0 0 0 0 0 0 0 0 0 0 0 0 0 0 0 0 0 0 0 0 0 0 0 0 0 0 0 0 0 0 0 0 0 0 0 0 0 0 0 0 0 0 0 0 0 0 0 0 0 0 0 0 0 0 0 0 0 0 0 0 0 0 0 0 0 0 0 0 0 0 0 0 0 0 0 0 0 0 0 0 0 0 0 0 0 0 0 0 0 0 0 0 0 0 0 0 0 0 0 0 0 0 0 0 0 0 0 0</float_array>
          <technique_common>
            <accessor source="#portal_arc_a999-mesh-map-0-array" count="336" stride="2">
              <param name="S" type="float"/>
              <param name="T" type="float"/>
            </accessor>
          </technique_common>
        </source>
        <vertices id="portal_arc_a999-mesh-vertices">
          <input semantic="POSITION" source="#portal_arc_a999-mesh-positions"/>
        </vertices>
        <triangles material="portal_arc" count="112">
          <input semantic="VERTEX" source="#portal_arc_a999-mesh-vertices" offset="0"/>
          <input semantic="NORMAL" source="#portal_arc_a999-mesh-normals" offset="0"/>
          <input semantic="TEXCOORD" source="#portal_arc_a999-mesh-map-0" offset="0" set="0"/>
          <p>0 1 2 3 4 5 6 7 8 9 10 11 12 13 14 15 16 17 18 19 20 21 22 23 24 25 26 27 28 29 30 31 32 33 34 35 36 37 38 39 40 41 42 43 44 45 46 47 48 49 50 51 52 53 54 55 56 57 58 59 60 61 62 63 64 65 66 67 68 69 70 71 72 73 74 75 76 77 78 79 80 81 82 83 84 85 86 87 88 89 90 91 92 93 94 95 96 97 98 99 100 101 102 103 104 105 106 107 108 109 110 111 112 113 114 115 116 117 118 119 120 121 122 123 124 125 126 127 128 129 130 131 132 133 134 135 136 137 138 139 140 141 142 143 144 145 146 147 148 149 150 151 152 153 154 155 156 157 158 159 160 161 162 163 164 165 166 167 168 169 170 171 172 173 174 175 176 177 178 179 180 181 182 183 184 185 186 187 188 189 190 191 192 193 194 195 196 197 198 199 200 201 202 203 204 205 206 207 208 209 210 211 212 213 214 215 216 217 218 219 220 221 222 223 224 225 226 227 228 229 230 231 232 233 234 235 236 237 238 239 240 241 242 243 244 245 246 247 248 249 250 251 252 253 254 255 256 257 258 259 260 261 262 263 264 265 266 267 268 269 270 271 272 273 274 275 276 277 278 279 280 281 282 283 284 285 286 287 288 289 290 291 292 293 294 295 296 297 298 299 300 301 302 303 304 305 306 307 308 309 310 311 312 313 314 315 316 317 318 319 320 321 322 323 324 325 326 327 328 329 330 331 332 333 334 335</p>
        </triangles>
      </mesh>
    </geometry>
  </library_geometries>
  <library_visual_scenes>
    <visual_scene id="Scene" name="Scene">
      <node id="base00" name="base00" type="NODE">
        <node id="start01" name="start01" type="NODE">
          <node id="portal_arc_a999" name="portal_arc_a999" type="NODE">
            <instance_geometry url="#portal_arc_a999-mesh">
              <bind_material>
                <technique_common>
                  <instance_material symbol="portal_arc" target="#portal_arc-material">
                    <bind_vertex_input semantic="UVSET0" input_semantic="TEXCOORD" input_set="0"/>
                  </instance_material>
                </technique_common>
              </bind_material>
            </instance_geometry>
          </node>
        </node>
      </node>
    </visual_scene>
  </library_visual_scenes>
  <scene>
    <instance_visual_scene url="#Scene"/>
  </scene>
</COLLADA>
