<?xml version="1.0" encoding="utf-8"?>
<COLLADA xmlns="http://www.collada.org/2005/11/COLLADASchema" version="1.4.1">
  <asset>
    <contributor><authoring_tool>beamng_autoroad build_portals</authoring_tool></contributor>
    <unit name="meter" meter="1"/>
    <up_axis>Z_UP</up_axis>
  </asset>
  <library_effects>
    <effect id="portal_arc-effect">
      <profile_COMMON>
        <technique sid="common">
          <lambert>
            <diffuse><color>1.0 0.4 0.28 0.18</color></diffuse>
            <transparent opaque="A_ONE"><color>1 1 1 1</color></transparent>
            <transparency><float>0.82</float></transparency>
          </lambert>
        </technique>
      </profile_COMMON>
    </effect>
  </library_effects>
  <library_materials>
    <material id="portal_arc-material" name="portal_arc">
      <instance_effect url="#portal_arc-effect"/>
    </material>
  </library_materials>
  <library_geometries>
    <geometry id="portal_arc_a999-mesh" name="portal_arc_a999-mesh">
      <mesh>
        <source id="portal_arc_a999-mesh-positions">
          <float_array id="portal_arc_a999-mesh-positions-array" count="1008">8.9687 -4.4229 0.0000 88.5548 156.9632 32.8510 -8.9687 4.4229 0.0000 -8.9687 4.4229 0.0000 88.5548 156.9632 32.8510 70.6172 165.8088 32.8510 88.5548 156.9632 32.8510 168.1397 318.3501 64.6750 70.6172 165.8088 32.8510 70.6172 165.8088 32.8510 168.1397 318.3501 64.6750 150.2023 327.1959 64.6750 168.1397 318.3501 64.6750 247.7257 479.7361 95.4700 150.2023 327.1959 64.6750 150.2023 327.1959 64.6750 247.7257 479.7361 95.4700 229.7883 488.5819 95.4700 247.7257 479.7361 95.4700 327.3118 641.1222 125.2360 229.7883 488.5819 95.4700 229.7883 488.5819 95.4700 327.3118 641.1222 125.2360 309.3742 649.9678 125.2360 327.3118 641.1222 125.2360 406.8967 802.5091 153.9750 309.3742 649.9678 125.2360 309.3742 649.9678 125.2360 406.8967 802.5091 153.9750 388.9593 811.3549 153.9750 406.8967 802.5091 153.9750 486.4828 963.8952 181.6850 388.9593 811.3549 153.9750 388.9593 811.3549 153.9750 486.4828 963.8952 181.6850 468.5452 972.7408 181.6850 486.4828 963.8952 181.6850 566.0687 1125.2821 208.3670 468.5452 972.7408 181.6850 468.5452 972.7408 181.6850 566.0687 1125.2821 208.3670 548.1313 1134.1279 208.3670 566.0687 1125.2821 208.3670 645.6548 1286.6682 234.0210 548.1313 1134.1279 208.3670 548.1313 1134.1279 208.3670 645.6548 1286.6682 234.0210 627.7172 1295.5138 234.0210 645.6548 1286.6682 234.0210 725.2398 1448.0542 258.6460 627.7172 1295.5138 234.0210 627.7172 1295.5138 234.0210 725.2398 1448.0542 258.6460 707.3022 1456.8998 258.6460 725.2398 1448.0542 258.6460 804.8257 1609.4411 282.2440 707.3022 1456.8998 258.6460 707.3022 1456.8998 258.6460 804.8257 1609.4411 282.2440 786.8883 1618.2869 282.2440 804.8257 1609.4411 282.2440 884.4118 1770.8272 304.8130 786.8883 1618.2869 282.2440 786.8883 1618.2869 282.2440 884.4118 1770.8272 304.8130 866.4742 1779.6728 304.8130 884.4118 1770.8272 304.8130 963.9968 1932.2132 326.3530 866.4742 1779.6728 304.8130 866.4742 1779.6728 304.8130 963.9968 1932.2132 326.3530 946.0592 1941.0588 326.3530 963.9968 1932.2132 326.3530 1043.5827 2093.6001 346.8660 946.0592 1941.0588 326.3530 946.0592 1941.0588 326.3530 1043.5827 2093.6001 346.8660 1025.6453 2102.4459 346.8660 1043.5827 2093.6001 346.8660 1123.1688 2254.9862 366.3500 1025.6453 2102.4459 346.8660 1025.6453 2102.4459 346.8660 1123.1688 2254.9862 366.3500 1105.2312 2263.8318 366.3500 1123.1688 2254.9862 366.3500 1202.7537 2416.3731 384.8060 1105.2312 2263.8318 366.3500 1105.2312 2263.8318 366.3500 1202.7537 2416.3731 384.8060 1184.8163 2425.2189 384.8060 1202.7537 2416.3731 384.8060 1282.3397 2577.7591 402.2340 1184.8163 2425.2189 384.8060 1184.8163 2425.2189 384.8060 1282.3397 2577.7591 402.2340 1264.4023 2586.6049 402.2340 1282.3397 2577.7591 402.2340 1361.9258 2739.1452 418.6340 1264.4023 2586.6049 402.2340 1264.4023 2586.6049 402.2340 1361.9258 2739.1452 418.6340 1343.9882 2747.9908 418.6340 1361.9258 2739.1452 418.6340 1441.5118 2900.5322 434.0050 1343.9882 2747.9908 418.6340 1343.9882 2747.9908 418.6340 1441.5118 2900.5322 434.0050 1423.5742 2909.3778 434.0050 1441.5118 2900.5322 434.0050 1521.0967 3061.9181 448.3480 1423.5742 2909.3778 434.0050 1423.5742 2909.3778 434.0050 1521.0967 3061.9181 448.3480 1503.1593 3070.7639 448.3480 1521.0967 3061.9181 448.3480 1600.6828 3223.3042 461.6630 1503.1593 3070.7639 448.3480 1503.1593 3070.7639 448.3480 1600.6828 3223.3042 461.6630 1582.7452 3232.1498 461.6630 1600.6828 3223.3042 461.6630 1680.2688 3384.6912 473.9490 1582.7452 3232.1498 461.6630 1582.7452 3232.1498 461.6630 1680.2688 3384.6912 473.9490 1662.3312 3393.5368 473.9490 1680.2688 3384.6912 473.9490 1759.8538 3546.0772 485.2080 1662.3312 3393.5368 473.9490 1662.3312 3393.5368 473.9490 1759.8538 3546.0772 485.2080 1741.9162 3554.9228 485.2080 1759.8538 3546.0772 485.2080 1839.4397 3707.4641 495.4380 1741.9162 3554.9228 485.2080 1741.9162 3554.9228 485.2080 1839.4397 3707.4641 495.4380 1821.5023 3716.3099 495.4380 1839.4397 3707.4641 495.4380 1919.0258 3868.8502 504.6390 1821.5023 3716.3099 495.4380 1821.5023 3716.3099 495.4380 1919.0258 3868.8502 504.6390 1901.0882 3877.6958 504.6390 1919.0258 3868.8502 504.6390 1998.6108 4030.2362 512.8130 1901.0882 3877.6958 504.6390 1901.0882 3877.6958 504.6390 1998.6108 4030.2362 512.8130 1980.6732 4039.0818 512.8130 1998.6108 4030.2362 512.8130 2078.1967 4191.6231 519.9580 1980.6732 4039.0818 512.8130 1980.6732 4039.0818 512.8130 2078.1967 4191.6231 519.9580 2060.2593 4200.4689 519.9580 2078.1967 4191.6231 519.9580 2157.7828 4353.0092 526.0760 2060.2593 4200.4689 519.9580 2060.2593 4200.4689 519.9580 2157.7828 4353.0092 526.0760 2139.8452 4361.8548 526.0760 2157.7828 4353.0092 526.0760 2237.3688 4514.3962 531.1640 2139.8452 4361.8548 526.0760 2139.8452 4361.8548 526.0760 2237.3688 4514.3962 531.1640 2219.4312 4523.2418 531.1640 2237.3688 4514.3962 531.1640 2316.9537 4675.7821 535.2250 2219.4312 4523.2418 531.1640 2219.4312 4523.2418 531.1640 2316.9537 4675.7821 535.2250 2299.0163 4684.6279 535.2250 2316.9537 4675.7821 535.2250 2396.5398 4837.1682 538.2570 2299.0163 4684.6279 535.2250 2299.0163 4684.6279 535.2250 2396.5398 4837.1682 538.2570 2378.6022 4846.0138 538.2570 2396.5398 4837.1682 538.2570 2476.1258 4998.5552 540.2610 2378.6022 4846.0138 538.2570 2378.6022 4846.0138 538.2570 2476.1258 4998.5552 540.2610 2458.1882 5007.4008 540.2610 2476.1258 4998.5552 540.2610 2555.7107 5159.9411 541.2370 2458.1882 5007.4008 540.2610 2458.1882 5007.4008 540.2610 2555.7107 5159.9411 541.2370 2537.7733 5168.7869 541.2370 2555.7107 5159.9411 541.2370 2635.2968 5321.3272 541.1850 2537.7733 5168.7869 541.2370 2537.7733 5168.7869 541.2370 2635.2968 5321.3272 541.1850 2617.3592 5330.1728 541.1850 2635.2968 5321.3272 541.1850 2714.8828 5482.7142 540.1040 2617.3592 5330.1728 541.1850 2617.3592 5330.1728 541.1850 2714.8828 5482.7142 540.1040 2696.9452 5491.5598 540.1040 2714.8828 5482.7142 540.1040 2794.4678 5644.1002 537.9950 2696.9452 5491.5598 540.1040 2696.9452 5491.5598 540.1040 2794.4678 5644.1002 537.9950 2776.5302 5652.9458 537.9950 2794.4678 5644.1002 537.9950 2874.0537 5805.4871 534.8580 2776.5302 5652.9458 537.9950 2776.5302 5652.9458 537.9950 2874.0537 5805.4871 534.8580 2856.1163 5814.3329 534.8580 2874.0537 5805.4871 534.8580 2953.6398 5966.8732 530.6930 2856.1163 5814.3329 534.8580 2856.1163 5814.3329 534.8580 2953.6398 5966.8732 530.6930 2935.7022 5975.7188 530.6930 2953.6398 5966.8732 530.6930 3033.2248 6128.2592 525.4990 2935.7022 5975.7188 530.6930 2935.7022 5975.7188 530.6930 3033.2248 6128.2592 525.4990 3015.2872 6137.1048 525.4990 3033.2248 6128.2592 525.4990 3112.8107 6289.6461 519.2770 3015.2872 6137.1048 525.4990 3015.2872 6137.1048 525.4990 3112.8107 6289.6461 519.2770 3094.8733 6298.4919 519.2770 3112.8107 6289.6461 519.2770 3192.3967 6451.0321 512.0270 3094.8733 6298.4919 519.2770 3094.8733 6298.4919 519.2770 3192.3967 6451.0321 512.0270 3174.4593 6459.8779 512.0270 3192.3967 6451.0321 512.0270 3271.9828 6612.4182 503.7490 3174.4593 6459.8779 512.0270 3174.4593 6459.8779 512.0270 3271.9828 6612.4182 503.7490 3254.0452 6621.2638 503.7490 3271.9828 6612.4182 503.7490 3351.5677 6773.8051 494.4420 3254.0452 6621.2638 503.7490 3254.0452 6621.2638 503.7490 3351.5677 6773.8051 494.4420 3333.6303 6782.6509 494.4420 3351.5677 6773.8051 494.4420 3431.1538 6935.1912 484.1080 3333.6303 6782.6509 494.4420 3333.6303 6782.6509 494.4420 3431.1538 6935.1912 484.1080 3413.2162 6944.0368 484.1080 3431.1538 6935.1912 484.1080 3510.7398 7096.5782 472.7450 3413.2162 6944.0368 484.1080 3413.2162 6944.0368 484.1080 3510.7398 7096.5782 472.7450 3492.8022 7105.4238 472.7450 3510.7398 7096.5782 472.7450 3590.3247 7257.9641 460.3530 3492.8022 7105.4238 472.7450 3492.8022 7105.4238 472.7450 3590.3247 7257.9641 460.3530 3572.3873 7266.8099 460.3530 3590.3247 7257.9641 460.3530 3669.9108 7419.3502 446.9340 3572.3873 7266.8099 460.3530 3572.3873 7266.8099 460.3530 3669.9108 7419.3502 446.9340 3651.9732 7428.1958 446.9340 3669.9108 7419.3502 446.9340 3749.4968 7580.7372 432.4860 3651.9732 7428.1958 446.9340 3651.9732 7428.1958 446.9340 3749.4968 7580.7372 432.4860 3731.5592 7589.5828 432.4860 3749.4968 7580.7372 432.4860 3829.0817 7742.1231 417.0100 3731.5592 7589.5828 432.4860 3731.5592 7589.5828 432.4860 3829.0817 7742.1231 417.0100 3811.1443 7750.9689 417.0100 3829.0817 7742.1231 417.0100 3908.6678 7903.5092 400.5060 3811.1443 7750.9689 417.0100 3811.1443 7750.9689 417.0100 3908.6678 7903.5092 400.5060 3890.7302 7912.3548 400.5060 3908.6678 7903.5092 400.5060 3988.2537 8064.8961 382.9730 3890.7302 7912.3548 400.5060 3890.7302 7912.3548 400.5060 3988.2537 8064.8961 382.9730 3970.3163 8073.7419 382.9730 3988.2537 8064.8961 382.9730 4067.8398 8226.2822 364.4120 3970.3163 8073.7419 382.9730 3970.3163 8073.7419 382.9730 4067.8398 8226.2822 364.4120 4049.9022 8235.1278 364.4120 4067.8398 8226.2822 364.4120 4147.4247 8387.6691 344.8230 4049.9022 8235.1278 364.4120 4049.9022 8235.1278 364.4120 4147.4247 8387.6691 344.8230 4129.4873 8396.5149 344.8230 4147.4247 8387.6691 344.8230 4227.0107 8549.0551 324.2060 4129.4873 8396.5149 344.8230 4129.4873 8396.5149 344.8230 4227.0107 8549.0551 324.2060 4209.0733 8557.9009 324.2060 4227.0107 8549.0551 324.2060 4306.5968 8710.4412 302.5600 4209.0733 8557.9009 324.2060 4209.0733 8557.9009 324.2060 4306.5968 8710.4412 302.5600 4288.6592 8719.2868 302.5600 4306.5968 8710.4412 302.5600 4386.1817 8871.8281 279.8870 4288.6592 8719.2868 302.5600 4288.6592 8719.2868 302.5600 4386.1817 8871.8281 279.8870 4368.2443 8880.6739 279.8870 4386.1817 8871.8281 279.8870 4465.7677 9033.2141 256.1850 4368.2443 8880.6739 279.8870 4368.2443 8880.6739 279.8870 4465.7677 9033.2141 256.1850 4447.8303 9042.0599 256.1850</float_array>
          <technique_common>
            <accessor source="#portal_arc_a999-mesh-positions-array" count="336" stride="3">
              <param name="X" type="float"/>
              <param name="Y" type="float"/>
              <param name="Z" type="float"/>
            </accessor>
          </technique_common>
        </source>
        <source id="portal_arc_a999-mesh-normals">
          <float_array id="portal_arc_a999-mesh-normals-array" count="1008">-0.0794 -0.1611 0.9837 -0.0794 -0.1611 0.9837 -0.0794 -0.1611 0.9837 -0.0794 -0.1611 0.9837 -0.0794 -0.1611 0.9837 -0.0794 -0.1611 0.9837 -0.0770 -0.1562 0.9847 -0.0770 -0.1562 0.9847 -0.0770 -0.1562 0.9847 -0.0770 -0.1562 0.9847 -0.0770 -0.1562 0.9847 -0.0770 -0.1562 0.9847 -0.0746 -0.1513 0.9857 -0.0746 -0.1513 0.9857 -0.0746 -0.1513 0.9857 -0.0746 -0.1513 0.9857 -0.0746 -0.1513 0.9857 -0.0746 -0.1513 0.9857 -0.0722 -0.1464 0.9866 -0.0722 -0.1464 0.9866 -0.0722 -0.1464 0.9866 -0.0722 -0.1464 0.9866 -0.0722 -0.1464 0.9866 -0.0722 -0.1464 0.9866 -0.0698 -0.1414 0.9875 -0.0698 -0.1414 0.9875 -0.0698 -0.1414 0.9875 -0.0698 -0.1414 0.9875 -0.0698 -0.1414 0.9875 -0.0698 -0.1414 0.9875 -0.0673 -0.1365 0.9883 -0.0673 -0.1365 0.9883 -0.0673 -0.1365 0.9883 -0.0673 -0.1365 0.9883 -0.0673 -0.1365 0.9883 -0.0673 -0.1365 0.9883 -0.0649 -0.1316 0.9892 -0.0649 -0.1316 0.9892 -0.0649 -0.1316 0.9892 -0.0649 -0.1316 0.9892 -0.0649 -0.1316 0.9892 -0.0649 -0.1316 0.9892 -0.0624 -0.1266 0.9900 -0.0624 -0.1266 0.9900 -0.0624 -0.1266 0.9900 -0.0624 -0.1266 0.9900 -0.0624 -0.1266 0.9900 -0.0624 -0.1266 0.9900 -0.0600 -0.1216 0.9908 -0.0600 -0.1216 0.9908 -0.0600 -0.1216 0.9908 -0.0600 -0.1216 0.9908 -0.0600 -0.1216 0.9908 -0.0600 -0.1216 0.9908 -0.0575 -0.1166 0.9915 -0.0575 -0.1166 0.9915 -0.0575 -0.1166 0.9915 -0.0575 -0.1166 0.9915 -0.0575 -0.1166 0.9915 -0.0575 -0.1166 0.9915 -0.0550 -0.1116 0.9922 -0.0550 -0.1116 0.9922 -0.0550 -0.1116 0.9922 -0.0550 -0.1116 0.9922 -0.0550 -0.1116 0.9922 -0.0550 -0.1116 0.9922 -0.0526 -0.1066 0.9929 -0.0526 -0.1066 0.9929 -0.0526 -0.1066 0.9929 -0.0526 -0.1066 0.9929 -0.0526 -0.1066 0.9929 -0.0526 -0.1066 0.9929 -0.0501 -0.1016 0.9936 -0.0501 -0.1016 0.9936 -0.0501 -0.1016 0.9936 -0.0501 -0.1016 0.9936 -0.0501 -0.1016 0.9936 -0.0501 -0.1016 0.9936 -0.0476 -0.0965 0.9942 -0.0476 -0.0965 0.9942 -0.0476 -0.0965 0.9942 -0.0476 -0.0965 0.9942 -0.0476 -0.0965 0.9942 -0.0476 -0.0965 0.9942 -0.0451 -0.0915 0.9948 -0.0451 -0.0915 0.9948 -0.0451 -0.0915 0.9948 -0.0451 -0.0915 0.9948 -0.0451 -0.0915 0.9948 -0.0451 -0.0915 0.9948 -0.0426 -0.0865 0.9953 -0.0426 -0.0865 0.9953 -0.0426 -0.0865 0.9953 -0.0426 -0.0865 0.9953 -0.0426 -0.0865 0.9953 -0.0426 -0.0865 0.9953 -0.0401 -0.0814 0.9959 -0.0401 -0.0814 0.9959 -0.0401 -0.0814 0.9959 -0.0401 -0.0814 0.9959 -0.0401 -0.0814 0.9959 -0.0401 -0.0814 0.9959 -0.0376 -0.0763 0.9964 -0.0376 -0.0763 0.9964 -0.0376 -0.0763 0.9964 -0.0376 -0.0763 0.9964 -0.0376 -0.0763 0.9964 -0.0376 -0.0763 0.9964 -0.0351 -0.0713 0.9968 -0.0351 -0.0713 0.9968 -0.0351 -0.0713 0.9968 -0.0351 -0.0713 0.9968 -0.0351 -0.0713 0.9968 -0.0351 -0.0713 0.9968 -0.0326 -0.0662 0.9973 -0.0326 -0.0662 0.9973 -0.0326 -0.0662 0.9973 -0.0326 -0.0662 0.9973 -0.0326 -0.0662 0.9973 -0.0326 -0.0662 0.9973 -0.0301 -0.0611 0.9977 -0.0301 -0.0611 0.9977 -0.0301 -0.0611 0.9977 -0.0301 -0.0611 0.9977 -0.0301 -0.0611 0.9977 -0.0301 -0.0611 0.9977 -0.0276 -0.0560 0.9980 -0.0276 -0.0560 0.9980 -0.0276 -0.0560 0.9980 -0.0276 -0.0560 0.9980 -0.0276 -0.0560 0.9980 -0.0276 -0.0560 0.9980 -0.0251 -0.0509 0.9984 -0.0251 -0.0509 0.9984 -0.0251 -0.0509 0.9984 -0.0251 -0.0509 0.9984 -0.0251 -0.0509 0.9984 -0.0251 -0.0509 0.9984 -0.0226 -0.0458 0.9987 -0.0226 -0.0458 0.9987 -0.0226 -0.0458 0.9987 -0.0226 -0.0458 0.9987 -0.0226 -0.0458 0.9987 -0.0226 -0.0458 0.9987 -0.0201 -0.0407 0.9990 -0.0201 -0.0407 0.9990 -0.0201 -0.0407 0.9990 -0.0201 -0.0407 0.9990 -0.0201 -0.0407 0.9990 -0.0201 -0.0407 0.9990 -0.0175 -0.0356 0.9992 -0.0175 -0.0356 0.9992 -0.0175 -0.0356 0.9992 -0.0175 -0.0356 0.9992 -0.0175 -0.0356 0.9992 -0.0175 -0.0356 0.9992 -0.0150 -0.0305 0.9994 -0.0150 -0.0305 0.9994 -0.0150 -0.0305 0.9994 -0.0150 -0.0305 0.9994 -0.0150 -0.0305 0.9994 -0.0150 -0.0305 0.9994 -0.0125 -0.0253 0.9996 -0.0125 -0.0253 0.9996 -0.0125 -0.0253 0.9996 -0.0125 -0.0253 0.9996 -0.0125 -0.0253 0.9996 -0.0125 -0.0253 0.9996 -0.0100 -0.0202 0.9997 -0.0100 -0.0202 0.9997 -0.0100 -0.0202 0.9997 -0.0100 -0.0202 0.9997 -0.0100 -0.0202 0.9997 -0.0100 -0.0202 0.9997 -0.0075 -0.0151 0.9999 -0.0075 -0.0151 0.9999 -0.0075 -0.0151 0.9999 -0.0075 -0.0151 0.9999 -0.0075 -0.0151 0.9999 -0.0075 -0.0151 0.9999 -0.0049 -0.0100 0.9999 -0.0049 -0.0100 0.9999 -0.0049 -0.0100 0.9999 -0.0049 -0.0100 0.9999 -0.0049 -0.0100 0.9999 -0.0049 -0.0100 0.9999 -0.0024 -0.0049 1.0000 -0.0024 -0.0049 1.0000 -0.0024 -0.0049 1.0000 -0.0024 -0.0049 1.0000 -0.0024 -0.0049 1.0000 -0.0024 -0.0049 1.0000 0.0001 0.0003 1.0000 0.0001 0.0003 1.0000 0.0001 0.0003 1.0000 0.0001 0.0003 1.0000 0.0001 0.0003 1.0000 0.0001 0.0003 1.0000 0.0027 0.0054 1.0000 0.0027 0.0054 1.0000 0.0027 0.0054 1.0000 0.0027 0.0054 1.0000 0.0027 0.0054 1.0000 0.0027 0.0054 1.0000 0.0052 0.0105 0.9999 0.0052 0.0105 0.9999 0.0052 0.0105 0.9999 0.0052 0.0105 0.9999 0.0052 0.0105 0.9999 0.0052 0.0105 0.9999 0.0077 0.0156 0.9998 0.0077 0.0156 0.9998 0.0077 0.0156 0.9998 0.0077 0.0156 0.9998 0.0077 0.0156 0.9998 0.0077 0.0156 0.9998 0.0102 0.0208 0.9997 0.0102 0.0208 0.9997 0.0102 0.0208 0.9997 0.0102 0.0208 0.9997 0.0102 0.0208 0.9997 0.0102 0.0208 0.9997 0.0128 0.0259 0.9996 0.0128 0.0259 0.9996 0.0128 0.0259 0.9996 0.0128 0.0259 0.9996 0.0128 0.0259 0.9996 0.0128 0.0259 0.9996 0.0153 0.0310 0.9994 0.0153 0.0310 0.9994 0.0153 0.0310 0.9994 0.0153 0.0310 0.9994 0.0153 0.0310 0.9994 0.0153 0.0310 0.9994 0.0178 0.0361 0.9992 0.0178 0.0361 0.9992 0.0178 0.0361 0.9992 0.0178 0.0361 0.9992 0.0178 0.0361 0.9992 0.0178 0.0361 0.9992 0.0203 0.0412 0.9989 0.0203 0.0412 0.9989 0.0203 0.0412 0.9989 0.0203 0.0412 0.9989 0.0203 0.0412 0.9989 0.0203 0.0412 0.9989 0.0228 0.0463 0.9987 0.0228 0.0463 0.9987 0.0228 0.0463 0.9987 0.0228 0.0463 0.9987 0.0228 0.0463 0.9987 0.0228 0.0463 0.9987 0.0254 0.0514 0.9984 0.0254 0.0514 0.9984 0.0254 0.0514 0.9984 0.0254 0.0514 0.9984 0.0254 0.0514 0.9984 0.0254 0.0514 0.9984 0.0279 0.0565 0.9980 0.0279 0.0565 0.9980 0.0279 0.0565 0.9980 0.0279 0.0565 0.9980 0.0279 0.0565 0.9980 0.0279 0.0565 0.9980 0.0304 0.0616 0.9976 0.0304 0.0616 0.9976 0.0304 0.0616 0.9976 0.0304 0.0616 0.9976 0.0304 0.0616 0.9976 0.0304 0.0616 0.9976 0.0329 0.0667 0.9972 0.0329 0.0667 0.9972 0.0329 0.0667 0.9972 0.0329 0.0667 0.9972 0.0329 0.0667 0.9972 0.0329 0.0667 0.9972 0.0354 0.0718 0.9968 0.0354 0.0718 0.9968 0.0354 0.0718 0.9968 0.0354 0.0718 0.9968 0.0354 0.0718 0.9968 0.0354 0.0718 0.9968 0.0379 0.0769 0.9963 0.0379 0.0769 0.9963 0.0379 0.0769 0.9963 0.0379 0.0769 0.9963 0.0379 0.0769 0.9963 0.0379 0.0769 0.9963 0.0404 0.0819 0.9958 0.0404 0.0819 0.9958 0.0404 0.0819 0.9958 0.0404 0.0819 0.9958 0.0404 0.0819 0.9958 0.0404 0.0819 0.9958 0.0429 0.0870 0.9953 0.0429 0.0870 0.9953 0.0429 0.0870 0.9953 0.0429 0.0870 0.9953 0.0429 0.0870 0.9953 0.0429 0.0870 0.9953 0.0454 0.0920 0.9947 0.0454 0.0920 0.9947 0.0454 0.0920 0.9947 0.0454 0.0920 0.9947 0.0454 0.0920 0.9947 0.0454 0.0920 0.9947 0.0479 0.0971 0.9941 0.0479 0.0971 0.9941 0.0479 0.0971 0.9941 0.0479 0.0971 0.9941 0.0479 0.0971 0.9941 0.0479 0.0971 0.9941 0.0503 0.1021 0.9935 0.0503 0.1021 0.9935 0.0503 0.1021 0.9935 0.0503 0.1021 0.9935 0.0503 0.1021 0.9935 0.0503 0.1021 0.9935 0.0528 0.1071 0.9928 0.0528 0.1071 0.9928 0.0528 0.1071 0.9928 0.0528 0.1071 0.9928 0.0528 0.1071 0.9928 0.0528 0.1071 0.9928 0.0553 0.1121 0.9922 0.0553 0.1121 0.9922 0.0553 0.1121 0.9922 0.0553 0.1121 0.9922 0.0553 0.1121 0.9922 0.0553 0.1121 0.9922 0.0578 0.1171 0.9914 0.0578 0.1171 0.9914 0.0578 0.1171 0.9914 0.0578 0.1171 0.9914 0.0578 0.1171 0.9914 0.0578 0.1171 0.9914</float_array>
          <technique_common>
            <accessor source="#portal_arc_a999-mesh-normals-array" count="336" stride="3">
              <param name="X" type="float"/>
              <param name="Y" type="float"/>
              <param name="Z" type="float"/>
            </accessor>
          </technique_common>
        </source>
        <source id="portal_arc_a999-mesh-map-0">
          <float_array id="portal_arc_a999-mesh-map-0-array" count="672">0 0 0 0 0 0 0 0 0 0 0 0 0 0 0 0 0 0 0 0 0 0 0 0 0 0 0 0 0 0 0 0 0 0 0 0 0 0 0 0 0 0 0 0 0 0 0 0 0 0 0 0 0 0 0 0 0 0 0 0 0 0 0 0 0 0 0 0 0 0 0 0 0 0 0 0 0 0 0 0 0 0 0 0 0 0 0 0 0 0 0 0 0 0 0 0 0 0 0 0 0 0 0 0 0 0 0 0 0 0 0 0 0 0 0 0 0 0 0 0 0 0 0 0 0 0 0 0 0 0 0 0 0 0 0 0 0 0 0 0 0 0 0 0 0 0 0 0 0 0 0 0 0 0 0 0 0 0 0 0 0 0 0 0 0 0 0 0 0 0 0 0 0 0 0 0 0 0 0 0 0 0 0 0 0 0 0 0 0 0 0 0 0 0 0 0 0 0 0 0 0 0 0 0 0 0 0 0 0 0 0 0 0 0 0 0 0 0 0 0 0 0 0 0 0 0 0 0 0 0 0 0 0 0 0 0 0 0 0 0 0 0 0 0 0 0 0 0 0 0 0 0 0 0 0 0 0 0 0 0 0 0 0 0 0 0 0 0 0 0 0 0 0 0 0 0 0 0 0 0 0 0 0 0 0 0 0 0 0 0 0 0 0 0 0 0 0 0 0 0 0 0 0 0 0 0 0 0 0 0 0 0 0 0 0 0 0 0 0 0 0 0 0 0 0 0 0 0 0 0 0 0 0 0 0 0 0 0 0 0 0 0 0 0 0 0 0 0 0 0 0 0 0 0 0 0 0 0 0 0 0 0 0 0 0 0 0 0 0 0 0 0 0 0 0 0 0 0 0 0 0 0 0 0 0 0 0 0 0 0 0 0 0 0 0 0 0 0 0 0 0 0 0 0 0 0 0 0 0 0 0 0 0 0 0 0 0 0 0 0 0 0 0 0 0 0 0 0 0 0 0 0 0 0 0 0 0 0 0 0 0 0 0 0 0 0 0 0 0 0 0 0 0 0 0 0 0 0 0 0 0 0 0 0 0 0 0 0 0 0 0 0 0 0 0 0 0 0 0 0 0 0 0 0 0 0 0 0 0 0 0 0 0 0 0 0 0 0 0 0 0 0 0 0 0 0 0 0 0 0 0 0 0 0 0 0 0 0 0 0 0 0 0 0 0 0 0 0 0 0 0 0 0 0 0 0 0 0 0 0 0 0 0 0 0 0 0 0 0 0 0 0 0 0 0 0 0 0 0 0 0 0 0 0 0 0 0 0 0 0 0 0 0 0 0 0 0 0 0 0 0 0 0 0 0 0 0 0 0 0 0 0 0 0 0 0 0 0 0 0 0 0 0 0 0 0 0 0 0 0 0 0 0 0 0 0 0 0 0 0 0 0 0 0 0 0 0 0 0 0 0 0 0 0 0 0 0 0 0 0 0 0 0 0 0 0 0 0 0 0 0 0 0 0 0 0 0 0 0 0 0 0 0 0 0 0 0 0 0 0 0 0</float_array>
          <technique_common>
            <accessor source="#portal_arc_a999-mesh-map-0-array" count="336" stride="2">
              <param name="S" type="float"/>
              <param name="T" type="float"/>
            </accessor>
          </technique_common>
        </source>
        <vertices id="portal_arc_a999-mesh-vertices">
          <input semantic="POSITION" source="#portal_arc_a999-mesh-positions"/>
        </vertices>
        <triangles material="portal_arc" count="112">
          <input semantic="VERTEX" source="#portal_arc_a999-mesh-vertices" offset="0"/>
          <input semantic="NORMAL" source="#portal_arc_a999-mesh-normals" offset="0"/>
          <input semantic="TEXCOORD" source="#portal_arc_a999-mesh-map-0" offset="0" set="0"/>
          <p>0 1 2 3 4 5 6 7 8 9 10 11 12 13 14 15 16 17 18 19 20 21 22 23 24 25 26 27 28 29 30 31 32 33 34 35 36 37 38 39 40 41 42 43 44 45 46 47 48 49 50 51 52 53 54 55 56 57 58 59 60 61 62 63 64 65 66 67 68 69 70 71 72 73 74 75 76 77 78 79 80 81 82 83 84 85 86 87 88 89 90 91 92 93 94 95 96 97 98 99 100 101 102 103 104 105 106 107 108 109 110 111 112 113 114 115 116 117 118 119 120 121 122 123 124 125 126 127 128 129 130 131 132 133 134 135 136 137 138 139 140 141 142 143 144 145 146 147 148 149 150 151 152 153 154 155 156 157 158 159 160 161 162 163 164 165 166 167 168 169 170 171 172 173 174 175 176 177 178 179 180 181 182 183 184 185 186 187 188 189 190 191 192 193 194 195 196 197 198 199 200 201 202 203 204 205 206 207 208 209 210 211 212 213 214 215 216 217 218 219 220 221 222 223 224 225 226 227 228 229 230 231 232 233 234 235 236 237 238 239 240 241 242 243 244 245 246 247 248 249 250 251 252 253 254 255 256 257 258 259 260 261 262 263 264 265 266 267 268 269 270 271 272 273 274 275 276 277 278 279 280 281 282 283 284 285 286 287 288 289 290 291 292 293 294 295 296 297 298 299 300 301 302 303 304 305 306 307 308 309 310 311 312 313 314 315 316 317 318 319 320 321 322 323 324 325 326 327 328 329 330 331 332 333 334 335</p>
        </triangles>
      </mesh>
    </geometry>
  </library_geometries>
  <library_visual_scenes>
    <visual_scene id="Scene" name="Scene">
      <node id="base00" name="base00" type="NODE">
        <node id="start01" name="start01" type="NODE">
          <node id="portal_arc_a999" name="portal_arc_a999" type="NODE">
            <instance_geometry url="#portal_arc_a999-mesh">
              <bind_material>
                <technique_common>
                  <instance_material symbol="portal_arc" target="#portal_arc-material">
                    <bind_vertex_input semantic="UVSET0" input_semantic="TEXCOORD" input_set="0"/>
                  </instance_material>
                </technique_common>
              </bind_material>
            </instance_geometry>
          </node>
        </node>
      </node>
    </visual_scene>
  </library_visual_scenes>
  <scene>
    <instance_visual_scene url="#Scene"/>
  </scene>
</COLLADA>
