<?xml version="1.0" encoding="utf-8"?>
<COLLADA xmlns="http://www.collada.org/2005/11/COLLADASchema" version="1.4.1">
  <asset>
    <contributor><authoring_tool>beamng_autoroad build_portals</authoring_tool></contributor>
    <unit name="meter" meter="1"/>
    <up_axis>Z_UP</up_axis>
  </asset>
  <library_effects>
    <effect id="portal_arc-effect">
      <profile_COMMON>
        <technique sid="common">
          <lambert>
            <diffuse><color>1.0 0.4 0.28 0.18</color></diffuse>
            <transparent opaque="A_ONE"><color>1 1 1 1</color></transparent>
            <transparency><float>0.82</float></transparency>
          </lambert>
        </technique>
      </profile_COMMON>
    </effect>
  </library_effects>
  <library_materials>
    <material id="portal_arc-material" name="portal_arc">
      <instance_effect url="#portal_arc-effect"/>
    </material>
  </library_materials>
  <library_geometries>
    <geometry id="portal_arc_a999-mesh" name="portal_arc_a999-mesh">
      <mesh>
        <source id="portal_arc_a999-mesh-positions">
          <float_array id="portal_arc_a999-mesh-positions-array" count="1008">9.3096 -3.6513 0.0000 131.0506 306.7477 56.7070 -9.3096 3.6513 0.0000 -9.3096 3.6513 0.0000 131.0506 306.7477 56.7070 112.4314 314.0503 56.7070 131.0506 306.7477 56.7070 252.7926 617.1467 111.5080 112.4314 314.0503 56.7070 112.4314 314.0503 56.7070 252.7926 617.1467 111.5080 234.1734 624.4493 111.5080 252.7926 617.1467 111.5080 374.5336 927.5467 164.4050 234.1734 624.4493 111.5080 234.1734 624.4493 111.5080 374.5336 927.5467 164.4050 355.9144 934.8493 164.4050 374.5336 927.5467 164.4050 496.2746 1237.9457 215.3960 355.9144 934.8493 164.4050 355.9144 934.8493 164.4050 496.2746 1237.9457 215.3960 477.6554 1245.2483 215.3960 496.2746 1237.9457 215.3960 618.0166 1548.3447 264.4810 477.6554 1245.2483 215.3960 477.6554 1245.2483 215.3960 618.0166 1548.3447 264.4810 599.3974 1555.6473 264.4810 618.0166 1548.3447 264.4810 739.7576 1858.7437 311.6620 599.3974 1555.6473 264.4810 599.3974 1555.6473 264.4810 739.7576 1858.7437 311.6620 721.1384 1866.0463 311.6620 739.7576 1858.7437 311.6620 861.4986 2169.1427 356.9370 721.1384 1866.0463 311.6620 721.1384 1866.0463 311.6620 861.4986 2169.1427 356.9370 842.8794 2176.4453 356.9370 861.4986 2169.1427 356.9370 983.2406 2479.5417 400.3070 842.8794 2176.4453 356.9370 842.8794 2176.4453 356.9370 983.2406 2479.5417 400.3070 964.6214 2486.8443 400.3070 983.2406 2479.5417 400.3070 1104.9816 2789.9417 441.7720 964.6214 2486.8443 400.3070 964.6214 2486.8443 400.3070 1104.9816 2789.9417 441.7720 1086.3624 2797.2443 441.7720 1104.9816 2789.9417 441.7720 1226.7226 3100.3407 481.3310 1086.3624 2797.2443 441.7720 1086.3624 2797.2443 441.7720 1226.7226 3100.3407 481.3310 1208.1034 3107.6433 481.3310 1226.7226 3100.3407 481.3310 1348.4646 3410.7397 518.9850 1208.1034 3107.6433 481.3310 1208.1034 3107.6433 481.3310 1348.4646 3410.7397 518.9850 1329.8454 3418.0423 518.9850 1348.4646 3410.7397 518.9850 1470.2056 3721.1387 554.7340 1329.8454 3418.0423 518.9850 1329.8454 3418.0423 518.9850 1470.2056 3721.1387 554.7340 1451.5864 3728.4413 554.7340 1470.2056 3721.1387 554.7340 1591.9466 4031.5377 588.5780 1451.5864 3728.4413 554.7340 1451.5864 3728.4413 554.7340 1591.9466 4031.5377 588.5780 1573.3274 4038.8403 588.5780 1591.9466 4031.5377 588.5780 1713.6886 4341.9367 620.5170 1573.3274 4038.8403 588.5780 1573.3274 4038.8403 588.5780 1713.6886 4341.9367 620.5170 1695.0694 4349.2393 620.5170 1713.6886 4341.9367 620.5170 1835.4296 4652.3367 650.5500 1695.0694 4349.2393 620.5170 1695.0694 4349.2393 620.5170 1835.4296 4652.3367 650.5500 1816.8104 4659.6393 650.5500 1835.4296 4652.3367 650.5500 1957.1706 4962.7357 678.6780 1816.8104 4659.6393 650.5500 1816.8104 4659.6393 650.5500 1957.1706 4962.7357 678.6780 1938.5514 4970.0383 678.6780 1957.1706 4962.7357 678.6780 2078.9116 5273.1347 704.9000 1938.5514 4970.0383 678.6780 1938.5514 4970.0383 678.6780 2078.9116 5273.1347 704.9000 2060.2924 5280.4373 704.9000 2078.9116 5273.1347 704.9000 2200.6536 5583.5337 729.2180 2060.2924 5280.4373 704.9000 2060.2924 5280.4373 704.9000 2200.6536 5583.5337 729.2180 2182.0344 5590.8363 729.2180 2200.6536 5583.5337 729.2180 2322.3946 5893.9327 751.6300 2182.0344 5590.8363 729.2180 2182.0344 5590.8363 729.2180 2322.3946 5893.9327 751.6300 2303.7754 5901.2353 751.6300 2322.3946 5893.9327 751.6300 2444.1356 6204.3327 772.1370 2303.7754 5901.2353 751.6300 2303.7754 5901.2353 751.6300 2444.1356 6204.3327 772.1370 2425.5164 6211.6353 772.1370 2444.1356 6204.3327 772.1370 2565.8776 6514.7317 790.7390 2425.5164 6211.6353 772.1370 2425.5164 6211.6353 772.1370 2565.8776 6514.7317 790.7390 2547.2584 6522.0343 790.7390 2565.8776 6514.7317 790.7390 2687.6186 6825.1307 807.4350 2547.2584 6522.0343 790.7390 2547.2584 6522.0343 790.7390 2687.6186 6825.1307 807.4350 2668.9994 6832.4333 807.4350 2687.6186 6825.1307 807.4350 2809.3596 7135.5297 822.2260 2668.9994 6832.4333 807.4350 2668.9994 6832.4333 807.4350 2809.3596 7135.5297 822.2260 2790.7404 7142.8323 822.2260 2809.3596 7135.5297 822.2260 2931.1016 7445.9287 835.1120 2790.7404 7142.8323 822.2260 2790.7404 7142.8323 822.2260 2931.1016 7445.9287 835.1120 2912.4824 7453.2313 835.1120 2931.1016 7445.9287 835.1120 3052.8426 7756.3277 846.0930 2912.4824 7453.2313 835.1120 2912.4824 7453.2313 835.1120 3052.8426 7756.3277 846.0930 3034.2234 7763.6303 846.0930 3052.8426 7756.3277 846.0930 3174.5836 8066.7277 855.1680 3034.2234 7763.6303 846.0930 3034.2234 7763.6303 846.0930 3174.5836 8066.7277 855.1680 3155.9644 8074.0303 855.1680 3174.5836 8066.7277 855.1680 3296.3256 8377.1267 862.3380 3155.9644 8074.0303 855.1680 3155.9644 8074.0303 855.1680 3296.3256 8377.1267 862.3380 3277.7064 8384.4293 862.3380 3296.3256 8377.1267 862.3380 3418.0666 8687.5257 867.6030 3277.7064 8384.4293 862.3380 3277.7064 8384.4293 862.3380 3418.0666 8687.5257 867.6030 3399.4474 8694.8283 867.6030 3418.0666 8687.5257 867.6030 3539.8076 8997.9247 870.9630 3399.4474 8694.8283 867.6030 3399.4474 8694.8283 867.6030 3539.8076 8997.9247 870.9630 3521.1884 9005.2273 870.9630 3539.8076 8997.9247 870.9630 3661.5496 9308.3237 872.4170 3521.1884 9005.2273 870.9630 3521.1884 9005.2273 870.9630 3661.5496 9308.3237 872.4170 3642.9304 9315.6263 872.4170 3661.5496 9308.3237 872.4170 3783.2906 9618.7237 871.9660 3642.9304 9315.6263 872.4170 3642.9304 9315.6263 872.4170 3783.2906 9618.7237 871.9660 3764.6714 9626.0263 871.9660 3783.2906 9618.7237 871.9660 3905.0316 9929.1227 869.6100 3764.6714 9626.0263 871.9660 3764.6714 9626.0263 871.9660 3905.0316 9929.1227 869.6100 3886.4124 9936.4253 869.6100 3905.0316 9929.1227 869.6100 4026.7736 10239.5217 865.3490 3886.4124 9936.4253 869.6100 3886.4124 9936.4253 869.6100 4026.7736 10239.5217 865.3490 4008.1544 10246.8243 865.3490 4026.7736 10239.5217 865.3490 4148.5146 10549.9207 859.1820 4008.1544 10246.8243 865.3490 4008.1544 10246.8243 865.3490 4148.5146 10549.9207 859.1820 4129.8954 10557.2233 859.1820 4148.5146 10549.9207 859.1820 4270.2556 10860.3197 851.1100 4129.8954 10557.2233 859.1820 4129.8954 10557.2233 859.1820 4270.2556 10860.3197 851.1100 4251.6364 10867.6223 851.1100 4270.2556 10860.3197 851.1100 4391.9976 11170.7187 841.1330 4251.6364 10867.6223 851.1100 4251.6364 10867.6223 851.1100 4391.9976 11170.7187 841.1330 4373.3784 11178.0213 841.1330 4391.9976 11170.7187 841.1330 4513.7386 11481.1187 829.2510 4373.3784 11178.0213 841.1330 4373.3784 11178.0213 841.1330 4513.7386 11481.1187 829.2510 4495.1194 11488.4213 829.2510 4513.7386 11481.1187 829.2510 4635.4796 11791.5177 815.4630 4495.1194 11488.4213 829.2510 4495.1194 11488.4213 829.2510 4635.4796 11791.5177 815.4630 4616.8604 11798.8203 815.4630 4635.4796 11791.5177 815.4630 4757.2216 12101.9167 799.7700 4616.8604 11798.8203 815.4630 4616.8604 11798.8203 815.4630 4757.2216 12101.9167 799.7700 4738.6024 12109.2193 799.7700 4757.2216 12101.9167 799.7700 4878.9626 12412.3157 782.1720 4738.6024 12109.2193 799.7700 4738.6024 12109.2193 799.7700 4878.9626 12412.3157 782.1720 4860.3434 12419.6183 782.1720 4878.9626 12412.3157 782.1720 5000.7036 12722.7147 762.6690 4860.3434 12419.6183 782.1720 4860.3434 12419.6183 782.1720 5000.7036 12722.7147 762.6690 4982.0844 12730.0173 762.6690 5000.7036 12722.7147 762.6690 5122.4456 13033.1137 741.2600 4982.0844 12730.0173 762.6690 4982.0844 12730.0173 762.6690 5122.4456 13033.1137 741.2600 5103.8264 13040.4163 741.2600 5122.4456 13033.1137 741.2600 5244.1866 13343.5137 717.9460 5103.8264 13040.4163 741.2600 5103.8264 13040.4163 741.2600 5244.1866 13343.5137 717.9460 5225.5674 13350.8163 717.9460 5244.1866 13343.5137 717.9460 5365.9276 13653.9127 692.7270 5225.5674 13350.8163 717.9460 5225.5674 13350.8163 717.9460 5365.9276 13653.9127 692.7270 5347.3084 13661.2153 692.7270 5365.9276 13653.9127 692.7270 5487.6686 13964.3117 665.6020 5347.3084 13661.2153 692.7270 5347.3084 13661.2153 692.7270 5487.6686 13964.3117 665.6020 5469.0494 13971.6143 665.6020 5487.6686 13964.3117 665.6020 5609.4106 14274.7107 636.5730 5469.0494 13971.6143 665.6020 5469.0494 13971.6143 665.6020 5609.4106 14274.7107 636.5730 5590.7914 14282.0133 636.5730 5609.4106 14274.7107 636.5730 5731.1516 14585.1097 605.6380 5590.7914 14282.0133 636.5730 5590.7914 14282.0133 636.5730 5731.1516 14585.1097 605.6380 5712.5324 14592.4123 605.6380 5731.1516 14585.1097 605.6380 5852.8926 14895.5097 572.7980 5712.5324 14592.4123 605.6380 5712.5324 14592.4123 605.6380 5852.8926 14895.5097 572.7980 5834.2734 14902.8123 572.7980 5852.8926 14895.5097 572.7980 5974.6346 15205.9087 538.0520 5834.2734 14902.8123 572.7980 5834.2734 14902.8123 572.7980 5974.6346 15205.9087 538.0520 5956.0154 15213.2113 538.0520 5974.6346 15205.9087 538.0520 6096.3756 15516.3077 501.4010 5956.0154 15213.2113 538.0520 5956.0154 15213.2113 538.0520 6096.3756 15516.3077 501.4010 6077.7564 15523.6103 501.4010 6096.3756 15516.3077 501.4010 6218.1166 15826.7067 462.8450 6077.7564 15523.6103 501.4010 6077.7564 15523.6103 501.4010 6218.1166 15826.7067 462.8450 6199.4974 15834.0093 462.8450 6218.1166 15826.7067 462.8450 6339.8586 16137.1057 422.3840 6199.4974 15834.0093 462.8450 6199.4974 15834.0093 462.8450 6339.8586 16137.1057 422.3840 6321.2394 16144.4083 422.3840 6339.8586 16137.1057 422.3840 6461.5996 16447.5047 380.0180 6321.2394 16144.4083 422.3840 6321.2394 16144.4083 422.3840 6461.5996 16447.5047 380.0180 6442.9804 16454.8073 380.0180 6461.5996 16447.5047 380.0180 6583.3406 16757.9047 335.7460 6442.9804 16454.8073 380.0180 6442.9804 16454.8073 380.0180 6583.3406 16757.9047 335.7460 6564.7214 16765.2073 335.7460 6583.3406 16757.9047 335.7460 6705.0826 17068.3037 289.5690 6564.7214 16765.2073 335.7460 6564.7214 16765.2073 335.7460 6705.0826 17068.3037 289.5690 6686.4634 17075.6063 289.5690 6705.0826 17068.3037 289.5690 6826.8236 17378.7027 241.4870 6686.4634 17075.6063 289.5690 6686.4634 17075.6063 289.5690 6826.8236 17378.7027 241.4870 6808.2044 17386.0053 241.4870</float_array>
          <technique_common>
            <accessor source="#portal_arc_a999-mesh-positions-array" count="336" stride="3">
              <param name="X" type="float"/>
              <param name="Y" type="float"/>
              <param name="Z" type="float"/>
            </accessor>
          </technique_common>
        </source>
        <source id="portal_arc_a999-mesh-normals">
          <float_array id="portal_arc_a999-mesh-normals-array" count="1008">-0.0612 -0.1561 0.9858 -0.0612 -0.1561 0.9858 -0.0612 -0.1561 0.9858 -0.0612 -0.1561 0.9858 -0.0612 -0.1561 0.9858 -0.0612 -0.1561 0.9858 -0.0592 -0.1510 0.9868 -0.0592 -0.1510 0.9868 -0.0592 -0.1510 0.9868 -0.0592 -0.1510 0.9868 -0.0592 -0.1510 0.9868 -0.0592 -0.1510 0.9868 -0.0572 -0.1459 0.9876 -0.0572 -0.1459 0.9876 -0.0572 -0.1459 0.9876 -0.0572 -0.1459 0.9876 -0.0572 -0.1459 0.9876 -0.0572 -0.1459 0.9876 -0.0552 -0.1407 0.9885 -0.0552 -0.1407 0.9885 -0.0552 -0.1407 0.9885 -0.0552 -0.1407 0.9885 -0.0552 -0.1407 0.9885 -0.0552 -0.1407 0.9885 -0.0532 -0.1356 0.9893 -0.0532 -0.1356 0.9893 -0.0532 -0.1356 0.9893 -0.0532 -0.1356 0.9893 -0.0532 -0.1356 0.9893 -0.0532 -0.1356 0.9893 -0.0512 -0.1304 0.9901 -0.0512 -0.1304 0.9901 -0.0512 -0.1304 0.9901 -0.0512 -0.1304 0.9901 -0.0512 -0.1304 0.9901 -0.0512 -0.1304 0.9901 -0.0491 -0.1253 0.9909 -0.0491 -0.1253 0.9909 -0.0491 -0.1253 0.9909 -0.0491 -0.1253 0.9909 -0.0491 -0.1253 0.9909 -0.0491 -0.1253 0.9909 -0.0471 -0.1201 0.9916 -0.0471 -0.1201 0.9916 -0.0471 -0.1201 0.9916 -0.0471 -0.1201 0.9916 -0.0471 -0.1201 0.9916 -0.0471 -0.1201 0.9916 -0.0451 -0.1149 0.9924 -0.0451 -0.1149 0.9924 -0.0451 -0.1149 0.9924 -0.0451 -0.1149 0.9924 -0.0451 -0.1149 0.9924 -0.0451 -0.1149 0.9924 -0.0430 -0.1097 0.9930 -0.0430 -0.1097 0.9930 -0.0430 -0.1097 0.9930 -0.0430 -0.1097 0.9930 -0.0430 -0.1097 0.9930 -0.0430 -0.1097 0.9930 -0.0410 -0.1045 0.9937 -0.0410 -0.1045 0.9937 -0.0410 -0.1045 0.9937 -0.0410 -0.1045 0.9937 -0.0410 -0.1045 0.9937 -0.0410 -0.1045 0.9937 -0.0389 -0.0992 0.9943 -0.0389 -0.0992 0.9943 -0.0389 -0.0992 0.9943 -0.0389 -0.0992 0.9943 -0.0389 -0.0992 0.9943 -0.0389 -0.0992 0.9943 -0.0369 -0.0940 0.9949 -0.0369 -0.0940 0.9949 -0.0369 -0.0940 0.9949 -0.0369 -0.0940 0.9949 -0.0369 -0.0940 0.9949 -0.0369 -0.0940 0.9949 -0.0348 -0.0888 0.9954 -0.0348 -0.0888 0.9954 -0.0348 -0.0888 0.9954 -0.0348 -0.0888 0.9954 -0.0348 -0.0888 0.9954 -0.0348 -0.0888 0.9954 -0.0328 -0.0835 0.9960 -0.0328 -0.0835 0.9960 -0.0328 -0.0835 0.9960 -0.0328 -0.0835 0.9960 -0.0328 -0.0835 0.9960 -0.0328 -0.0835 0.9960 -0.0307 -0.0783 0.9965 -0.0307 -0.0783 0.9965 -0.0307 -0.0783 0.9965 -0.0307 -0.0783 0.9965 -0.0307 -0.0783 0.9965 -0.0307 -0.0783 0.9965 -0.0286 -0.0730 0.9969 -0.0286 -0.0730 0.9969 -0.0286 -0.0730 0.9969 -0.0286 -0.0730 0.9969 -0.0286 -0.0730 0.9969 -0.0286 -0.0730 0.9969 -0.0266 -0.0677 0.9974 -0.0266 -0.0677 0.9974 -0.0266 -0.0677 0.9974 -0.0266 -0.0677 0.9974 -0.0266 -0.0677 0.9974 -0.0266 -0.0677 0.9974 -0.0245 -0.0624 0.9977 -0.0245 -0.0624 0.9977 -0.0245 -0.0624 0.9977 -0.0245 -0.0624 0.9977 -0.0245 -0.0624 0.9977 -0.0245 -0.0624 0.9977 -0.0224 -0.0572 0.9981 -0.0224 -0.0572 0.9981 -0.0224 -0.0572 0.9981 -0.0224 -0.0572 0.9981 -0.0224 -0.0572 0.9981 -0.0224 -0.0572 0.9981 -0.0203 -0.0519 0.9984 -0.0203 -0.0519 0.9984 -0.0203 -0.0519 0.9984 -0.0203 -0.0519 0.9984 -0.0203 -0.0519 0.9984 -0.0203 -0.0519 0.9984 -0.0183 -0.0466 0.9987 -0.0183 -0.0466 0.9987 -0.0183 -0.0466 0.9987 -0.0183 -0.0466 0.9987 -0.0183 -0.0466 0.9987 -0.0183 -0.0466 0.9987 -0.0162 -0.0413 0.9990 -0.0162 -0.0413 0.9990 -0.0162 -0.0413 0.9990 -0.0162 -0.0413 0.9990 -0.0162 -0.0413 0.9990 -0.0162 -0.0413 0.9990 -0.0141 -0.0360 0.9993 -0.0141 -0.0360 0.9993 -0.0141 -0.0360 0.9993 -0.0141 -0.0360 0.9993 -0.0141 -0.0360 0.9993 -0.0141 -0.0360 0.9993 -0.0120 -0.0306 0.9995 -0.0120 -0.0306 0.9995 -0.0120 -0.0306 0.9995 -0.0120 -0.0306 0.9995 -0.0120 -0.0306 0.9995 -0.0120 -0.0306 0.9995 -0.0099 -0.0253 0.9996 -0.0099 -0.0253 0.9996 -0.0099 -0.0253 0.9996 -0.0099 -0.0253 0.9996 -0.0099 -0.0253 0.9996 -0.0099 -0.0253 0.9996 -0.0079 -0.0200 0.9998 -0.0079 -0.0200 0.9998 -0.0079 -0.0200 0.9998 -0.0079 -0.0200 0.9998 -0.0079 -0.0200 0.9998 -0.0079 -0.0200 0.9998 -0.0058 -0.0147 0.9999 -0.0058 -0.0147 0.9999 -0.0058 -0.0147 0.9999 -0.0058 -0.0147 0.9999 -0.0058 -0.0147 0.9999 -0.0058 -0.0147 0.9999 -0.0037 -0.0094 0.9999 -0.0037 -0.0094 0.9999 -0.0037 -0.0094 0.9999 -0.0037 -0.0094 0.9999 -0.0037 -0.0094 0.9999 -0.0037 -0.0094 0.9999 -0.0016 -0.0041 1.0000 -0.0016 -0.0041 1.0000 -0.0016 -0.0041 1.0000 -0.0016 -0.0041 1.0000 -0.0016 -0.0041 1.0000 -0.0016 -0.0041 1.0000 0.0005 0.0013 1.0000 0.0005 0.0013 1.0000 0.0005 0.0013 1.0000 0.0005 0.0013 1.0000 0.0005 0.0013 1.0000 0.0005 0.0013 1.0000 0.0026 0.0066 1.0000 0.0026 0.0066 1.0000 0.0026 0.0066 1.0000 0.0026 0.0066 1.0000 0.0026 0.0066 1.0000 0.0026 0.0066 1.0000 0.0047 0.0119 0.9999 0.0047 0.0119 0.9999 0.0047 0.0119 0.9999 0.0047 0.0119 0.9999 0.0047 0.0119 0.9999 0.0047 0.0119 0.9999 0.0068 0.0172 0.9998 0.0068 0.0172 0.9998 0.0068 0.0172 0.9998 0.0068 0.0172 0.9998 0.0068 0.0172 0.9998 0.0068 0.0172 0.9998 0.0088 0.0225 0.9997 0.0088 0.0225 0.9997 0.0088 0.0225 0.9997 0.0088 0.0225 0.9997 0.0088 0.0225 0.9997 0.0088 0.0225 0.9997 0.0109 0.0278 0.9996 0.0109 0.0278 0.9996 0.0109 0.0278 0.9996 0.0109 0.0278 0.9996 0.0109 0.0278 0.9996 0.0109 0.0278 0.9996 0.0130 0.0332 0.9994 0.0130 0.0332 0.9994 0.0130 0.0332 0.9994 0.0130 0.0332 0.9994 0.0130 0.0332 0.9994 0.0130 0.0332 0.9994 0.0151 0.0385 0.9991 0.0151 0.0385 0.9991 0.0151 0.0385 0.9991 0.0151 0.0385 0.9991 0.0151 0.0385 0.9991 0.0151 0.0385 0.9991 0.0172 0.0438 0.9989 0.0172 0.0438 0.9989 0.0172 0.0438 0.9989 0.0172 0.0438 0.9989 0.0172 0.0438 0.9989 0.0172 0.0438 0.9989 0.0192 0.0491 0.9986 0.0192 0.0491 0.9986 0.0192 0.0491 0.9986 0.0192 0.0491 0.9986 0.0192 0.0491 0.9986 0.0192 0.0491 0.9986 0.0213 0.0544 0.9983 0.0213 0.0544 0.9983 0.0213 0.0544 0.9983 0.0213 0.0544 0.9983 0.0213 0.0544 0.9983 0.0213 0.0544 0.9983 0.0234 0.0597 0.9979 0.0234 0.0597 0.9979 0.0234 0.0597 0.9979 0.0234 0.0597 0.9979 0.0234 0.0597 0.9979 0.0234 0.0597 0.9979 0.0255 0.0649 0.9976 0.0255 0.0649 0.9976 0.0255 0.0649 0.9976 0.0255 0.0649 0.9976 0.0255 0.0649 0.9976 0.0255 0.0649 0.9976 0.0275 0.0702 0.9972 0.0275 0.0702 0.9972 0.0275 0.0702 0.9972 0.0275 0.0702 0.9972 0.0275 0.0702 0.9972 0.0275 0.0702 0.9972 0.0296 0.0755 0.9967 0.0296 0.0755 0.9967 0.0296 0.0755 0.9967 0.0296 0.0755 0.9967 0.0296 0.0755 0.9967 0.0296 0.0755 0.9967 0.0317 0.0807 0.9962 0.0317 0.0807 0.9962 0.0317 0.0807 0.9962 0.0317 0.0807 0.9962 0.0317 0.0807 0.9962 0.0317 0.0807 0.9962 0.0337 0.0860 0.9957 0.0337 0.0860 0.9957 0.0337 0.0860 0.9957 0.0337 0.0860 0.9957 0.0337 0.0860 0.9957 0.0337 0.0860 0.9957 0.0358 0.0913 0.9952 0.0358 0.0913 0.9952 0.0358 0.0913 0.9952 0.0358 0.0913 0.9952 0.0358 0.0913 0.9952 0.0358 0.0913 0.9952 0.0378 0.0965 0.9946 0.0378 0.0965 0.9946 0.0378 0.0965 0.9946 0.0378 0.0965 0.9946 0.0378 0.0965 0.9946 0.0378 0.0965 0.9946 0.0399 0.1017 0.9940 0.0399 0.1017 0.9940 0.0399 0.1017 0.9940 0.0399 0.1017 0.9940 0.0399 0.1017 0.9940 0.0399 0.1017 0.9940 0.0419 0.1069 0.9934 0.0419 0.1069 0.9934 0.0419 0.1069 0.9934 0.0419 0.1069 0.9934 0.0419 0.1069 0.9934 0.0419 0.1069 0.9934 0.0440 0.1122 0.9927 0.0440 0.1122 0.9927 0.0440 0.1122 0.9927 0.0440 0.1122 0.9927 0.0440 0.1122 0.9927 0.0440 0.1122 0.9927 0.0460 0.1173 0.9920 0.0460 0.1173 0.9920 0.0460 0.1173 0.9920 0.0460 0.1173 0.9920 0.0460 0.1173 0.9920 0.0460 0.1173 0.9920 0.0481 0.1225 0.9913 0.0481 0.1225 0.9913 0.0481 0.1225 0.9913 0.0481 0.1225 0.9913 0.0481 0.1225 0.9913 0.0481 0.1225 0.9913 0.0501 0.1277 0.9905 0.0501 0.1277 0.9905 0.0501 0.1277 0.9905 0.0501 0.1277 0.9905 0.0501 0.1277 0.9905 0.0501 0.1277 0.9905 0.0521 0.1329 0.9898 0.0521 0.1329 0.9898 0.0521 0.1329 0.9898 0.0521 0.1329 0.9898 0.0521 0.1329 0.9898 0.0521 0.1329 0.9898</float_array>
          <technique_common>
            <accessor source="#portal_arc_a999-mesh-normals-array" count="336" stride="3">
              <param name="X" type="float"/>
              <param name="Y" type="float"/>
              <param name="Z" type="float"/>
            </accessor>
          </technique_common>
        </source>
        <source id="portal_arc_a999-mesh-map-0">
          <float_array id="portal_arc_a999-mesh-map-0-array" count="672">0 0 0 0 0 0 0 0 0 0 0 0 0 0 0 0 0 0 0 0 0 0 0 0 0 0 0 0 0 0 0 0 0 0 0 0 0 0 0 0 0 0 0 0 0 0 0 0 0 0 0 0 0 0 0 0 0 0 0 0 0 0 0 0 0 0 0 0 0 0 0 0 0 0 0 0 0 0 0 0 0 0 0 0 0 0 0 0 0 0 0 0 0 0 0 0 0 0 0 0 0 0 0 0 0 0 0 0 0 0 0 0 0 0 0 0 0 0 0 0 0 0 0 0 0 0 0 0 0 0 0 0 0 0 0 0 0 0 0 0 0 0 0 0 0 0 0 0 0 0 0 0 0 0 0 0 0 0 0 0 0 0 0 0 0 0 0 0 0 0 0 0 0 0 0 0 0 0 0 0 0 0 0 0 0 0 0 0 0 0 0 0 0 0 0 0 0 0 0 0 0 0 0 0 0 0 0 0 0 0 0 0 0 0 0 0 0 0 0 0 0 0 0 0 0 0 0 0 0 0 0 0 0 0 0 0 0 0 0 0 0 0 0 0 0 0 0 0 0 0 0 0 0 0 0 0 0 0 0 0 0 0 0 0 0 0 0 0 0 0 0 0 0 0 0 0 0 0 0 0 0 0 0 0 0 0 0 0 0 0 0 0 0 0 0 0 0 0 0 0 0 0 0 0 0 0 0 0 0 0 0 0 0 0 0 0 0 0 0 0 0 0 0 0 0 0 0 0 0 0 0 0 0 0 0 0 0 0 0 0 0 0 0 0 0 0 0 0 0 0 0 0 0 0 0 0 0 0 0 0 0 0 0 0 0 0 0 0 0 0 0 0 0 0 0 0 0 0 0 0 0 0 0 0 0 0 0 0 0 0 0 0 0 0 0 0 0 0 0 0 0 0 0 0 0 0 0 0 0 0 0 0 0 0 0 0 0 0 0 0 0 0 0 0 0 0 0 0 0 0 0 0 0 0 0 0 0 0 0 0 0 0 0 0 0 0 0 0 0 0 0 0 0 0 0 0 0 0 0 0 0 0 0 0 0 0 0 0 0 0 0 0 0 0 0 0 0 0 0 0 0 0 0 0 0 0 0 0 0 0 0 0 0 0 0 0 0 0 0 0 0 0 0 0 0 0 0 0 0 0 0 0 0 0 0 0 0 0 0 0 0 0 0 0 0 0 0 0 0 0 0 0 0 0 0 0 0 0 0 0 0 0 0 0 0 0 0 0 0 0 0 0 0 0 0 0 0 0 0 0 0 0 0 0 0 0 0 0 0 0 0 0 0 0 0 0 0 0 0 0 0 0 0 0 0 0 0 0 0 0 0 0 0 0 0 0 0 0 0 0 0 0 0 0 0 0 0 0 0 0 0 0 0 0 0 0 0 0 0 0 0 0 0 0 0 0 0 0 0 0 0 0 0 0 0 0 0 0 0 0 0 0 0 0 0 0 0 0 0 0 0 0 0 0 0 0 0 0 0 0 0 0 0 0 0 0 0 0 0 0 0 0</float_array>
          <technique_common>
            <accessor source="#portal_arc_a999-mesh-map-0-array" count="336" stride="2">
              <param name="S" type="float"/>
              <param name="T" type="float"/>
            </accessor>
          </technique_common>
        </source>
        <vertices id="portal_arc_a999-mesh-vertices">
          <input semantic="POSITION" source="#portal_arc_a999-mesh-positions"/>
        </vertices>
        <triangles material="portal_arc" count="112">
          <input semantic="VERTEX" source="#portal_arc_a999-mesh-vertices" offset="0"/>
          <input semantic="NORMAL" source="#portal_arc_a999-mesh-normals" offset="0"/>
          <input semantic="TEXCOORD" source="#portal_arc_a999-mesh-map-0" offset="0" set="0"/>
          <p>0 1 2 3 4 5 6 7 8 9 10 11 12 13 14 15 16 17 18 19 20 21 22 23 24 25 26 27 28 29 30 31 32 33 34 35 36 37 38 39 40 41 42 43 44 45 46 47 48 49 50 51 52 53 54 55 56 57 58 59 60 61 62 63 64 65 66 67 68 69 70 71 72 73 74 75 76 77 78 79 80 81 82 83 84 85 86 87 88 89 90 91 92 93 94 95 96 97 98 99 100 101 102 103 104 105 106 107 108 109 110 111 112 113 114 115 116 117 118 119 120 121 122 123 124 125 126 127 128 129 130 131 132 133 134 135 136 137 138 139 140 141 142 143 144 145 146 147 148 149 150 151 152 153 154 155 156 157 158 159 160 161 162 163 164 165 166 167 168 169 170 171 172 173 174 175 176 177 178 179 180 181 182 183 184 185 186 187 188 189 190 191 192 193 194 195 196 197 198 199 200 201 202 203 204 205 206 207 208 209 210 211 212 213 214 215 216 217 218 219 220 221 222 223 224 225 226 227 228 229 230 231 232 233 234 235 236 237 238 239 240 241 242 243 244 245 246 247 248 249 250 251 252 253 254 255 256 257 258 259 260 261 262 263 264 265 266 267 268 269 270 271 272 273 274 275 276 277 278 279 280 281 282 283 284 285 286 287 288 289 290 291 292 293 294 295 296 297 298 299 300 301 302 303 304 305 306 307 308 309 310 311 312 313 314 315 316 317 318 319 320 321 322 323 324 325 326 327 328 329 330 331 332 333 334 335</p>
        </triangles>
      </mesh>
    </geometry>
  </library_geometries>
  <library_visual_scenes>
    <visual_scene id="Scene" name="Scene">
      <node id="base00" name="base00" type="NODE">
        <node id="start01" name="start01" type="NODE">
          <node id="portal_arc_a999" name="portal_arc_a999" type="NODE">
            <instance_geometry url="#portal_arc_a999-mesh">
              <bind_material>
                <technique_common>
                  <instance_material symbol="portal_arc" target="#portal_arc-material">
                    <bind_vertex_input semantic="UVSET0" input_semantic="TEXCOORD" input_set="0"/>
                  </instance_material>
                </technique_common>
              </bind_material>
            </instance_geometry>
          </node>
        </node>
      </node>
    </visual_scene>
  </library_visual_scenes>
  <scene>
    <instance_visual_scene url="#Scene"/>
  </scene>
</COLLADA>
